<svg xmlns="http://www.w3.org/2000/svg" width="1260" height="1260"><path fill="#010101" d="M638.5 81c14.8 11.6 20 31.8 23.1 49.5.5 4 .6 7.9.6 11.9v2.2A55 55 0 0 1 660 160l1.8-.1c26-.9 48.7 18 66.6 34.7a125.6 125.6 0 0 1 14.2 15.5c42.3 51 67.9 119.6 61.9 186.2-4 38.1-18.5 75.8-45.5 103.7 2.4 1.9 4 3 7 4l5-4h2l.3-2.1c1.3-5.1 3.6-8.1 7.8-11.2a29 29 0 0 1 20.7-1.6c5 2 9.9 4.8 12.9 9.5 3.5 3.6 7 3.5 12 4l5.6.6 2.9.4c5 .7 10 1.9 14.8 3 3.4.8 6.3 1.4 9.8 1.5 3.2.9 3.2.9 5.1 4.2 2.5 5.4 4.7 11 7 16.4l1.3 3.5a8806 8806 0 0 1 7.3 17.9l1.4 3.5a6006.8 6006.8 0 0 0 12.4 30.7l1.1 3A34.8 34.8 0 0 0 906 598l2.1 1.9 1.8 1.5c4.6 4 8.9 8.2 13.2 12.5l2.3 2.3a244.7 244.7 0 0 1 15.2 16.7c9.1 10.9 17.5 22.3 25.4 34.1a54.6 54.6 0 0 0 9.6.4h7.6a3930.9 3930.9 0 0 1 20.4.1h15.5a13983.7 13983.7 0 0 0 63 .3l68.9.2a2107.9 2107.9 0 0 1-2.2 6.7c-1 2.8-2.2 5.4-3.5 8.1l-1.5 3.2-1.7 3.3-3.5 7.3-1 1.9c-3 6.2-5.8 12.4-8.7 18.7-8.2 17.6-16.5 35.1-24.9 52.6l-4.4 9.4-6.6 13.8 2.5.8a110 110 0 0 1 58.9 54.6c13.5 29.6 11.7 62.5.8 92.6a219.9 219.9 0 0 1-46.5 73l-6 6.9c-3.6 4-7.5 7.8-11.5 11.5l-2 2c-5.6 5.1-11.3 10-17.2 14.6l-1.7 1.4c-45.8 36.3-98 60.3-152.3 80.6 14.2 4.9 28.4 9.4 43 13-1.1 7.4-5.5 12.2-11.4 16.6-40.7 26.6-99.5 27.7-146.6 30.4l-2.4.1c-19.9 1.2-39.7 1.1-59.5 1h-2.7c-33.7 0-67.1-.7-100.7-4.1l-3.7-.4-3.2-.4c-9-.5-17.9-.1-26.8.5a933.9 933.9 0 0 1-66.6 1.6h-16c-166.7.3-166.7.3-205.4-36.2a17.4 17.4 0 0 1-4.8-8l-1.2-2.1c-1.8-.5-1.8-.5-4-.8-8.1-1.5-16-4.3-23.8-7l-2.5-.9C221.5 1114.3 162 1083 125 1032l-1.3-1.7a141 141 0 0 1-27.9-77c-.9-32 11.3-61.6 32.9-84.8l2.3-2.5 2.2-2.4c12-12.7 26.4-21.7 41.8-29.6l3.5-1.9A214 214 0 0 1 256 811l-.4-1.7c-1.6-7.2-2-14-2-21.4l.1-3.6c.1-9.4 1-18.2 3.3-27.3l.5-2.1a212.2 212.2 0 0 1 20.2-50.4 314 314 0 0 1 43.4-62.2c1.9-2 3.6-4.2 5.4-6.3 7.8-9.4 16.3-18 25-26.6a2481.5 2481.5 0 0 0 11.5-11.6l2-2a263 263 0 0 1 17.3-15.7 549.3 549.3 0 0 1 94.5-66.9l10.5-6c2-1 3.8-2.1 5.7-3.2l-1.6-1.4c-5-4.3-9.6-8.8-14.2-13.4-17-17.4-35.7-30.9-60.9-31.6-12-.1-23.5 1.7-35.2 4.3-9 1.9-17.8 2.4-27 2.5h-3.5c-11 0-20.8-2.4-29.6-9.4-7.6-8.6-9-18.5-8.2-29.7 2.5-24.5 16.6-48.3 30.2-68.3l1.4-2a396.2 396.2 0 0 1 27.6-35.9 534 534 0 0 1 37.6-39.8 288 288 0 0 1 21.8-20.2C473 222.9 521 191 574 174l-2.6-3-3.4-4-1.6-1.9a52.2 52.2 0 0 1-11.2-36.4A69.6 69.6 0 0 1 580 86c17.8-13.5 39.3-18.3 58.5-5Z"/><path fill="#1C1B1B" d="M748 674h394a95 95 0 0 1-5 12.4l-1 1.8a1941.5 1941.5 0 0 1-8 16.6c-3.2 6.5-6.2 13-9.3 19.6-5.2 11.5-10.6 22.9-16 34.2l-17.9 37.8-1 2-4.8 10.4-9 19-5 10.7-2 4.3-1 2-4 8.6a1698035.7 1698035.7 0 0 0-40.2 85.1c-4.4 9.4-8.7 19-12.8 28.5l3 1-1 4h-2a1483.4 1483.4 0 0 0-29-.1c-17.2-.2-30.9 1.7-46.6 9-3.4 1.5-6.8 2.8-10.3 4-1.2.5-2.4 1-3.6 1.3a747.6 747.6 0 0 1-116.5 31.3l-9.9 1.8a597.9 597.9 0 0 1-40 6c-3.8.5-7.6 1-11.4 1.8-7.6 1.3-15.3 2-23 2.6l-8 .9c-.9 0-1.7.2-2.6.3l-5 .5c-3.7.4-7.3.6-11.1.6v-22l-4.5.5c-10.3.8-20.5.9-30.8 1a19475.8 19475.8 0 0 0-21.7.5l1 2-1 2h2.3l10.8-.5 3.6-.1a635.3 635.3 0 0 1 35.3-.4v1.7a153481.4 153481.4 0 0 0 3.7 126.4c.4 9.3.4 18.6.3 27.9-11 2.7-21.9 5-33 6.6-.8 0-1.5.2-2.3.3a731 731 0 0 1-93.7 6.1h-3.5c-52.6.6-104.4-1-156.5-8l1-4.8.5-2.7c.4-2 1-4.1 1.6-6.2 2.3-8.1 2-16.2 2-24.6l.1-3.9c0-7.2-.4-13.8-2.2-20.8l2.5-1.4a325.3 325.3 0 0 0 62.7-46l6.7-6c3.9-3.3 7.5-6.8 11.1-10.4l1.8-1.8 4.2-4.4v-2l-3-3 8-8-3-.4a853.4 853.4 0 0 1-102.2-16.7C330 999.6 271 981.3 216.2 953l-4.8-2.4A420 420 0 0 1 134 901l-1.8-1.4-5.3-4.4-1.6-1.3a67 67 0 0 1-9.3-9.9 160.2 160.2 0 0 1 59-50l3.5-1.9A212 212 0 0 1 257 811l.5 1.6a119.2 119.2 0 0 0 28.7 49.8c19.7 21 49 34.4 75.8 43.6l4.2 1.5c10.2 3.5 20.6 6.4 31 9.2 10.8 3 10.8 3 14.2 6.4 14.4 13 35.2 17.8 53.6 21.9l3.6.8a93 93 0 0 0 18.6 2.3c18.8.4 31.9 5.4 48 14.4 4.8 2.5 8.2 3.8 13.6 3.6h3l2.2-.1-1.6-.7-7.5-3.1-2.8-1.2c-5-2.2-10-4.4-14.9-7-11.3-6-20-9-32.8-9-25.3.1-62.7-8-81.7-26.2L411 917c2.2-9.5 5.7-18.5 9-27.5l3-7.9 5.1-13.8c4.2-11.1 8.2-22.4 12-33.7.4-1 .8-2 1.1-3.2l1-2.8c.8-2.1.8-2.1 1.8-3.1 8 0 15.7 2.2 23.3 4.2l11 2.7 2.2.5 20.7 4.8 3.3.7c5.1 1.2 10.3 2.3 15.5 3.2a70 70 0 0 1 30.6 13.2c4.8 3.4 10 6.4 15 9.5A156373 156373 0 0 1 633 905a111 111 0 0 1-6 14.8l-1 2.4-1.1 2.2-1 2c-.9 1.6-.9 1.6-2.9 2.6-2.3-1.1-2.3-1.1-5.1-3l-3.2-1.9a7927.3 7927.3 0 0 1-20.7-13c-33.4-21-33.4-21-47-31-2.8-2.4-2.8-2.4-6-2.1v4c2.1 2 2.1 2 5 3.8l3.3 2.1a6670.1 6670.1 0 0 0 57.9 36.9c4.7 2.9 9.3 6 13.8 9.2-2.4 8.2-6 15.5-10 23-3.3-.6-5.6-1.8-8.4-3.7-.9-.5-1.8-1-2.7-1.7a632286714 632286714 0 0 0-8.8-5.7l-3-2-14-8.8-24.6-15.7-3.2-2-3-2-2.8-1.8-6-4c-2.4-1.9-2.4-1.9-5.5-1.6v4c2 1.8 2 1.8 4.7 3.3l3 1.8 3.2 2 6.7 4 3.3 2c4 2.4 7.9 5 11.7 7.5A1607.7 1607.7 0 0 0 590 952l2.1 1.4a850 850 0 0 1 5.3 3.4l2.7 1.7 1.9 1.5v2l-4 4h12c7.8-16 15.5-32 23-48.2l13.3-28.3c4.7-10 9.3-20 13.8-30.1 2.5-5.7 5.3-11.2 8-16.7 2.7-5.2 5-10.6 7.4-15.9 2.2-5.2 4.7-10.3 7.3-15.3a1122.2 1122.2 0 0 0 19.9-41.6l5.5-11.6c7.7-16.3 15.3-32.6 22.7-49 3.8-8.6 7.9-17 12.1-25.3l5-10Z"/><path fill="#FEFEFE" d="m545 415 9.6.9 2.6.2c5.4.5 10.7 1.1 16 1.9 8.1 1 16.3 1.8 24.5 2.4A3768.6 3768.6 0 0 0 717 427a61.6 61.6 0 0 1 6.5 33.7A44 44 0 0 1 718 483l-8-2a29 29 0 0 0 13.8 10.3 257.4 257.4 0 0 1 28.4 12.5l4.2 2 2 1c4.5 2 4.5 2 5.6 3.2l.8 7c.6 5.8 1.9 10.3 5 15.3a14 14 0 0 1 2.2 4.7l-1 2.2a29 29 0 0 0-1.4 11v2.3c.1 4.2.5 7.5 2.4 11.3 2.5 5 2.2 9.7 2 15.2-.2 10.1 1 17.3 6.7 25.8 1.6 2.6 2.6 5.3 3.7 8.1 4 9.7 8.9 17.6 18.7 22 5.9 2.2 11.7 3 17.9 4.1v30h-35c-2.3-10.4-4.6-20.8-6.6-31.3l-.4-2.1-2-10.4-.7-3.8-.6-3.5c-.6-2.6-1.4-4.6-2.7-6.9l-3 1c2 11.2 4.3 22.3 6.6 33.4a7079 7079 0 0 1 2.6 12.4l.4 2 1.4 9.2h-37l-2 6-3.3 7.2-1 2c-1 2.4-2.2 4.6-3.3 7a11897.8 11897.8 0 0 0-40.4 85.6L683 800l-3 6.4-1 2.1a64901.2 64901.2 0 0 0-11 23.3l-1 2-11.5 24.7-1.2 2.4a35393.5 35393.5 0 0 1-18.3 39c-4-1.2-7.3-2.6-10.9-4.9l-2.7-1.7-3-2-6.5-4-1.7-1.1a1185.8 1185.8 0 0 0-29.8-18.3 6834.4 6834.4 0 0 1-18.5-11.2c-4.1-2.4-8.1-5-12-7.7a82.4 82.4 0 0 0-32.5-12.4l-14.2-3.1-9.6-2.2L463 824l-2.6-.7L446 820c-1-4-1-7.3-.4-11.4l.3-2a1121 1121 0 0 1 1.6-11.6c2.5-18.8 5.4-37.7 8.2-56.5 2.5-17 5-34 7.1-51a1402.5 1402.5 0 0 1 7.6-52.4c3.1-20.5 3.1-20.5 4.6-41.1l-4 1-.4 2.3a14591.2 14591.2 0 0 1-24 157.9 7444.2 7444.2 0 0 0-5.6 37.3l-.4 3c-.6 2.4-1.4 4.3-2.6 6.5l-1.2-2.2c-14.8-26.5-38.4-40.9-66.8-49.4a102.4 102.4 0 0 0-64 3.6c-.8 2-.8 2-1 4l1.7-.4 7.9-2 2.7-.7a111 111 0 0 1 82.1 12.5 91.7 91.7 0 0 1 37.7 43.7l1 2.3c4 10.1-1.3 19.2-5.1 28.9-3.9 10-7.6 20.1-11 30.3-4.8 14-9.8 27.7-15 41.4-8.7-1.2-16.9-3.2-25.3-5.8l-3.5-1A293 293 0 0 1 352 898l-1.9-.8c-23.6-9.7-45-22-63.1-40.2l-2.2-2.2A99.8 99.8 0 0 1 263 816l-1-3.1c-11-34.2 3.3-71.5 18.4-101.8A303 303 0 0 1 307 669l1.3-1.8c6.2-8.3 12.9-16.3 19.7-24.2l2-2.2a553 553 0 0 1 37.8-39.7l1.8-1.8a252.4 252.4 0 0 1 17-15.4 455 455 0 0 1 27.5-22.5 511.5 511.5 0 0 1 62-41.7c20.8-12 42.9-23 66.9-25.7l-1-2.6-1.4-3.4-1.3-3.4c-3-8.2-3.6-15-3.5-23.7v-3.4c.2-14 1.2-30.5 9.2-42.5Z"/><path fill="#FEFEFE" d="M748 674h394a95 95 0 0 1-5 12.4l-1 1.8a1941.5 1941.5 0 0 1-8 16.6c-3.2 6.5-6.2 13-9.3 19.6-5.2 11.5-10.6 22.9-16 34.2l-17.9 37.8-1 2-4.8 10.4-9 19-5 10.7-2 4.3-1 2-4 8.6a1698035.7 1698035.7 0 0 0-43 91.2c-3.5 7.5-7.3 15-11 22.4H611c.8-4.1 1.7-6.7 3.5-10.4l1.5-3.2 1.8-3.5 3.5-7.3 1-2 9-19.2 15-31.9c4.7-10 9.3-20 13.8-30.1 2.5-5.7 5.3-11.2 8-16.7 2.7-5.2 5-10.6 7.4-15.9 2.2-5.2 4.7-10.3 7.3-15.3a1122.2 1122.2 0 0 0 19.9-41.6l5.5-11.6c7.7-16.3 15.3-32.6 22.7-49 3.8-8.6 7.9-17 12.1-25.3l5-10Z"/><path d="M116 885a100754655487424.1 100754655487424.1 0 0 0 9.8 8.4 444.3 444.3 0 0 0 83.8 55.6c29.3 16 61 28.1 92.4 39l2.5.9A721.4 721.4 0 0 0 432 1020c21.2 3.7 42.5 6.6 63.9 8.9l-1.2 1.4-1.7 2-1.6 1.8c-1.7 2-1.7 2-3.5 4.8l3 2a24.6 24.6 0 0 1-5.9 8l-2.3 2.4-2.4 2.4-2.4 2.4a278 278 0 0 1-18.3 16.7 357.1 357.1 0 0 1-50 36.2l-2 1.2c-4.5 2.7-4.5 2.7-6.7 2.7l-1-4-1.9 1A336.7 336.7 0 0 1 352 1130c-11 4-22.1 7.9-33.4 11l-2.2.8c-11.3 3-23.4-3-34-6.7l-2.6-.9C221.5 1114.3 162 1083 125 1032l-1.3-1.7A141 141 0 0 1 96 956l-.2-2.8c-.7-23.8 6-45.8 18.2-66.2l2-2Z"/><path fill="#FEFEFE" d="M672 1015h11v1.7a153481 153481 0 0 0 3.7 126.4c.4 9.3.4 18.6.3 27.9-11 2.7-21.9 5-33 6.6-.8 0-1.5.2-2.3.3a731 731 0 0 1-93.7 6.1h-3.5c-52.6.6-104.4-1-156.5-8a2218 2218 0 0 1 1.5-7.5c.4-2 1-4.1 1.6-6.2 2.3-8.1 2-16.2 2-24.6l.1-3.9c0-7.2-.4-13.8-2.2-20.8l2.5-1.4a325.2 325.2 0 0 0 62.7-46l6.7-6c6.4-5.4 12.2-11.6 18.1-17.6 4 1.3 7.8 2.8 11.6 4.5a113.7 113.7 0 0 0 87.2.4c13.3-5.4 31-15.1 37.4-28.5 1.8-2.4 1.8-2.4 4.6-3l3.5-.1h3.9a5792.5 5792.5 0 0 1 8-.2l24.9-.1Z"/><path fill="#FDFDFD" d="M445.7 825c7.4.7 14.5 2.3 21.6 4.2l11 2.7 2.2.5 20.7 4.8 3.3.7c5.1 1.2 10.3 2.3 15.5 3.2a70 70 0 0 1 30.6 13.2c4.8 3.4 10 6.4 15 9.5A156373 156373 0 0 1 633 905a111 111 0 0 1-6 14.8l-1 2.4-1.1 2.2-1 2c-.9 1.6-.9 1.6-2.9 2.6-2.3-1.1-2.3-1.1-5.1-3l-3.2-1.9a7927.4 7927.4 0 0 1-20.7-13c-33.4-21-33.4-21-47-31-2.8-2.4-2.8-2.4-6-2.1v4c2.1 2 2.1 2 5 3.8l3.3 2.1a6670.1 6670.1 0 0 0 57.9 36.9c4.7 2.9 9.3 6 13.8 9.2-2.4 8.2-6 15.5-10 23-3.3-.6-5.6-1.8-8.4-3.7-.9-.5-1.8-1-2.7-1.7a632309919.6 632309919.6 0 0 0-8.8-5.7l-3-2-14-8.8-24.6-15.7-3.2-2a340862843.4 340862843.4 0 0 1-11.8-7.9c-2.4-1.8-2.4-1.8-5.5-1.5v4c2 1.8 2 1.8 4.7 3.3l3 1.8 3.2 2 6.7 4 3.3 2c4 2.4 7.9 5 11.7 7.5a1607.7 1607.7 0 0 0 32.5 20.8 850 850 0 0 1 5.3 3.3l2.7 1.8 1.9 1.5v2c-6.9 6.2-14.5 5.8-23.2 5.7h-7.2c-15 0-26.6-5-39.9-11.8-13.6-7-24.5-11.5-40.1-10.9-24.4 0-60.8-8.8-78.9-26.2L411 917c2.2-9.5 5.7-18.5 9-27.5l3-7.9 5.1-13.8c4.2-11.1 8.2-22.4 12-33.7l1.2-3.2.9-2.8c1.2-3.1 1.2-3.1 3.5-3.1Z"/><path fill="#FBFBFB" d="M800.5 502.6h2.3c18.5 0 39 .9 56.2 8.4 3 3 4.3 6.8 5.9 10.8l.8 2 2.7 6.9 4 10 1.2 2.8 8.5 20.8c11.3 27.6 22.3 55.2 31.5 83.6l.7 2a1054.3 1054.3 0 0 1 2.8 9A60 60 0 0 1 919 669h-94v-35h-11a31 31 0 0 1-21.4-13.6L790 616l-1.2-2c-.8-2-.8-2-.8-6 11.8-.4 23 .5 34.7 2.2 5.4.9 10.9 1.4 16.3 1.8v-3a148.3 148.3 0 0 0-39.9-5.5l-7.2-.4h-2.3c-2-.2-2-.2-5.6-1.1-5.1-6.1-6.3-12-6.2-19.8v-4c.2-3.2.2-3.2 1.2-5.2 10.4-.4 20.5.2 30.8 1.3l3.4.4c6.6.7 12.9 2 19.2 3.7 2.8.8 2.8.8 6.6.6v-4l-12.4-2.4-3.6-.7c-11-2.2-21.4-3-32.6-3.5h-3.6l-8.8-.4a42.7 42.7 0 0 1-4.3-18.4v-3.3c.3-3.7 1.5-6.1 3.3-9.3 18.7-.5 37.4.5 55.8 4.6 2.4.4 4.7.5 7.2.4l1-4-2.2-.4-3-.5-3.4-.5a794.6 794.6 0 0 1-9.5-1.7l-2.6-.4a164 164 0 0 0-26-1.7 371.3 371.3 0 0 0-12.5 0H778c-3.1-.8-3.1-.8-5.4-3.6A30.7 30.7 0 0 1 769 510c1.3-3 1.3-3 4-5 8.9-2.7 18.3-2.4 27.5-2.4Z"/><path fill="#FDFDFD" d="M639 230c19.4-.6 37.7.5 53.4 13.3 14.3 13.7 20.7 34.2 21 53.6.1 24.4-5.6 46.7-22.4 65.1a43.2 43.2 0 0 1-30.8 12.3c-20.4-1.8-36.6-20.7-49.2-35.3l-7-9c1.4-3 3-5.4 5-8l-3.2 1.5-4.1 2-2.1 1c-6.8 3-12.7 5.3-20 2.6a27.2 27.2 0 0 1-14.1-17A23.9 23.9 0 0 1 568 294c5.4-5.2 9.2-5.3 16.5-5.2 4.8.3 9 1.5 13.5 3.2l1.2-1.7c5.4-7 11.6-13 18.1-19A60.5 60.5 0 0 0 639 230Z"/><path fill="#1B1A1A" d="M1092 793c13.4 1.5 27.2 13.4 37 22l1.7 1.5c6.9 6.1 6.9 6.1 9.3 9.5 0 10.2-12.8 22.2-19 30l-2.3 3c-6 7.3-12.5 14-19.2 20.8l-2.6 2.6a225.3 225.3 0 0 1-22.6 19.6 356.6 356.6 0 0 1-40 28.4l-1.8 1.2-4.5 2.4-2-1a15724.1 15724.1 0 0 1 43.2-92.3c2.2-4.5 4.2-9 6.2-13.6 3.7-8.2 7.6-16.3 11.7-24.3l4.9-9.8Z"/><path fill="#FDFDFD" d="m621 1011 4 4-7 8-1.5 1.8c-15 16.3-40.4 25.3-62 26.3-20.6.8-39.2-2.2-57.5-12.1 0-4.5.7-5.2 3.7-8.3l1.7-1.6 1.7-1.7a634.5 634.5 0 0 1 9-9c34.6-34.7 68.5-35.7 107.9-7.4Z"/><path fill="#F9F9F9" d="M867 1145v2c.5 7.8 2 15 4 22.4a133 133 0 0 1 2 8.6c-15 2.7-29.8 4.9-45 6l-3.4.3-11.4.8-3.5.2a1012.9 1012.9 0 0 1-69.9 2c-30 0-59.9-1.3-89.8-3.3l-1-2 2.2-.3c13.8-2 27.4-3.8 40.8-7.7v-2l2.6-.2a1375.8 1375.8 0 0 0 68.7-7.2 413.8 413.8 0 0 0 38.3-6 3532 3532 0 0 0 18.7-3.4c8.3-1.5 16.5-3.2 24.7-5.3l3.2-.7 13.4-3.4c3.4-.8 3.4-.8 5.4-.8Z"/><path fill="#FCFBFB" d="M603 338c3.2 3.2 6.3 6.4 9.3 9.8A98.5 98.5 0 0 0 655 378a4316.9 4316.9 0 0 1 1.7 17c.8 8 1.5 16 1.3 24-21.7.6-43.3-1.3-65-3 0-4.4.1-8.6.9-13l.5-3.1.6-3.3.6-3.4 1.4-8.2h-2l-2.8.1-2.7.1c-2.5-.2-2.5-.2-5.5-2.2-1-3.6-1.4-7.3-2-11h21l-2-7c-.9-9 .6-18 2-27Z"/><path fill="#FCFCFC" d="M397 1116c2.2 7.2 2.4 14 2.4 21.4v3.8c-.2 11.6-1.9 22-6.4 32.8-24 0-55.5-9.1-73.7-25.5-1.3-1.5-1.3-1.5-1.3-3.5l1.8-.5a369 369 0 0 0 73.4-27.6c1.8-.9 1.8-.9 3.8-.9Z"/><path fill="#FDFDFD" d="M920.1 1137.6c10.7 4.3 21.8 7.3 32.9 10.4-5 10.4-18.7 15-28.9 18.6-13.9 4.8-31.3 10.4-46.1 10.4a93.4 93.4 0 0 1-6-33l1.6-.5a914.7 914.7 0 0 0 18.3-6.3l2.8-1c9.3-3 16.4-2.3 25.4 1.4Z"/><path fill="#020202" d="M886.4 798.7A30.1 30.1 0 0 1 900 815c1 8-.2 14.4-5 21a42.3 42.3 0 0 1-9.8 7.1c-5.6 2.2-13.1 2-18.7 0A29.5 29.5 0 0 1 853 827c-.8-7.3-1.2-14.2 3.4-20.3 8-8.7 18.4-13.5 30-8Z"/><path fill="#F9F9F9" d="M903 603c5.8 4.8 11.1 10 16.4 15.3l2.5 2.4 2.4 2.4 2.2 2.1c1.5 1.8 1.5 1.8 1.5 3.8h2a53 53 0 0 1 3.9 4.6l2.4 3 1.3 1.7a543 543 0 0 0 4.3 5.3C960 665.8 960 665.8 960 669h-36l-4-13.4c-3.3-11.4-7-22.7-11-34-2.2-6.2-4.2-12.3-6-18.6Z"/><path fill="#F3F3F3" d="M313 913c6.4.8 12.3 3 18.2 5.5l2.7 1 8.6 3.4a11992.4 11992.4 0 0 0 125.4 48.8c20 7.6 40 15.4 60.1 23.3v5c-4.4.2-7.5-.3-11.5-2l-3.2-1.3-3.2-1.3-3.4-1.4-6.7-2.8c-9-3.7-18.1-7.3-27.3-10.7-9.8-3.6-19.5-7.4-29.3-11.2l-9.9-3.8a4349 4349 0 0 1-36.7-14.3 6405.2 6405.2 0 0 0-73-28l-2.2-.8-6-2c-2.6-1.4-2.6-1.4-3.6-4V914l1-1Z"/><path fill="#282425" d="M400 1109c4 9.4 4.4 18.5 4.4 28.6v3.7c-.2 11-1.4 21.2-5.5 31.5l-.9 2.1-2 5.1a139 139 0 0 1-25.7-3.7l-3.4-.8c-20.3-5-42.9-11-55.9-28.7-1-1.8-1-1.8-1-4.8l3.5-.9a445.6 445.6 0 0 0 39.8-12.4c14.6-5 28.2-11.4 42-18.4 2.7-1.3 2.7-1.3 4.7-1.3Zm-9.3 9a323 323 0 0 1-32.8 14.4l-3.3 1.2c-10 3.7-20.2 6.8-30.4 9.7l-3.6 1-2.6.7c4 9.3 15 13.5 23.9 17.2a222 222 0 0 0 36.3 10.3c5 1.1 9.6 1.7 14.8 1.5l2.4-7.6.7-2.2.7-2.1.6-2c2-7.2 1.8-14.5 1.8-22v-3.7c0-6.5-.2-12.2-2.2-18.4-2.6 0-4 .9-6.3 2Z"/><path fill="#2B2828" d="M929.2 1134.7c10.5 3.6 21 6.7 31.8 9.3-1.1 7.4-5.5 12.2-11.4 16.6-18.5 12-51.7 24.9-73.6 22.4l-2-3c-2.6-.7-2.6-.7-5-1l4-1-.8-2.3a80.7 80.7 0 0 1-5.2-30.7l5-1 .2 1.7c1.7 13.4 1.7 13.4 5.2 26.5.6 1.8.6 1.8.6 4.8 40-6.8 40-6.8 74-27l1-2-1.8-.3c-6.6-1.3-13-3-19.5-5l-3-1c-7.6-2.3-15.2-4.9-22.7-7.7 8-5.3 14.8-2.3 23.2.7Z"/><path fill="#0F0F0F" d="M552 491c3.9.6 7.6 1.4 11.4 2.3 14.8 3.6 29.4 6.2 44.6 7.7l2.6.3a183.8 183.8 0 0 0 22.3.8 3961.9 3961.9 0 0 0 31.1-.1c.6 1.9.6 1.9 1 4-5.4 5.4-16.3 3.2-23.5 3.3h-2.4c-66.8-.1-66.8-.1-88.1-14.3l1-4Z"/><path fill="#F9F9F9" d="M585 350c5 3.4 8.5 7.5 11 13v4c-12.5.8-12.5.8-16.2-1-1.5-1.4-1.5-1.4-3.8-4a21 21 0 0 0-7.8-1.1h-2.7c-2.7 0-2.7 0-6 .9-5 .3-9-1.7-13.5-3.8 2.4-6.2 9.1-8.6 14.9-11.4A31.7 31.7 0 0 1 585 350Z"/><path fill="#F1F1F1" d="M783 972c-1.4 2.7-2.7 2.8-5.5 3.9l-3 1.2-3.5 1.3-7.6 3-2.1.7c-11 4.3-21.9 8.8-32.8 13.3l-3.2 1.3a18319.8 18319.8 0 0 0-24.3 10c-1 .5-2 1-3.2 1.4l-2.5 1.1c-2.6.9-4.6 1-7.3.8.2-2.3.2-2.3 1-5 2.1-1.4 2.1-1.4 4.9-2.5a380415306.4 380415306.4 0 0 0 17.2-7l3-1.3a7379.6 7379.6 0 0 1 40.6-16.6l2.8-1.1 5-2.1c6.9-2.9 13-3.3 20.5-2.4Z"/><path fill="#F5F5F5" d="M712 336c8.6-.7 14.7.2 22 5 2 2 2 2 2 5a35 35 0 0 1-19.4 2.7c-4.3.4-6.2 1.7-9.6 4.3a86 86 0 0 1-4 2 126 126 0 0 1 6.6-14.3l2.4-4.7Z"/><path fill="#0B0B0B" d="M586 298c4.7 2.5 9 5.9 11 11-.3 2.3-.3 2.3-1 4a72 72 0 0 1-15-4l1-4-10 1-1-5c4.9-2.4 9.5-4.3 15-3Z"/><path fill="#F4EDEA" d="m538 360 18 6v2l-6 5-1 2c-6.4-.3-10.3-2.7-15-7l-1-2 5-6Z"/><path fill="#F8F8F8" d="M798 490c5 1.8 9 3.5 12 8l-31 1c3.6-9 10-10.4 19-9Z"/><path fill="#F4EDEA" d="M744 349c1.8 2.4 3 4 3.1 7-1.8 3.3-4.8 4.6-8.1 6-3.1.7-3.1.7-6 0-2-2.1-3.5-4.5-5-7 1.5-3 3.8-3.4 6.9-4.7l3.2-1.4c2.9-.9 2.9-.9 5.9.1Z"/><path fill="#E7E7E7" d="M716 279c4.5 4.1 6.7 7 7.3 13.1.2 11.2.2 11.2-4.3 15.9h-1a454639225.3 454639225.3 0 0 0-.4-10l-.2-2.8c-.2-5.5-.6-10.8-1.4-16.2Z"/><path fill="#ECE6E3" d="m701.1 359.9 2.9.1-3 9h-11c7.7-9 7.7-9 11.1-9.1Z"/><path fill="#ABABAB" d="M660 1181v3h-10l-1-2c7.6-1 7.6-1 11-1Z"/></svg>