<?xml version="1.0" encoding="UTF-8"?>
<svg version="1.1" xmlns="http://www.w3.org/2000/svg" width="250" height="250">
<path d="M0 0 C4.37886742 -0.04802792 8.75766526 -0.07634536 13.13671875 -0.1015625 C14.35645386 -0.11517822 15.57618896 -0.12879395 16.83288574 -0.14282227 C49.36670032 -0.2826139 80.41664715 8.93811347 109 24 C109.226875 23.484375 109.45375 22.96875 109.6875 22.4375 C110.120625 21.633125 110.55375 20.82875 111 20 C111.53625 18.80375 112.0725 17.6075 112.625 16.375 C114.67165203 13.53458939 115.71551241 13.05019354 119.2199707 12.43188477 C123.27239584 12.30972575 127.26464474 12.38938711 131.3125 12.5625 C132.73494981 12.59763621 134.15748253 12.62957124 135.58007812 12.65820312 C139.05511532 12.73510449 142.52703174 12.85575531 146 13 C146.11701596 35.20143077 146.2050775 57.40281038 146.25906086 79.60448742 C146.28479714 89.91408307 146.31985987 100.22348665 146.37719727 110.53295898 C146.42717267 119.52303445 146.45932424 128.51297075 146.47044247 137.50318128 C146.47693736 142.25956639 146.49210594 147.0155535 146.52865028 151.77181053 C146.56283363 156.25753777 146.57300835 160.74270674 146.56553841 165.22855186 C146.56690305 166.8663182 146.57670175 168.50410509 146.59602737 170.14175797 C146.7848479 186.98225582 141.81170647 199.60851211 130.4375 212.125 C114.86710482 227.00270836 93.60313646 230.43814849 72.9375 230.375 C72.20733673 230.3737915 71.47717346 230.37258301 70.72488403 230.37133789 C49.06758987 230.27406172 27.88289518 226.02521503 12 210 C5.12712536 201.8219976 -0.65852785 193.75413576 -0.48101807 182.78686523 C-0.48443577 182.00007133 -0.48785347 181.21327744 -0.49137473 180.4026413 C-0.49792085 177.78757845 -0.47603277 175.17356072 -0.45410156 172.55859375 C-0.45297237 170.67566451 -0.45360834 168.79273351 -0.45587158 166.9098053 C-0.45701686 161.81317878 -0.43353751 156.71693062 -0.40557575 151.62039185 C-0.3805312 146.2886142 -0.37821769 140.95682739 -0.37347412 135.625 C-0.36105334 125.5351739 -0.32824379 115.44552165 -0.28807616 105.35577202 C-0.24333059 93.86610777 -0.22136439 82.37643512 -0.20129442 70.8867054 C-0.15951044 47.25770731 -0.08917575 23.62886341 0 0 Z M26 27 C26 61.65 26 96.3 26 132 C28.70829309 129.29170691 30.87950332 126.98596754 33.109375 123.97265625 C33.69066162 123.19156494 34.27194824 122.41047363 34.87084961 121.60571289 C35.80102905 120.34682251 35.80102905 120.34682251 36.75 119.0625 C38.09955026 117.24947117 39.44983423 115.4369883 40.80078125 113.625 C41.49510254 112.69300781 42.18942383 111.76101562 42.90478516 110.80078125 C46.22157495 106.36705804 49.57764995 101.96363444 52.9375 97.5625 C53.59967529 96.69447754 54.26185059 95.82645508 54.9440918 94.93212891 C57.63519133 91.40545616 60.32789327 87.88000828 63.02050781 84.35449219 C72.74568845 71.61812838 82.40680542 58.83611144 92 46 C75.32512606 32.95299743 46.81263876 27 26 27 Z " fill="#292929" transform="translate(52,10)"/>
</svg>
