<?xml version="1.0" encoding="UTF-8"?>
<svg version="1.1" xmlns="http://www.w3.org/2000/svg" width="280" height="80">
<path d="M0 0 C5.42978295 3.17398586 10.4331995 8.58777794 12.6875 14.5 C13.4205206 21.42107821 13.76805613 28.60852359 10.109375 34.74609375 C7.37414454 38.12004561 4.10695985 40.84410885 0.6875 43.5 C-0.3025 43.005 -0.3025 43.005 -1.3125 42.5 C-0.3534375 41.2315625 -0.3534375 41.2315625 0.625 39.9375 C2.88867494 36.49348026 3.61425042 33.67522583 3.6875 29.5 C2.09678657 24.28599485 0.19892037 21.54825701 -4.3125 18.5 C-4.18875 19.86125 -4.18875 19.86125 -4.0625 21.25 C-4.3125 24.5 -4.3125 24.5 -5.9375 26.9375 C-8.3125 28.5 -8.3125 28.5 -11.4609375 28.09765625 C-12.87246094 27.80181641 -12.87246094 27.80181641 -14.3125 27.5 C-14.33231934 28.2206665 -14.35213867 28.94133301 -14.37255859 29.68383789 C-14.4683366 32.97706672 -14.57780117 36.26970668 -14.6875 39.5625 C-14.7184375 40.69623047 -14.749375 41.82996094 -14.78125 42.99804688 C-15.10134281 52.14736635 -15.53588712 58.72338712 -22.3125 65.5 C-26.55082081 68.20531115 -29.36456045 68.62387053 -34.3125 68.5 C-34.38891436 61.54409873 -34.4412523 54.58830677 -34.47729492 47.63208008 C-34.49232941 45.26843216 -34.51276242 42.90481189 -34.53881836 40.54125977 C-34.57543645 37.13290559 -34.59228031 33.72492208 -34.60546875 30.31640625 C-34.62095261 29.26916885 -34.63643646 28.22193146 -34.65238953 27.14295959 C-34.65421387 19.08887988 -33.70609065 10.99785849 -27.9375 4.8515625 C-19.98905725 -1.7594019 -9.74032004 -4.20133727 0 0 Z " fill="#000000" transform="translate(50.3125,6.5)"/>
<path d="M0 0 C16.77777778 0 16.77777778 0 21.8125 4.6875 C23.55588571 8.08251427 23.54357078 11.30518783 23 15 C21.32514788 18.85215988 19.85712965 20.45714814 16 22 C13.640625 22.1953125 13.640625 22.1953125 11.25 22.125 C10.45078125 22.10695313 9.6515625 22.08890625 8.828125 22.0703125 C8.22484375 22.04710938 7.6215625 22.02390625 7 22 C7 24.64 7 27.28 7 30 C4.69 30 2.38 30 0 30 C0 20.1 0 10.2 0 0 Z M7 7 C7 9.97 7 12.94 7 16 C10.465 15.505 10.465 15.505 14 15 C15.19838209 12.67145537 15.19838209 12.67145537 16 10 C15.34 9.01 14.68 8.02 14 7 C10.41642759 6.74984127 10.41642759 6.74984127 7 7 Z " fill="#000000" transform="translate(107,24)"/>
<path d="M0 0 C3.8026029 2.0050088 5.61790841 3.42686262 8 7 C8.66624845 11.07463524 8.94496094 15.24356703 6.94921875 18.953125 C4.56033593 21.85642801 2.6147126 23.82284628 -1.171875 24.23828125 C-6.97794679 24.40542574 -10.48854613 24.06030848 -15 20 C-17.59076756 16.58489731 -17.35933413 13.16827596 -17 9 C-15.74244162 5.55826126 -14.62080644 3.54777039 -11.875 1.125 C-7.83414282 -0.45620498 -4.28200709 -0.69356453 0 0 Z M-9 8 C-10.21912811 11.22198143 -10.16362415 12.59093963 -8.875 15.8125 C-7.19053064 18.21885946 -7.19053064 18.21885946 -4.5 18.5625 C-1.91929845 18.18893507 -1.91929845 18.18893507 -0.125 16.375 C1.38776998 13.18137449 0.94757993 11.35297515 0 8 C-0.66 7.34 -1.32 6.68 -2 6 C-6.04622502 5.63019987 -6.04622502 5.63019987 -9 8 Z " fill="#000000" transform="translate(209,31)"/>
<path d="M0 0 C2.125 1.6875 2.125 1.6875 4.125 4.6875 C4.38260279 7.38202521 4.21400053 9.97298375 4.125 12.6875 C-0.825 12.6875 -5.775 12.6875 -10.875 12.6875 C-9.885 14.1725 -9.885 14.1725 -8.875 15.6875 C-6.33292029 16.02093551 -6.33292029 16.02093551 -3.875 15.6875 C-3.545 15.3575 -3.215 15.0275 -2.875 14.6875 C-0.54202567 14.64657063 1.79205225 14.64508277 4.125 14.6875 C3.2592843 17.35679007 2.40308762 19.36491836 0.5625 21.5 C-3.20414481 23.33503209 -6.76472074 23.23064405 -10.875 22.6875 C-14.76620413 21.03166845 -16.30955857 19.55304177 -17.875 15.6875 C-18.44921743 11.10121794 -18.4105239 6.97275735 -16.625 2.6875 C-12.19679341 -2.37330753 -5.93825856 -2.71094412 0 0 Z M-8.875 4.6875 C-9.535 6.0075 -10.195 7.3275 -10.875 8.6875 C-8.235 8.6875 -5.595 8.6875 -2.875 8.6875 C-3.535 7.3675 -4.195 6.0475 -4.875 4.6875 C-6.195 4.6875 -7.515 4.6875 -8.875 4.6875 Z " fill="#000000" transform="translate(148.875,32.3125)"/>
<path d="M0 0 C4.4798206 0.03850849 7.51029334 0.71519556 11.3125 3.25 C12.4607685 5.546537 12.42811175 6.83313167 12.41015625 9.3828125 C12.40693359 10.18847656 12.40371094 10.99414062 12.40039062 11.82421875 C12.39201172 12.66597656 12.38363281 13.50773437 12.375 14.375 C12.37048828 15.22449219 12.36597656 16.07398438 12.36132812 16.94921875 C12.34952874 19.04950909 12.33159306 21.1497633 12.3125 23.25 C11.19875 23.229375 10.085 23.20875 8.9375 23.1875 C5.48034079 22.98619282 5.48034079 22.98619282 3.3125 24.25 C-0.19110855 24.50952656 -2.8516151 24.59292714 -6.125 23.25 C-8.24717362 20.53361777 -8.18910625 18.49778231 -8.015625 15.12109375 C-7.6875 13.25 -7.6875 13.25 -6.375 11.3125 C-2.56337123 8.91258559 0.94129956 9.16752452 5.3125 9.25 C5.3125 8.59 5.3125 7.93 5.3125 7.25 C1.6825 7.25 -1.9475 7.25 -5.6875 7.25 C-5.73004356 5.25045254 -5.72830783 3.24958364 -5.6875 1.25 C-4.05737162 -0.38012838 -2.24312555 0.04023544 0 0 Z M-0.6875 14.25 C-0.6875 15.57 -0.6875 16.89 -0.6875 18.25 C2.36163228 19.26111093 2.36163228 19.26111093 5.3125 18.25 C5.3125 16.93 5.3125 15.61 5.3125 14.25 C3.3325 14.25 1.3525 14.25 -0.6875 14.25 Z " fill="#000000" transform="translate(251.6875,30.75)"/>
<path d="M0 0 C3.0625 1.75 3.0625 1.75 5 4 C5 5.32 5 6.64 5 8 C0.53160785 8.21278058 -2.82262526 7.59138085 -7 6 C-6.67 6.66 -6.34 7.32 -6 8 C-4.00569446 8.490403 -2.01088829 8.97903704 -0.01171875 9.44921875 C2.63189156 10.17300332 4.20317584 10.90370515 6 13 C6.76970098 16.93402724 6.31879355 18.51118322 4.125 21.875 C-0.18215215 24.80386346 -3.92196501 24.78441191 -9 24 C-11.23046875 23.16796875 -11.23046875 23.16796875 -13 22 C-14.25 18.875 -14.25 18.875 -15 16 C-10.41284748 15.82011167 -7.17508359 16.09139036 -3 18 C-2.34 18 -1.68 18 -1 18 C-1.82359908 15.77386246 -1.82359908 15.77386246 -4.21484375 15.21875 C-5.11332031 14.9815625 -6.01179687 14.744375 -6.9375 14.5 C-11.78277886 13.21722114 -11.78277886 13.21722114 -14 11 C-14.4375 7.625 -14.4375 7.625 -14 4 C-10.26500169 -0.69886884 -5.61008028 -1.01448106 0 0 Z " fill="#000000" transform="translate(185,31)"/>
<path d="M0 0 C4.5011177 0.37509314 5.77522644 0.94108996 8.75 4.3125 C9.36662149 7.58210708 9.22150704 10.75026112 9.0625 14.0625 C9.03994141 14.95066406 9.01738281 15.83882812 8.99414062 16.75390625 C8.93532552 18.94182812 8.85321268 21.12629671 8.75 23.3125 C6.44 23.3125 4.13 23.3125 1.75 23.3125 C1.42 18.3625 1.09 13.4125 0.75 8.3125 C-0.9 7.9825 -2.55 7.6525 -4.25 7.3125 C-4.58 12.5925 -4.91 17.8725 -5.25 23.3125 C-7.56 23.3125 -9.87 23.3125 -12.25 23.3125 C-12.25 16.0525 -12.25 8.7925 -12.25 1.3125 C-9.58333333 1.3125 -6.91666667 1.3125 -4.25 1.3125 C-3.25 0.3125 -3.25 0.3125 0 0 Z " fill="#000000" transform="translate(232.25,30.6875)"/>
<path d="M0 0 C3.3 0 6.6 0 10 0 C10 9.9 10 19.8 10 30 C7.36 30 4.72 30 2 30 C2 22.08 2 14.16 2 6 C1.34 6 0.68 6 0 6 C0 4.02 0 2.04 0 0 Z " fill="#000000" transform="translate(266,24)"/>
<path d="M0 0 C0 2.31 0 4.62 0 7 C-1.98 7.33 -3.96 7.66 -6 8 C-6.33 12.95 -6.66 17.9 -7 23 C-9.31 23 -11.62 23 -14 23 C-14 15.74 -14 8.48 -14 1 C-11 1 -8 1 -5 1 C-3 0 -3 0 0 0 Z " fill="#000000" transform="translate(170,31)"/>
</svg>
