<?xml version="1.0" encoding="UTF-8"?>
<svg version="1.1" xmlns="http://www.w3.org/2000/svg" width="1059" height="1144">
<path d="M0 0 C0.72054307 -0.00189924 1.44108613 -0.00379848 2.18346384 -0.00575527 C4.6274505 -0.0109533 7.07138033 -0.00895743 9.51537108 -0.00706255 C11.28100488 -0.00931694 13.04663817 -0.01200776 14.8122707 -0.01509839 C19.70533745 -0.02236544 24.59838891 -0.02332765 29.49146033 -0.02332116 C34.79919329 -0.02438693 40.10691935 -0.03117291 45.41464853 -0.03722787 C55.96034559 -0.04832455 66.50603931 -0.05395732 77.05174118 -0.05793675 C89.67558171 -0.06293765 102.29941574 -0.07366381 114.92325244 -0.08441848 C145.43896153 -0.11007259 175.95467272 -0.12510814 206.47038946 -0.13792895 C216.57378876 -0.14217735 226.67718788 -0.14674494 236.78058696 -0.15151227 C289.68566715 -0.1764181 342.59074787 -0.19848511 395.49583265 -0.21070265 C399.36951033 -0.21160003 403.24318801 -0.21251473 407.11686568 -0.21343038 C408.26950603 -0.2137028 408.26950603 -0.2137028 409.44543204 -0.21398072 C417.23088191 -0.21582343 425.01633177 -0.21768929 432.80178163 -0.21957881 C434.36280624 -0.21995686 435.92383084 -0.22033316 437.48485545 -0.2207077 C487.62989674 -0.23274032 537.77490334 -0.2624329 587.91992828 -0.30412281 C623.94430226 -0.33406404 659.96866912 -0.36169658 695.99305511 -0.37140048 C696.73359099 -0.37160103 697.47412687 -0.37180159 698.23710323 -0.37200822 C714.49212611 -0.37635839 730.74714895 -0.3793044 747.00217233 -0.38093473 C753.54221265 -0.38161111 760.08225294 -0.38246663 766.62229323 -0.3833729 C767.33807544 -0.383467 768.05385764 -0.38356109 768.79133021 -0.38365804 C791.86702541 -0.38677271 814.94267654 -0.40529619 838.01835585 -0.43172287 C861.90085791 -0.45898347 885.78329045 -0.46840381 909.66580877 -0.45706825 C923.44413364 -0.45107312 937.22228674 -0.45909903 951.00058575 -0.48689909 C960.19241195 -0.5040789 969.38412029 -0.50326345 978.57594885 -0.4875314 C983.82104264 -0.47907471 989.06580736 -0.47869477 994.31087139 -0.50014286 C999.07725832 -0.51947796 1003.84305075 -0.51603519 1008.60942095 -0.49398937 C1010.32803422 -0.49010748 1012.04669158 -0.49470829 1013.76525328 -0.50857639 C1016.09180528 -0.52614267 1018.41623835 -0.51306327 1020.74271679 -0.49219131 C1022.6779211 -0.49302556 1022.6779211 -0.49302556 1024.65222044 -0.49387666 C1029.88314613 0.44657131 1032.70880184 3.10909805 1035.76658797 7.48151433 C1036.15201766 8.23174871 1036.53744735 8.98198308 1036.93455672 9.75495183 C1037.33287704 10.51034246 1037.73119735 11.26573308 1038.14158797 12.04401433 C1040.09502482 16.19993177 1040.24888679 19.45124844 1040.25315922 24.00977308 C1040.25619443 25.07263719 1040.25619443 25.07263719 1040.25929096 26.1569733 C1040.26489857 28.55414653 1040.26333862 30.95126288 1040.26186442 33.34844148 C1040.26442256 35.08272742 1040.26741618 36.81701277 1040.27080813 38.55129728 C1040.27890326 43.3527036 1040.28070701 48.1540954 1040.28153108 52.95550774 C1040.28349515 58.1657078 1040.2911685 63.37589989 1040.29810363 68.58609527 C1040.31094377 78.93602019 1040.31830923 89.2859426 1040.32400242 99.63587363 C1040.33105031 112.02649399 1040.34380868 124.41710684 1040.35655161 136.80772241 C1040.38915671 168.895839 1040.4090573 200.98395981 1040.42703338 233.07208719 C1040.43100965 240.14973181 1040.43519555 247.2273763 1040.43938879 254.30502079 C1040.47054717 306.96207552 1040.49763119 359.61913186 1040.51433556 412.27619329 C1040.51822236 424.48662033 1040.52224246 436.69704733 1040.52631981 448.90747432 C1040.52683068 450.44024638 1040.52733941 451.97301844 1040.52784601 453.50579051 C1040.54411529 502.72955861 1040.58110658 551.95327759 1040.63199981 601.17702142 C1040.66855282 636.54067805 1040.70225834 671.90432439 1040.71454883 707.26799905 C1040.71480292 707.9952598 1040.71505701 708.72252054 1040.7153188 709.47181949 C1040.72083517 725.43707869 1040.72467576 741.40233786 1040.72694427 757.36759783 C1040.72788225 763.79144509 1040.72903839 770.21529232 1040.7302587 776.63913953 C1040.73044999 777.69372081 1040.73044999 777.69372081 1040.73064514 778.76960676 C1040.73485374 801.41807949 1040.75763388 824.06648648 1040.79001364 846.71493503 C1040.8234324 870.163698 1040.83541532 893.61235992 1040.82257818 917.06115257 C1040.81582998 930.58274726 1040.82584111 944.10408898 1040.85970519 957.62564424 C1040.88066947 966.65396024 1040.87990539 975.68210443 1040.86137177 984.71042534 C1040.85142811 989.85723734 1040.85101167 995.0035665 1040.8770346 1000.15033304 C1040.9005308 1004.83459384 1040.89629463 1009.5179875 1040.8701379 1014.20222672 C1040.86556752 1015.88434778 1040.87100907 1017.56653429 1040.88782019 1019.24857755 C1040.98171758 1029.29364441 1040.13304844 1037.62985698 1034.12205672 1046.12995183 C1027.62590272 1052.53207871 1020.58084909 1055.46798987 1011.53851485 1055.47780645 C1010.57415008 1055.463803 1009.6097853 1055.44979955 1008.61619735 1055.43537176 C1007.58278716 1055.43271307 1006.54937697 1055.43005437 1005.48465133 1055.42731512 C1003.24971933 1055.42038055 1001.01479995 1055.4069861 998.77993941 1055.38781583 C995.240351 1055.36012364 991.70141869 1055.35528366 988.16172957 1055.35732305 C978.10123447 1055.36085089 968.04118436 1055.33770294 957.98094344 1055.26398504 C951.81937171 1055.220456 945.65878127 1055.21572586 939.4971025 1055.23556745 C937.15274512 1055.23546995 934.80833949 1055.22060882 932.46417403 1055.19061124 C929.18430082 1055.14974455 925.9079092 1055.15818894 922.6279161 1055.17755926 C921.18136893 1055.14137235 921.18136893 1055.14137235 919.70559859 1055.1044544 C915.74177703 1055.17086597 913.15736354 1055.27596619 910.0321672 1057.85382307 C908.25806614 1059.87277943 906.69259559 1061.95114637 905.12205672 1064.12995183 C879.89526366 1091.80163637 836.81792514 1117.44093997 798.84471297 1120.04010808 C708.24256642 1123.02984893 614.09211354 1094.06482026 523.07102561 1070.71511209 C521.09415448 1070.20683672 519.11706936 1069.69940134 517.13994002 1069.1921314 C514.72628273 1068.57220522 512.31319857 1067.95004154 509.90080428 1067.32521856 C508.82808272 1067.04961599 507.75536117 1066.77401342 506.65013289 1066.49005926 C505.72222442 1066.25026845 504.79431594 1066.01047765 503.83828902 1065.76342046 C497.25077755 1064.13678134 497.25077755 1064.13678134 490.7397325 1065.36725652 C489.91763289 1065.66713476 489.09553329 1065.96701299 488.24852157 1066.27597845 C487.36374129 1066.61450841 486.47896102 1066.95303838 485.56736922 1067.30182683 C484.14521102 1067.82545309 484.14521102 1067.82545309 482.69432235 1068.35965765 C480.62971901 1069.12071593 478.56731583 1069.88776321 476.50688338 1070.66004217 C470.87007203 1072.76947969 465.21387942 1074.8258292 459.55955672 1076.88776433 C458.37636855 1077.3203153 457.19318038 1077.75286626 455.97413802 1078.19852483 C306.56172244 1132.67869408 306.56172244 1132.67869408 237.96580672 1140.63385808 C234.37695804 1141.09705299 231.0133879 1141.85580752 227.49705672 1142.69245183 C209.99726648 1146.30785989 189.33057887 1145.99363339 172.12205672 1141.12995183 C171.44417098 1140.94722723 170.76628524 1140.76450262 170.0678575 1140.5762409 C136.88090517 1131.44139164 107.35653859 1108.98166465 90.12205672 1079.12995183 C86.17484906 1071.68692431 82.76453393 1064.12772442 80.12205672 1056.12995183 C79.17151412 1056.13074743 78.22097152 1056.13154302 77.24162459 1056.13236272 C68.2388303 1056.13598104 59.23660384 1056.10792839 50.23399138 1056.04967344 C45.60670062 1056.02072678 40.97991229 1056.00254629 36.35252547 1056.00983465 C31.87821248 1056.01647137 27.40488853 1055.99369877 22.93078017 1055.9513973 C21.23258911 1055.94034276 19.5342968 1055.93949606 17.83609939 1055.9495281 C7.44615551 1056.00298792 -1.10478041 1055.46567632 -9.87794328 1049.12995183 C-16.4547721 1042.45831475 -19.12659638 1036.31359672 -19.13094294 1026.8740831 C-19.13399604 1026.16130008 -19.13704913 1025.44851705 -19.14019475 1024.71413454 C-19.14800144 1022.32065235 -19.14156004 1019.92742222 -19.13521218 1017.53393877 C-19.13790502 1015.79524761 -19.14147253 1014.05655763 -19.14583665 1012.31786987 C-19.15531927 1007.51822038 -19.15228605 1002.71864654 -19.14728111 997.91899327 C-19.14402227 992.70554688 -19.15229051 987.49211693 -19.15909946 982.27867573 C-19.16942206 973.13412827 -19.17223934 963.98960198 -19.17018723 954.84504926 C-19.16714312 941.24687853 -19.1754481 927.64873132 -19.18593649 914.05056516 C-19.2053021 888.35398529 -19.21090689 862.65741752 -19.2120506 836.96083208 C-19.2121801 834.1259165 -19.21231597 831.29100091 -19.21245742 828.45608532 C-19.21249143 827.75260854 -19.21252544 827.04913176 -19.21256048 826.3243375 C-19.21337715 810.74015121 -19.2177562 795.15596655 -19.22276911 779.57178112 C-19.2248258 773.15616692 -19.22680585 766.74055269 -19.22880161 760.32493848 C-19.22902279 759.61608368 -19.22924397 758.90722888 -19.22947185 758.17689363 C-19.24212129 717.55208628 -19.25036994 676.92727999 -19.24945474 636.30247056 C-19.24942318 634.78191923 -19.24939171 633.26136789 -19.24936032 631.74081656 C-19.24921355 624.87553723 -19.24903721 618.01025791 -19.24885255 611.14497859 C-19.2487703 608.08352796 -19.24869001 605.02207733 -19.24860992 601.96062671 C-19.24856913 600.42831502 -19.24852709 598.89600333 -19.24848381 597.36369164 C-19.24712317 548.90531342 -19.26175987 500.44696444 -19.28956437 451.98859441 C-19.29656629 439.77881762 -19.30350515 427.5690408 -19.31009316 415.35926378 C-19.31049891 414.60748145 -19.31090466 413.85569912 -19.3113227 413.08113551 C-19.32375052 389.91459901 -19.3312834 366.74806491 -19.33380914 343.58152521 C-19.33388904 342.85430521 -19.33396894 342.12708522 -19.33405126 341.37782826 C-19.33575773 325.41443813 -19.33628023 309.45104815 -19.33571051 293.48765794 C-19.33551754 287.77582549 -19.33541345 282.06399304 -19.33535305 276.35216059 C-19.33533722 274.93117697 -19.33531681 273.51019335 -19.33529181 272.08920973 C-19.33493902 249.43790611 -19.34634093 226.78662749 -19.36359944 204.13533103 C-19.38137206 180.69010938 -19.3845523 157.24493602 -19.37097518 133.79970738 C-19.36356729 120.27752362 -19.36729877 106.75544941 -19.38685986 93.23327718 C-19.39881509 84.20849375 -19.39631866 75.18379009 -19.38191886 66.15901039 C-19.3741181 61.01189272 -19.37271216 55.86498782 -19.38883357 50.71788474 C-19.40336693 46.03696487 -19.39954766 41.35643539 -19.38098583 36.67553304 C-19.37753826 34.99120998 -19.38081617 33.30685654 -19.39158825 31.6225644 C-19.45327735 21.28614563 -19.12204493 12.15494211 -11.75294328 4.12995183 C-11.00657609 3.29463933 -11.00657609 3.29463933 -10.24513078 2.44245183 C-7.14525387 -0.53343 -4.13959968 0.00308968 0 0 Z M-6.87794328 12.12995183 C-10.47725396 18.08743158 -11.00276761 23.32114954 -11.00559378 30.18467772 C-11.00724456 30.88784953 -11.00889533 31.59102135 -11.01059614 32.31550139 C-11.01492522 34.68219064 -11.01211852 37.04881778 -11.00937104 39.41550863 C-11.01102048 41.13256808 -11.01310666 42.84962717 -11.01559114 44.56668562 C-11.02117012 49.31092024 -11.02048313 54.05513686 -11.01881355 58.79937372 C-11.018084 63.9510266 -11.02310175 69.10267433 -11.02738857 74.25432503 C-11.03497881 84.48351837 -11.03716215 94.71270649 -11.03771763 104.94190234 C-11.03863025 117.18948418 -11.04529472 129.43706117 -11.05206445 141.68464093 C-11.06775504 170.58520224 -11.07381395 199.48576202 -11.07847148 228.38632658 C-11.08085407 243.08738576 -11.0845574 257.78844449 -11.08850858 272.48950333 C-11.10117306 319.63608536 -11.11195728 366.78266736 -11.11534904 413.92925107 C-11.11551128 416.18284155 -11.11567684 418.43643203 -11.11584342 420.6900225 C-11.11617722 425.20969445 -11.1165077 429.72936639 -11.11683798 434.24903834 C-11.11722488 439.54056702 -11.11761449 444.8320957 -11.11800904 450.12362437 C-11.11812146 451.63810728 -11.11823288 453.15259019 -11.1183433 454.6670731 C-11.12189339 503.31601412 -11.13697452 551.96494038 -11.16028104 600.61387577 C-11.17702024 635.56865496 -11.19249665 670.52343137 -11.197016 705.47821462 C-11.19710949 706.19691053 -11.19720297 706.91560644 -11.19729929 707.65608101 C-11.19931824 723.43243193 -11.20047437 739.2087828 -11.20082788 754.98513384 C-11.20096405 760.63007629 -11.20117305 766.27501873 -11.20142113 771.91996118 C-11.20148269 773.32430758 -11.20154101 774.72865399 -11.20159608 776.1330004 C-11.20251625 798.51924645 -11.21248867 820.9054771 -11.22705357 843.29171808 C-11.24206916 866.46336568 -11.24626278 889.63499236 -11.23796061 912.8066456 C-11.23349453 926.17106095 -11.23740397 939.53541314 -11.25319911 952.89982023 C-11.26291783 961.81947329 -11.26180071 970.7390819 -11.25176288 979.65873451 C-11.24634839 984.74579952 -11.2457327 989.8327429 -11.2582716 994.91979805 C-11.26958031 999.546209 -11.2671195 1004.17239893 -11.25360453 1008.7988021 C-11.25116581 1010.46341742 -11.25377114 1012.1280496 -11.26200101 1013.79264636 C-11.43290033 1027.93353888 -11.43290033 1027.93353888 -5.56544328 1040.50495183 C-0.54112585 1045.41242467 3.75654166 1046.50553524 10.68797469 1046.47052801 C11.42036864 1046.47096609 12.15276259 1046.47140417 12.9073503 1046.47185552 C15.30992666 1046.46977811 17.71179092 1046.44649764 20.11424422 1046.42292058 C21.78718346 1046.41732088 23.46012764 1046.41305255 25.13307357 1046.41005743 C29.52258706 1046.39863808 33.91179974 1046.36919621 38.30119491 1046.33594549 C42.78571163 1046.30518164 47.27027725 1046.29153862 51.75486922 1046.27643621 C60.54406931 1046.24432349 69.33302553 1046.19316268 78.12205672 1046.12995183 C77.9849327 1045.32678533 77.84780868 1044.52361883 77.70652938 1043.69611394 C77.52654403 1042.63142889 77.34655868 1041.56674383 77.16111922 1040.46979558 C76.9827452 1039.41912908 76.80437118 1038.36846258 76.62059188 1037.28595769 C65.12714357 964.5260134 112.13756592 884.78938104 146.12205672 823.12995183 C146.70020125 822.0769489 147.27834579 821.02394598 147.87400985 819.93903387 C156.93951975 803.46116652 166.43752895 787.2505845 176.12205672 771.12995183 C176.73081649 770.11626531 177.33957625 769.10257879 177.96678329 768.05817449 C185.96035975 754.77556586 194.16145096 741.63454182 202.54051375 728.5918659 C203.9446557 726.40610372 205.34443988 724.21762843 206.74315047 722.02838933 C219.48333378 702.15370338 232.61921017 682.49434925 246.12205672 663.12995183 C246.64928329 662.37133855 247.17650985 661.61272527 247.71971297 660.83112371 C272.88292883 624.63392367 298.91801514 588.80302267 326.95408797 554.76276433 C328.39520045 553.01265657 329.83015075 551.25745572 331.25877547 549.49713933 C340.03344172 538.69027929 349.07644692 528.14684388 358.53611922 517.93463933 C360.94954912 515.31705222 363.32077608 512.66731529 365.68455672 510.00495183 C372.08934558 502.87962423 378.80517313 496.10522774 386.09471297 489.88385808 C387.50047249 488.66770004 388.88200405 487.42318682 390.24315047 486.15729558 C400.92596152 476.23110859 412.65482141 467.60199984 424.86766219 459.66413152 C429.60580033 456.55619752 433.97249916 453.13501405 438.26658797 449.43073308 C441.12205672 447.12995183 441.12205672 447.12995183 443.63963485 446.02179754 C446.93573312 444.36409872 448.83055656 443.05058502 451.12205672 440.12995183 C452.70003791 434.43727695 452.3047484 428.37286341 452.09617782 422.52423894 C451.99742074 419.70285155 451.97322086 416.88845793 451.96190047 414.06549871 C451.93371735 412.25487856 451.90130438 410.44431829 451.86424422 408.63385808 C451.85351882 407.8002828 451.84279342 406.96670751 451.831743 406.10787237 C451.45587932 396.73146438 446.53933694 389.95794991 441.47093368 382.37726629 C439.20250756 378.94256373 437.42439684 375.61778985 435.80955672 371.81745183 C434.78087583 369.6480735 434.78087583 369.6480735 433.12205672 368.12995183 C430.16331232 367.48556272 427.39373826 367.43961039 424.36815047 367.38776433 C413.57263124 366.53035847 405.35049361 358.64896219 398.54930282 350.85114324 C387.68050449 337.7438856 377.78008536 320.42400046 377.74705672 303.06745183 C377.72256454 302.3861823 377.69807235 301.70491277 377.67283797 301.00299871 C377.64332405 295.8823339 378.82577198 293.00561768 382.12205672 289.12995183 C386.14325481 285.86230024 389.34475324 285.79974706 394.43455672 285.94245183 C395.68881454 285.96952215 396.94307235 285.99659246 398.23533797 286.02448308 C399.18795516 286.05928777 400.14057235 286.09409246 401.12205672 286.12995183 C400.23006753 277.35321868 398.22538741 268.80725902 396.38182235 260.19049871 C395.10953282 254.16369796 393.98112544 248.21211473 393.21580672 242.09870183 C392.40407827 236.61963919 391.25797082 233.90943738 387.55955672 229.81745183 C374.12816479 213.97548627 366.96312386 196.01260994 368.12205672 175.12995183 C369.24529229 168.00925664 372.67163332 162.77802865 378.12205672 158.12995183 C384.11725065 153.93412298 390.06787031 150.62464018 397.11424422 148.63385808 C405.67647379 146.65615138 405.67647379 146.65615138 412.25633407 141.44049871 C413.82077856 137.44867799 414.27783996 133.28712321 414.7997911 129.05573308 C416.77858827 117.23092089 429.19367269 105.58296381 438.48924422 98.78620183 C455.65952632 87.98471873 474.92502216 82.34114705 495.25486922 86.92682683 C499.37314224 88.14636099 503.00174265 89.4398659 506.66502547 91.69635808 C510.70464095 94.05333564 514.48033755 94.69789633 519.12205672 94.12995183 C521.50153669 92.73523792 523.37652597 91.07752191 525.43846297 89.24713933 C528.80890142 86.58807436 532.3515535 84.7242407 536.18455672 82.81745183 C536.84536239 82.48044256 537.50616805 82.14343328 538.18699813 81.7962116 C547.68483966 77.13438381 556.3354401 76.76529664 566.80955672 76.75495183 C568.09539657 76.73045965 569.38123641 76.70596746 570.7060411 76.68073308 C584.36858041 76.63931053 595.12890351 80.0270173 606.12205672 88.12995183 C606.85295516 88.66491277 607.5838536 89.19987371 608.33690047 89.75104558 C618.50700591 97.89103401 624.44538081 110.3492524 626.12205672 123.12995183 C627.03738032 139.79940268 624.06341648 154.39245636 612.87205672 167.44245183 C608.43188943 172.1155213 603.50107552 175.627551 598.12205672 179.12995183 C596.78081405 180.11931823 595.44478271 181.11596281 594.12205672 182.12995183 C594.57193954 183.02069402 595.02182235 183.91143621 595.48533797 184.82917058 C621.4875711 237.53621374 647.04410375 313.00589509 630.09080672 371.70026433 C625.10659047 385.67627613 617.58075817 396.79198575 607.12205672 407.12995183 C606.045045 408.2224323 606.045045 408.2224323 604.94627547 409.33698308 C597.51017795 416.43698581 587.79823327 422.62141454 578.12205672 426.12995183 C578.06751263 428.48443858 578.02812882 430.83763059 577.99705672 433.19245183 C577.96225204 435.15891668 577.96225204 435.15891668 577.92674422 437.16510808 C578.12493859 441.18845374 578.6491195 444.38151545 580.12205672 448.12995183 C583.49874014 449.68983489 583.49874014 449.68983489 586.19236922 450.34479558 C613.68151818 457.71188751 636.80689878 474.84617645 657.5209825 493.7637409 C659.14439356 495.2405665 660.77492179 496.70965099 662.41600204 498.16681707 C668.76198682 503.80307093 674.82192752 509.67869479 680.80955672 515.69245183 C681.70738875 516.58641668 682.60522079 517.48038152 683.53025985 518.40143621 C688.60388499 523.48249523 693.46914921 528.66243817 698.12205672 534.12995183 C699.0951082 535.24792928 700.06903492 536.36514568 701.04393172 537.48151433 C707.00411723 544.3633673 712.75149599 551.37097056 718.33690047 558.55963933 C721.24616556 562.3029282 724.21378612 565.99792275 727.18455672 569.69245183 C732.0750496 575.79002282 736.88131538 581.94606049 741.6201036 588.16266668 C743.39265083 590.48438085 745.17160813 592.80113245 746.95018172 595.11823308 C754.07471806 604.41509995 761.09815071 613.75503077 767.84422469 623.32965887 C769.78562825 626.06483461 771.75892358 628.77664531 773.72923446 631.49103582 C778.9628749 638.70333302 784.1367452 645.95470903 789.24705672 653.25495183 C789.77202743 654.00470281 790.29699813 654.75445379 790.83787704 655.52692449 C799.97171976 668.61061216 808.96386232 681.78739112 817.80955672 695.06745183 C818.28283401 695.77783605 818.75611129 696.48822027 819.24373031 697.22013128 C925.01614116 856.1032869 925.01614116 856.1032869 943.97337508 996.61969793 C940.45625704 1012.3863378 932.98828081 1029.31409562 922.85252547 1041.96198308 C920.91411139 1043.92815091 920.91411139 1043.92815091 921.12205672 1046.12995183 C933.63102036 1046.24593727 946.1398555 1046.33471412 958.64924788 1046.38901269 C964.45824884 1046.41507687 970.26688118 1046.45041766 976.07567 1046.5071491 C981.6842781 1046.56158105 987.29253221 1046.59139629 992.90138412 1046.60433805 C995.03838332 1046.61355776 997.17536374 1046.6315619 999.31221175 1046.65860212 C1002.31174852 1046.69504038 1005.3098333 1046.69989092 1008.30955672 1046.69757879 C1009.18781615 1046.71555517 1010.06607558 1046.73353155 1010.97094893 1046.75205266 C1017.01239369 1046.70185164 1021.720044 1045.44299435 1026.12205672 1041.12995183 C1032.74847631 1034.06303722 1031.81953666 1025.35343249 1031.75126243 1016.31628454 C1031.7564801 1014.57836447 1031.76388783 1012.84044984 1031.77328426 1011.10254735 C1031.79279063 1006.31424064 1031.78108649 1001.52643664 1031.76439449 996.73813794 C1031.75173268 991.53366145 1031.7680019 986.32926317 1031.78061116 981.1247977 C1031.79869213 971.99912845 1031.79810803 962.87360701 1031.78537536 953.74793088 C1031.76649301 940.17794659 1031.77611593 926.60808741 1031.79141689 913.03810401 C1031.81624469 890.2103018 1031.8171329 867.38257629 1031.80353332 844.55477178 C1031.80291235 843.51194301 1031.80291235 843.51194301 1031.80227884 842.44804699 C1031.80186419 841.75171652 1031.80144954 841.05538605 1031.80102233 840.33795466 C1031.78841077 819.1311978 1031.78514743 797.92446495 1031.79113555 776.71770513 C1031.79152295 775.29807779 1031.79190873 773.87845045 1031.7922929 772.45882311 C1031.79384521 766.75405202 1031.79543854 761.04928094 1031.79709172 755.34450988 C1031.80167695 739.3969201 1031.80452981 723.44933023 1031.80602241 707.50173986 C1031.80612475 706.41238065 1031.80612475 706.41238065 1031.80622916 705.30101419 C1031.80827581 682.15690529 1031.80263976 659.01280475 1031.79177451 635.86869848 C1031.79124764 634.74256947 1031.79124764 634.74256947 1031.79071013 633.59369038 C1031.78498527 621.40164737 1031.77888801 609.20960455 1031.77275926 597.01756174 C1031.74847723 548.66128449 1031.74960426 500.30507645 1031.77391219 451.94879949 C1031.78001805 439.7629348 1031.78607327 427.57707008 1031.79177451 415.39120519 C1031.79212675 414.6408959 1031.79247899 413.89058661 1031.79284191 413.11754067 C1031.80362143 389.99774728 1031.80819447 366.87795964 1031.80602241 343.75816381 C1031.80595448 343.03245639 1031.80588656 342.30674897 1031.80581658 341.55905041 C1031.80425425 325.62923277 1031.80108617 309.69941573 1031.79646989 293.76959869 C1031.79482415 288.06990144 1031.79325876 282.37020416 1031.79171634 276.67050687 C1031.79132939 275.25254665 1031.79093574 273.83458643 1031.79053535 272.41662621 C1031.78456523 251.21502623 1031.7896538 230.01345329 1031.80227884 208.81185668 C1031.80269282 208.1166375 1031.80310679 207.42141832 1031.80353332 206.70513189 C1031.80394673 206.01119296 1031.80436014 205.31725403 1031.80478608 204.60228665 C1031.81857073 181.20800146 1031.81350804 157.81380019 1031.7871296 134.41951919 C1031.77241769 120.92598208 1031.77153351 107.43260999 1031.79036047 93.93907707 C1031.80154078 84.93472365 1031.79465211 75.93050303 1031.77283662 66.92616935 C1031.760901 61.78991145 1031.75696159 56.65398231 1031.77486654 51.51773435 C1031.79098046 46.84781114 1031.78421215 42.17850925 1031.75896323 37.50863161 C1031.75391518 35.82720751 1031.75729034 34.14573234 1031.76999293 32.46434865 C1031.84208263 22.19588076 1031.22536811 15.37119056 1023.80955672 7.75495183 C1018.19467458 4.35990682 1012.13307814 3.87995204 1005.69473535 3.87810284 C1004.98772928 3.87517397 1004.28072321 3.87224511 1003.55229271 3.86922749 C1001.1905599 3.86186917 998.82908777 3.86869057 996.46735644 3.87547624 C994.74679956 3.87308558 993.02624371 3.86981987 991.30568996 3.86575964 C986.5657128 3.85712677 981.82581467 3.86097144 977.08583626 3.86681536 C971.9336023 3.87097966 966.78138292 3.86358713 961.62915248 3.85766286 C952.59517788 3.84888936 943.56122595 3.84759282 934.52724814 3.85116613 C921.09353238 3.85646574 907.65983861 3.85038533 894.22612524 3.8420832 C869.538399 3.82724595 844.85068463 3.82499499 820.16295581 3.82740358 C816.66482103 3.82774202 813.16668624 3.82806412 809.66855145 3.82836926 C808.62634001 3.82846083 808.62634001 3.82846083 807.56307381 3.82855424 C792.1670328 3.82982599 776.77099318 3.82722504 761.37495258 3.82384319 C757.85979871 3.82307245 754.34464484 3.82232773 750.82949097 3.82157818 C749.4187273 3.82127649 748.00796362 3.82097461 746.59719995 3.82067254 C745.54826773 3.82044802 745.54826773 3.82044802 744.47814496 3.82021896 C743.06368541 3.81991543 741.64922586 3.81961075 740.23476632 3.81930492 C700.09788735 3.8106313 659.96100961 3.80598844 619.82412982 3.81025255 C619.08085155 3.8103306 618.33757327 3.81040866 617.57177142 3.81048908 C609.28334393 3.81136189 600.99491645 3.81229115 592.70648897 3.81323972 C591.95815934 3.81332523 591.2098297 3.81341073 590.4388234 3.81349884 C585.8993633 3.81401763 585.8993633 3.81401763 581.3599032 3.81454106 C533.48788885 3.82007758 485.61589377 3.81253282 437.74388289 3.79377019 C425.68056436 3.78904805 413.61724582 3.78436756 401.55392718 3.77993333 C400.43977318 3.77952335 400.43977318 3.77952335 399.30311102 3.77910508 C376.41435195 3.77073517 353.52559449 3.76605426 330.63683391 3.76522577 C329.55909208 3.76518622 329.55909208 3.76518622 328.4595777 3.76514587 C312.687795 3.76460511 296.91601242 3.76497748 281.14422976 3.76618558 C275.50101001 3.76661122 269.85779026 3.76697634 264.21457051 3.76731502 C262.81066587 3.76740033 261.40676123 3.76748926 260.00285659 3.76758184 C237.62506548 3.76903111 215.24728746 3.76190119 192.86949949 3.75057788 C169.70860054 3.73893419 146.54772439 3.73835804 123.38682336 3.75042131 C110.02905965 3.75706675 96.67135753 3.75538013 83.31359871 3.74183279 C74.39848293 3.73361799 65.48341352 3.73624702 56.56830155 3.74780806 C51.48388331 3.75409401 46.39958567 3.75558959 41.31517417 3.74394473 C36.69119841 3.7334515 32.06744609 3.73672434 27.44348248 3.75104925 C25.77975742 3.75378131 24.11601462 3.75147238 22.45230621 3.74354211 C11.31559233 3.69407421 1.34686484 3.70931496 -6.87794328 12.12995183 Z M592.12205672 84.12995183 C592.78205672 84.78995183 593.44205672 85.44995183 594.12205672 86.12995183 C594.57967391 86.59788152 595.0372911 87.06581121 595.50877547 87.54792058 C597.12024669 89.16673581 597.12024669 89.16673581 598.95408797 90.68073308 C608.83778199 99.47273703 615.23830432 113.99133665 616.27733016 127.08698308 C617.04572779 140.77843173 615.01588174 152.53191422 608.32908797 164.66901433 C606.90187674 167.12202743 606.90187674 167.12202743 607.12205672 170.12995183 C617.15770156 158.42584992 624.13826696 145.48009301 623.39940047 129.52057683 C621.85681144 116.22389394 617.54990076 102.23861078 607.12205672 93.12995183 C600.1685012 87.1173811 600.1685012 87.1173811 592.12205672 84.12995183 Z M430.12205672 112.12995183 C427.64873505 115.04073176 425.31491803 118.00280807 423.12205672 121.12995183 C423.45205672 121.78995183 423.78205672 122.44995183 424.12205672 123.12995183 C424.8703575 122.20376043 424.8703575 122.20376043 425.63377547 121.25885808 C444.82531012 98.62180555 469.95331949 94.67210862 498.12205672 92.12995183 C477.23133194 78.20280198 444.71363353 96.66462792 430.12205672 112.12995183 Z M422.12205672 123.12995183 C422.12205672 126.12995183 422.12205672 126.12995183 422.12205672 126.12995183 Z M420.12205672 126.12995183 C421.12205672 128.12995183 421.12205672 128.12995183 421.12205672 128.12995183 Z " fill="#000000" transform="translate(18.87794327735901,-0.1299518346786499)"/>
<path d="M0 0 C25.15555182 53.35461485 54.82350368 131.60764621 35.25 190.75 C31.04900188 201.23658244 25.51268528 210.56941144 18 219 C17.33484375 219.75925781 16.6696875 220.51851562 15.984375 221.30078125 C4.65871804 233.44440233 -10.69404128 240.81604778 -26.3125 245.8125 C-26.95815918 246.0197168 -27.60381836 246.22693359 -28.26904297 246.44042969 C-54.9779898 254.55228908 -86.59885442 248.18233576 -111 236 C-111.91394531 235.54882812 -112.82789063 235.09765625 -113.76953125 234.6328125 C-133.65588005 224.34197466 -147.75569647 205.59715437 -156 185 C-155.32453125 184.63648438 -154.6490625 184.27296875 -153.953125 183.8984375 C-148.6385479 180.90322787 -144.85654723 178.59407166 -142 173 C-141.566875 172.154375 -141.13375 171.30875 -140.6875 170.4375 C-138.80171656 163.75154054 -143.48549768 155.99394182 -145.87280273 149.76269531 C-146.68047785 147.64342553 -147.46817716 145.51739161 -148.25585938 143.390625 C-152.08879397 133.2445557 -156.2410742 126.77323285 -164.9375 120.125 C-165.485271 119.69993164 -166.03304199 119.27486328 -166.59741211 118.83691406 C-169.62736031 116.54775224 -172.65874695 114.58617684 -176.0390625 112.8515625 C-186.01251921 107.71102662 -186.01251921 107.71102662 -188.6953125 103.0625 C-189.58307023 100.09864743 -190.22081916 97.21356302 -190.66845703 94.15332031 C-191.03924008 91.74514173 -191.52533273 89.37640159 -192.02734375 86.9921875 C-194.22361587 76.38838721 -195.84276333 65.76534639 -197 55 C-196.0821875 54.59910156 -195.164375 54.19820312 -194.21875 53.78515625 C-183.31383428 48.81864926 -176.14503594 43.12864666 -171.59375 31.65234375 C-171.3978125 31.10707031 -171.201875 30.56179687 -171 30 C-169.54980469 30.06960937 -169.54980469 30.06960937 -168.0703125 30.140625 C-155.17628996 30.49808305 -146.62098889 27.83298408 -137 19 C-134.86726938 16.73974528 -132.93807326 14.43501512 -131 12 C-130.5875 12.37511719 -130.175 12.75023437 -129.75 13.13671875 C-118.57416865 23.04030144 -108.10287676 27.09103402 -93.19921875 26.6015625 C-81.9255359 25.69068386 -72.1267143 19.36436383 -64.640625 11.12109375 C-62.61177237 8.49807713 -61.18879993 6.09087982 -60 3 C-58.10399631 3.31146472 -56.20820413 3.62421717 -54.3125 3.9375 C-53.25675781 4.11152344 -52.20101562 4.28554687 -51.11328125 4.46484375 C-49.29799621 4.77688145 -47.48677363 5.1226524 -45.6953125 5.55078125 C-28.9058147 8.34903088 -15.31351748 0 0 0 Z " fill="#FDFDFD" transform="translate(611,182)"/>
<path d="M0 0 C2.86419045 2.633308 5.68925728 5.35740403 7.79296875 8.6484375 C7.79296875 9.6384375 7.79296875 10.6284375 7.79296875 11.6484375 C6.83261719 11.57625 5.87226562 11.5040625 4.8828125 11.4296875 C-16.26605293 9.94966124 -37.26630505 10.0833838 -58.20703125 13.6484375 C-57.14218506 13.57915039 -56.07733887 13.50986328 -54.98022461 13.43847656 C-42.05913551 12.6505469 -29.15954523 12.43036188 -16.21606445 12.40820312 C-12.74992884 12.39838196 -9.28435984 12.36717812 -5.81835938 12.3359375 C-3.57422219 12.32941481 -1.33008087 12.32416147 0.9140625 12.3203125 C1.92995956 12.3079657 2.94585663 12.2956189 3.99253845 12.28289795 C15.62298019 12.31855635 25.2414069 14.97777761 34.79296875 21.6484375 C36.37078125 22.73125 36.37078125 22.73125 37.98046875 23.8359375 C43.15449274 29.00996149 47.76412098 35.27280153 48.79296875 42.6484375 C49.42203125 42.74640625 50.05109375 42.844375 50.69921875 42.9453125 C60.43128749 44.64549318 68.56613925 48.09417394 74.68359375 56.1328125 C78.45993067 61.68986114 80.6655686 65.89622976 80.79296875 72.6484375 C75.58679897 71.57129892 70.56068366 70.28009264 65.48046875 68.7109375 C51.96735816 64.79578762 37.8115465 63.32151491 23.79296875 62.6484375 C23.79296875 63.3084375 23.79296875 63.9684375 23.79296875 64.6484375 C24.9840625 64.60332031 26.17515625 64.55820312 27.40234375 64.51171875 C34.05454829 64.51820997 40.50364144 65.70948083 47.04296875 66.8359375 C47.70026978 66.94825714 48.3575708 67.06057678 49.03479004 67.17630005 C89.13334965 74.05695611 89.13334965 74.05695611 97.73046875 85.4609375 C101.45190831 91.28885229 104.47782346 97.57160548 103.79296875 104.6484375 C97.45543725 104.84787031 91.64315607 104.10887499 85.41796875 102.9609375 C83.92281738 102.69410156 83.92281738 102.69410156 82.39746094 102.421875 C76.00733805 101.27050151 69.63491528 100.03669227 63.26464844 98.78076172 C35.08304726 93.21355304 35.08304726 93.21355304 6.48046875 91.2109375 C5.49030762 91.2008667 4.50014648 91.1907959 3.47998047 91.18041992 C-2.82872115 91.2579724 -7.27733607 92.05339688 -12.15625 96.375 C-12.72988281 97.00148438 -13.30351563 97.62796875 -13.89453125 98.2734375 C-17.8316278 102.375832 -22.08242876 105.8966302 -26.515625 109.44921875 C-28.83220139 111.34215418 -31.02044086 113.29714845 -33.20703125 115.3359375 C-57.60911737 137.20160607 -93.20774468 159.6484375 -127.20703125 159.6484375 C-128.84685455 157.39526943 -130.14000711 155.27390417 -131.45703125 152.8359375 C-132.34361524 151.26351191 -133.231743 149.69195614 -134.12109375 148.12109375 C-134.85440918 146.81229248 -134.85440918 146.81229248 -135.60253906 145.47705078 C-138.59853753 140.19530424 -141.72583552 134.99085511 -144.83203125 129.7734375 C-146.21713995 127.43939111 -147.60068939 125.10442148 -148.984375 122.76953125 C-149.68860144 121.58184603 -150.39286584 120.39418331 -151.09716797 119.20654297 C-159.30875968 105.35875514 -167.51969355 91.51058311 -175.70703125 77.6484375 C-180.27020742 69.92327978 -184.83692371 62.20022526 -189.40917969 54.48043823 C-190.10338874 53.30813152 -190.79740168 52.13570865 -191.49121094 50.96316528 C-194.71262634 45.51903106 -197.93609065 40.07699755 -201.22265625 34.671875 C-201.6515918 33.96538818 -202.08052734 33.25890137 -202.52246094 32.53100586 C-203.28472423 31.27936701 -204.05070932 30.02998326 -204.82128906 28.78344727 C-207.20703125 24.86766653 -207.20703125 24.86766653 -207.20703125 22.6484375 C-202.89707777 21.1825037 -198.58364373 19.7270816 -194.26953125 18.2734375 C-193.05716797 17.8609375 -191.84480469 17.4484375 -190.59570312 17.0234375 C-184.1604272 14.86090575 -177.84654756 13.04481707 -171.20703125 11.6484375 C-169.90294454 11.13739601 -168.61018143 10.59627052 -167.33203125 10.0234375 C-164.20703125 8.6484375 -164.20703125 8.6484375 -161.20703125 8.6484375 C-161.20703125 7.9884375 -161.20703125 7.3284375 -161.20703125 6.6484375 C-140.8323385 1.23116625 -119.98393942 -3.68336391 -98.9921875 -5.921875 C-93.51680718 -6.5434352 -88.08288734 -7.41693616 -82.64404297 -8.29956055 C-58.2856992 -12.11012873 -20.55975064 -16.70214794 0 0 Z " fill="#FDFDFD" transform="translate(707.20703125,809.3515625)"/>
<path d="M0 0 C1.48306641 0.00737183 1.48306641 0.00737183 2.99609375 0.01489258 C73.13018158 1.07670524 131.27696362 29.07579746 181.75 76.3125 C182.75473458 77.22851413 183.76126881 78.14255795 184.76953125 79.0546875 C189.82984358 83.63433905 194.82435924 88.27325705 199.6875 93.0625 C200.54214844 93.90296875 201.39679688 94.7434375 202.27734375 95.609375 C205.09045717 98.68469014 207.38786805 101.8812815 209.75 105.3125 C209.12883301 105.48265625 208.50766602 105.6528125 207.86767578 105.828125 C158.49482558 119.39596105 109.57746582 135.38607353 61.74926758 153.68676758 C60.87165771 154.02216553 59.99404785 154.35756348 59.08984375 154.703125 C58.34081787 154.99219727 57.59179199 155.28126953 56.82006836 155.57910156 C54.78834789 156.29891384 52.87737768 156.95393752 50.75 157.3125 C48.62890625 155.94140625 48.62890625 155.94140625 46.3125 153.875 C19.68848688 131.5201435 -16.49613392 119.45428514 -50.75 116.375 C-62.86258779 115.23198115 -74.47782609 110.64781283 -82.8125 101.5 C-84.73258202 97.24242682 -85.40215057 93.89017208 -84.25 89.3125 C-79.7787373 81.9329948 -73.87544806 78.90271611 -65.75 76.75 C-56.06270203 74.60729149 -46.1248842 74.05308308 -36.25 73.3125 C-37.095625 72.88839844 -37.94125 72.46429687 -38.8125 72.02734375 C-57.10444744 62.56957547 -57.10444744 62.56957547 -60.25 54.3125 C-60.94447838 49.59180521 -60.74693837 46.28797161 -58.5625 42 C-50.53800671 32.67423753 -38.26936783 30.02226579 -26.36474609 29.08544922 C-19.66452006 28.69401991 -12.95949886 28.46944227 -6.25 28.3125 C-6.96285156 28.09335937 -7.67570312 27.87421875 -8.41015625 27.6484375 C-14.74122154 25.55228399 -19.71585217 23.30291428 -24.25 18.3125 C-25.75889469 15.29471063 -25.75026276 13.68927363 -25.25 10.3125 C-22.43164166 5.68970492 -19.83973621 2.84757355 -14.640625 1.09765625 C-9.77102193 0.06426813 -4.96311133 -0.02993485 0 0 Z " fill="#FDFDFD" transform="translate(332.25,711.6875)"/>
<path d="M0 0 C5.13819856 4.3420454 10.10270611 8.82635068 15 13.4375 C15.67289062 14.06720703 16.34578125 14.69691406 17.0390625 15.34570312 C20.28862954 18.39766136 23.48507891 21.48001013 26.6015625 24.66796875 C52.96472086 51.1540757 90.67092214 56.83457749 126 61 C126.33 59.35 126.66 57.7 127 56 C130.38199559 57.12733186 130.6517662 57.58342509 132.41015625 60.4921875 C132.84263672 61.19730469 133.27511719 61.90242188 133.72070312 62.62890625 C134.16349609 63.37011719 134.60628906 64.11132812 135.0625 64.875 C135.94904848 66.33083287 136.83576107 67.78656582 137.72265625 69.2421875 C138.11203369 69.8904248 138.50141113 70.53866211 138.90258789 71.20654297 C139.89550916 72.82923477 140.94475357 74.41713035 142 76 C142.21878976 78.67068618 142.32544051 81.24497799 142.34375 83.91796875 C142.35760239 84.7150676 142.37145477 85.51216644 142.38572693 86.3334198 C142.4154573 88.05357863 142.44126664 89.77380873 142.46359253 91.49407959 C142.52510476 96.04474704 142.6225525 100.59457072 142.72265625 105.14453125 C142.74268204 106.06302856 142.76270782 106.98152588 142.78334045 107.92785645 C143.1902474 125.2465517 144.18306683 142.5996514 146.38598633 159.78613281 C147.42452842 168.48909434 147.16436687 177.25202999 147 186 C141.9359666 182.32758466 137.21072971 178.50503097 132.6875 174.1875 C127.83760286 169.63132206 122.84729267 165.34778941 117.65625 161.1796875 C113.3010003 157.60582083 109.15029143 153.80818498 105 150 C101.78873987 150.70446958 101.78873987 150.70446958 100.47290039 153.60668945 C99.93656982 154.76386475 99.40023926 155.92104004 98.84765625 157.11328125 C98.55109131 157.74703171 98.25452637 158.38078217 97.94897461 159.03373718 C96.97599405 161.12182848 96.01890856 163.21677246 95.0625 165.3125 C94.39619997 166.75346246 93.72944781 168.19421593 93.06225586 169.63476562 C86.76020214 183.30160246 80.81191822 197.11843791 75 211 C74.01 211 73.02 211 72 211 C70.39697266 209.09838867 70.39697266 209.09838867 68.6640625 206.41796875 C67.69605713 204.94021973 67.69605713 204.94021973 66.70849609 203.43261719 C66.02094238 202.36172852 65.33338867 201.29083984 64.625 200.1875 C63.53859999 198.52617759 62.45218791 196.86486222 61.36404419 195.2046814 C60.62927191 194.08264965 59.89577942 192.95977883 59.1635437 191.83609009 C55.96561552 186.92875885 52.69144543 182.0777697 49.375 177.25 C48.85301025 176.48896973 48.33102051 175.72793945 47.79321289 174.94384766 C42.17292455 166.76904008 36.47631392 158.6476283 30.77490234 150.52929688 C28.39467973 147.1373978 26.02049702 143.7412913 23.64624023 140.34521484 C21.3180366 137.01609224 18.9869945 133.68896434 16.65527344 130.36230469 C15.58493532 128.83478381 14.51523035 127.306819 13.44628906 125.77832031 C-3.88163784 100.28465766 -3.88163784 100.28465766 -23.3359375 76.4609375 C-25 74 -25 74 -25.06640625 71.57421875 C-23.63003935 68.10694481 -21.41671816 65.56860607 -18.9375 62.8125 C-17.93387611 61.66234735 -16.9312808 60.51129639 -15.9296875 59.359375 C-15.43307617 58.79283203 -14.93646484 58.22628906 -14.42480469 57.64257812 C-10.21092761 52.78463347 -6.08089257 47.80568833 -2.625 42.375 C-2.08875 41.59125 -1.5525 40.8075 -1 40 C-0.34 40 0.32 40 1 40 C0.9278125 39.03964844 0.855625 38.07929688 0.78125 37.08984375 C-0.07906539 24.7218516 -0.10679802 12.39350003 0 0 Z " fill="#EBEDED" transform="translate(471,399)"/>
<path d="M0 0 C5.13819856 4.3420454 10.10270611 8.82635068 15 13.4375 C15.67289062 14.06720703 16.34578125 14.69691406 17.0390625 15.34570312 C20.28862954 18.39766136 23.48507891 21.48001013 26.6015625 24.66796875 C52.4346361 50.62151881 89.36804724 56.60341369 124 61 C125.19581786 64.58745359 124.72663724 65.4732055 123.46459961 68.9519043 C123.10349594 69.96113449 122.74239227 70.97036469 122.37034607 72.01017761 C121.9684053 73.10381119 121.56646454 74.19744476 121.15234375 75.32421875 C120.74343399 76.45841751 120.33452423 77.59261627 119.91322327 78.76118469 C118.59654381 82.4064548 117.2670955 86.04692371 115.9375 89.6875 C115.06754078 92.0915008 114.19839082 94.49579462 113.33007812 96.90039062 C108.96638402 108.96347683 104.54858585 121.00533876 100 133 C97.19571434 131.72494758 95.18395629 130.42022876 93.046875 128.20703125 C92.51425049 127.66280518 91.98162598 127.1185791 91.43286133 126.55786133 C90.87751709 125.98189209 90.32217285 125.40592285 89.75 124.8125 C85.62000431 120.59977801 81.45805534 116.55704484 76.95703125 112.73828125 C73.63093789 109.78396679 70.56294858 106.56981381 67.4375 103.40625 C65.34999365 101.34550655 63.22830777 99.40484374 61 97.5 C56.9251665 94.01667458 53.20707008 90.22181292 49.44140625 86.41015625 C46.72797273 83.73145468 43.89222977 81.25391882 40.99609375 78.77734375 C37.93196187 76.04900715 35.09518168 73.10332092 32.21484375 70.18359375 C30.22340539 68.22025329 28.18697422 66.37920331 26.0625 64.5625 C21.97780276 61.06249104 18.24322105 57.2585458 14.46484375 53.43359375 C11.64368317 50.64820065 8.71153259 48.03881788 5.69140625 45.47265625 C5.13324219 44.98667969 4.57507813 44.50070312 4 44 C3.44570313 43.60167969 2.89140625 43.20335937 2.3203125 42.79296875 C0.19866864 39.9118015 0.41702091 36.7048095 0.3125 33.25 C0.27906494 32.47736816 0.24562988 31.70473633 0.21118164 30.90869141 C-0.17919896 20.61278343 -0.08953762 10.30095929 0 0 Z " fill="#FDFDFD" transform="translate(471,399)"/>
<path d="M0 0 C0.63333252 0.34925537 1.26666504 0.69851074 1.91918945 1.05834961 C5.35148684 3.02041204 7.95530074 5.16655363 10.6875 8 C2.38164129 11.88596324 -6.04593572 15.42721186 -14.53955078 18.87646484 C-16.7067705 19.75783699 -18.87096764 20.64637142 -21.03515625 21.53515625 C-22.42690577 22.10199867 -23.81882671 22.66842042 -25.2109375 23.234375 C-25.85058441 23.49788757 -26.49023132 23.76140015 -27.14926147 24.03289795 C-35.92356068 27.57370968 -35.92356068 27.57370968 -39.43676758 26.12255859 C-40.16532959 25.67734863 -40.8938916 25.23213867 -41.64453125 24.7734375 C-47.75659474 21.50117443 -54.11326027 20.30371904 -60.85754395 19.03198242 C-64.52655114 18.3350153 -68.18333751 17.57978766 -71.83984375 16.8203125 C-72.56632111 16.66947205 -73.29279846 16.51863159 -74.04129028 16.36322021 C-90.70369421 12.84784189 -109.86134897 8.45115103 -122.3125 -4 C-125.03792789 -8.47274055 -124.95114932 -12.90697378 -124.3125 -18 C-121.25683627 -24.35578056 -115.99888334 -28.50756481 -109.9375 -31.875 C-76.35325054 -42.76718901 -27.72634545 -15.37958477 0 0 Z " fill="#FDFDFD" transform="translate(370.3125,862)"/>
<path d="M0 0 C2.30232469 0.98852106 4.44551042 2.1222556 6.62890625 3.3515625 C7.52996094 3.81433594 8.43101562 4.27710938 9.359375 4.75390625 C21.75633563 11.4518678 34.4812585 20.96813931 39.6796875 34.41015625 C39.94275192 35.07692886 40.20581635 35.74370148 40.47685242 36.43067932 C41.02666905 37.83326399 41.57183342 39.23768044 42.11254883 40.64379883 C42.94019184 42.78591934 43.79238551 44.91714073 44.64648438 47.04882812 C45.17990676 48.41867939 45.71185835 49.78910449 46.2421875 51.16015625 C46.62483513 52.10730751 46.62483513 52.10730751 47.01521301 53.07359314 C48.57810593 57.22491606 48.79271458 60.07409372 47.62890625 64.3515625 C44.94219893 69.11022207 41.22267351 74.21731588 35.8359375 75.98046875 C27.72792983 77.34376208 19.80134301 77.68052238 12.765625 73.01171875 C-1.32491765 62.06385655 -10.1431166 49.447478 -17.37109375 33.3515625 C-17.82742188 32.39507812 -18.28375 31.43859375 -18.75390625 30.453125 C-22.00260486 22.88797368 -22.74908207 14.45687269 -21.37109375 6.3515625 C-16.45760021 -1.72234683 -8.74561294 -2.39171622 0 0 Z " fill="#FBFBFB" transform="translate(420.37109375,288.6484375)"/>
<path d="M0 0 C2.79233847 3.37455952 4.5548091 7.06164348 6.3359375 11.02734375 C6.80902596 12.0653437 6.80902596 12.0653437 7.29167175 13.12431335 C8.32422552 15.39323949 9.34968702 17.66529375 10.375 19.9375 C11.0972187 21.52864479 11.81979782 23.11962602 12.54272461 24.71044922 C17.44624691 35.51289799 22.30476988 46.33568438 27.14526367 57.16650391 C31.12370526 66.06492929 35.14693942 74.94215107 39.1875 83.8125 C44.80750542 96.15031435 50.38261913 108.50773628 55.9375 120.875 C62.01239783 134.39943124 68.13793948 147.89935208 74.31613159 161.37689209 C79.28211516 172.21195896 84.18872786 183.07127399 89.04125977 193.95776367 C92.09457194 200.79408353 95.19149563 207.60783106 98.328125 214.40625 C98.87968262 215.6038092 98.87968262 215.6038092 99.44238281 216.82556152 C101.25018623 220.75061756 103.06291741 224.67323991 104.88476562 228.59179688 C105.54321226 230.01941896 106.2014269 231.44714808 106.859375 232.875 C107.16288879 233.52263306 107.46640259 234.17026611 107.77911377 234.83752441 C109.3229616 238.20358778 110.45759719 241.33049673 111 245 C98.54947707 243.02156074 98.54947707 243.02156074 94.91015625 238.2734375 C93.48205167 235.22024839 92.225237 232.13914169 91 229 C86.40772674 222.04598621 78.96613494 217.12319793 70.98632812 214.85424805 C67.50410487 213.55669932 67.12656104 213.23561049 65.25317383 209.74804688 C64.87036726 208.41426446 64.52350556 207.069809 64.20703125 205.71875 C64.00988022 204.99740372 63.81272919 204.27605743 63.60960388 203.53285217 C62.97881346 201.19569621 62.39567321 198.8494428 61.8125 196.5 C61.38618324 194.88713146 60.95681092 193.27506752 60.52441406 191.66381836 C59.49076557 187.78501736 58.4924258 183.89835663 57.50909424 180.00653076 C56.844372 177.38661186 56.15688331 174.77297829 55.46484375 172.16015625 C54.86388459 169.88968568 54.26460314 167.61906305 53.67749023 165.3449707 C52.15067272 159.44460272 50.42210573 153.61712031 48.64257812 147.78857422 C46.88190483 141.99900221 45.18589625 136.1933555 43.5234375 130.375 C37.72984694 110.11351796 31.66270892 89.99349559 25 70 C24.61553711 68.83339844 24.23107422 67.66679688 23.83496094 66.46484375 C18.11372161 49.15120317 11.65837566 32.20065914 4.82543945 15.30053711 C4.50566635 14.50494888 4.18589325 13.70936066 3.85643005 12.8896637 C3.25273752 11.38898554 2.64468453 9.89005182 2.03163147 8.39317322 C0.84429957 5.43784053 0 3.21703099 0 0 Z " fill="#1B1B1B" transform="translate(659,611)"/>
<path d="M0 0 C0.99 0 1.98 0 3 0 C4.57863008 2.22062699 5.94992273 4.39999588 7.3125 6.75 C11.27525947 13.35534624 15.52049128 19.6722617 20 25.9375 C24.5443035 32.33884168 28.87618477 38.80499918 32.875 45.5625 C33.2978125 46.27075928 33.720625 46.97901855 34.15625 47.70874023 C37 52.61819894 37 52.61819894 37 56 C17.52725425 63.94257255 -2.20853002 71.1175669 -21.98400879 78.26437378 C-35.48242413 83.14472052 -48.95782338 88.05056674 -62.3125 93.3125 C-81.04266969 100.66746757 -100.0050148 107.3647105 -119 114 C-119.96417847 114.3370697 -120.92835693 114.6741394 -121.92175293 115.02142334 C-186.2462488 137.48113826 -251.77819764 159.05440378 -319 171 C-318.67 170.01 -318.34 169.02 -318 168 C-316.00325012 167.10151672 -316.00325012 167.10151672 -313.32739258 166.3527832 C-311.81387962 165.91908417 -311.81387962 165.91908417 -310.26979065 165.47662354 C-309.15595505 165.17109558 -308.04211945 164.86556763 -306.89453125 164.55078125 C-305.1535038 164.05683868 -305.1535038 164.05683868 -303.37730408 163.55291748 C-300.85318572 162.83813802 -298.32825825 162.12792144 -295.80090332 161.42483521 C-291.77307513 160.30370957 -287.75080712 159.16352522 -283.72949219 158.01928711 C-282.35959579 157.62968976 -280.98969219 157.24011774 -279.61978149 156.85057068 C-278.9374004 156.65651579 -278.2550193 156.4624609 -277.55195999 156.26252556 C-275.45867885 155.66790456 -273.3649618 155.07484424 -271.27108765 154.48231506 C-230.52461012 142.95033476 -190.15547853 130.44449022 -150 117 C-147.95784794 116.31786245 -145.91569306 115.63573333 -143.87353516 114.95361328 C-113.45143594 104.77756977 -83.23658378 94.03950343 -53.07653809 83.11383057 C-50.11970176 82.04333685 -47.1620533 80.97512208 -44.20410156 79.90771484 C-24.71434931 72.87165346 -5.30071089 65.69905504 13.91699219 57.94580078 C14.56434326 57.68617554 15.21169434 57.42655029 15.87866211 57.15905762 C17.60513811 56.46594598 19.32951297 55.76760691 21.05371094 55.06884766 C23.71254125 54.10428359 26.21518252 53.46112656 29 53 C26.75821834 48.5999269 24.50759296 44.2044759 22.25 39.8125 C21.74628372 38.83233414 21.74628372 38.83233414 21.23239136 37.83236694 C16.23689626 28.13133975 11.04896785 18.57610701 5.50683594 9.1730957 C5.04180664 8.37991943 4.57677734 7.58674316 4.09765625 6.76953125 C3.69039307 6.08479736 3.28312988 5.40006348 2.86352539 4.69458008 C2 3 2 3 2 1 C1.34 0.67 0.68 0.34 0 0 Z " fill="#1A1A1A" transform="translate(580,969)"/>
<path d="M0 0 C0.99 0.495 0.99 0.495 2 1 C4.18206391 10.0710458 4.63749159 19.68882808 5.47265625 28.9609375 C5.60162988 30.36376605 5.73090389 31.76656701 5.86045837 33.16934204 C6.12923828 36.08858757 6.39539672 39.00805522 6.65942383 41.92773438 C6.99379018 45.62444735 7.33327682 49.32066672 7.67458439 53.01674461 C7.94125112 55.9080917 8.20589879 58.79962083 8.46990776 61.6912117 C8.65363953 63.70211351 8.83840508 65.71292077 9.02320862 67.72372437 C10.24956971 81.30790642 11.16090101 94.79003629 11.0625 108.4375 C11.05798828 109.65759766 11.05347656 110.87769531 11.04882812 112.13476562 C11.03723937 115.08989933 11.02093061 118.0449203 11 121 C5.46416054 117.01408631 0.37420459 112.76609426 -4.5625 108.0625 C-5.26560303 107.39734375 -5.96870605 106.7321875 -6.69311523 106.046875 C-16.99281094 96.23448386 -26.98502126 86.10128043 -37 76 C-39.52011996 78.52011996 -40.2730676 80.85396184 -41.58203125 84.17578125 C-42.10092636 85.47873728 -42.61997634 86.78163164 -43.13916016 88.08447266 C-43.41173645 88.7737384 -43.68431274 89.46300415 -43.96514893 90.17315674 C-48.7587254 102.27570295 -53.77218603 114.25909836 -59.125 126.125 C-59.4002652 126.73646881 -59.6755304 127.34793762 -59.95913696 127.97793579 C-62.54139423 133.705512 -65.16629447 139.39177591 -68 145 C-72.28756672 140.9808997 -75.65740933 136.59135419 -79.0625 131.8125 C-79.55943359 131.12736328 -80.05636719 130.44222656 -80.56835938 129.73632812 C-84.88338388 123.72706088 -88.97398354 117.57252128 -93.06665039 111.41110229 C-97.06049047 105.40024152 -101.08641455 99.41183129 -105.12890625 93.43359375 C-105.73664383 92.53429642 -106.34438141 91.63499908 -106.97053528 90.70845032 C-109.45896192 87.02662819 -111.94799864 83.34522251 -114.43920898 79.6652832 C-122.00077621 68.49310462 -129.47978193 57.27870541 -136.76325989 45.92303467 C-138.5768791 43.10299788 -140.40468418 40.29222757 -142.23178101 37.48091125 C-144.00633447 34.74941763 -145.77014722 32.0110684 -147.53369141 29.27246094 C-148.56446875 27.67497917 -149.59827028 26.07944669 -150.63427734 24.48535156 C-152.30544792 21.91171991 -153.96607721 19.3315389 -155.625 16.75 C-156.14634521 15.95158691 -156.66769043 15.15317383 -157.20483398 14.33056641 C-157.68637939 13.57694824 -158.1679248 12.82333008 -158.6640625 12.046875 C-159.09154785 11.38526367 -159.5190332 10.72365234 -159.95947266 10.04199219 C-161.14553882 7.71438604 -161.5950535 5.57043282 -162 3 C-157.554411 7.15529867 -154.06304947 11.76716961 -150.5 16.6875 C-149.58359741 17.94336914 -149.58359741 17.94336914 -148.64868164 19.22460938 C-147.38103709 20.96380267 -146.11550638 22.70453857 -144.85205078 24.44677734 C-143.12401111 26.82903925 -141.3891409 29.20615067 -139.65234375 31.58203125 C-133.50417033 40.01707625 -127.5259252 48.55290913 -121.65722656 57.18457031 C-118.55323151 61.74596317 -115.41179559 66.27290094 -112.1875 70.75 C-99.99768717 87.7064552 -88.26375903 104.96535815 -76.73730469 122.37792969 C-74.16672614 126.2576393 -71.58407839 130.1292734 -69 134 C-66.57710422 131.57710422 -65.75361953 129.38702262 -64.41796875 126.2265625 C-63.90419678 125.02161133 -63.3904248 123.81666016 -62.86108398 122.57519531 C-62.58851776 121.93118774 -62.31595154 121.28718018 -62.03512573 120.62365723 C-60.59572106 117.22961615 -59.13409736 113.84519808 -57.671875 110.4609375 C-57.22067543 109.41655518 -57.22067543 109.41655518 -56.76036072 108.35107422 C-53.82592933 101.57349751 -50.84517939 94.81814064 -47.7784729 88.0993042 C-46.94848619 86.27415868 -46.13173957 84.443011 -45.31518555 82.61181641 C-44.80769775 81.50757324 -44.30020996 80.40333008 -43.77734375 79.265625 C-43.33640381 78.29399414 -42.89546387 77.32236328 -42.44116211 76.32128906 C-40.86254691 73.77860343 -39.77102356 73.01788167 -37 72 C-36.33355469 72.61746094 -35.66710937 73.23492188 -34.98046875 73.87109375 C-30.31429221 78.15875527 -25.63695059 82.34999343 -20.6875 86.3125 C-15.52043677 90.47588907 -10.67611267 94.92665418 -5.8581543 99.48364258 C-2.67992641 102.48232509 0.53881098 105.32308789 4 108 C4.18193317 98.88312649 4.28065181 89.87051618 3.125 80.8125 C-0.1992137 53.94378726 -0.27918574 27.02517917 0 0 Z " fill="#202020" transform="translate(613,476)"/>
<path d="M0 0 C2.97 0.495 2.97 0.495 6 1 C12.9940652 30.80803979 4.6281742 52.57500062 -7 80 C-11.40769915 78.79790023 -14.15546898 77.63528245 -17 74 C-17.95727539 71.52416992 -17.95727539 71.52416992 -18.59765625 68.73046875 C-18.8404834 67.68681152 -19.08331055 66.6431543 -19.33349609 65.56787109 C-19.57406738 64.45234863 -19.81463867 63.33682617 -20.0625 62.1875 C-20.31854004 61.04361816 -20.57458008 59.89973633 -20.83837891 58.72119141 C-23.25142405 47.5683456 -24.79713004 36.34087964 -26 25 C-25.0821875 24.59910156 -24.164375 24.19820312 -23.21875 23.78515625 C-12.31383428 18.81864926 -5.14503594 13.12864666 -0.59375 1.65234375 C-0.3978125 1.10707031 -0.201875 0.56179687 0 0 Z " fill="#CACACA" transform="translate(440,212)"/>
<path d="M0 0 C2.99177705 2.25277236 5.93888222 4.56179226 8.79052734 6.98999023 C10.43814254 8.39159999 10.43814254 8.39159999 13 10 C15.89498048 9.55278897 18.59021461 8.47406709 21.33447266 7.46533203 C22.1828067 7.15475861 23.03114075 6.84418518 23.90518188 6.52420044 C24.81561249 6.18879242 25.72604309 5.8533844 26.6640625 5.5078125 C28.61066305 4.79553456 30.5572781 4.08329625 32.50390625 3.37109375 C35.5584539 2.25078297 38.61265441 1.12953669 41.66650391 0.00732422 C44.62312321 -1.07832067 47.5810306 -2.16039851 50.5390625 -3.2421875 C51.43734772 -3.57354706 52.33563293 -3.90490662 53.26113892 -4.24630737 C59.11560228 -6.38543168 65.01057807 -8.27486086 71 -10 C71 -9.34 71 -8.68 71 -8 C69.97044189 -7.61368408 68.94088379 -7.22736816 67.88012695 -6.8293457 C45.911767 1.43259491 24.24725184 10.00886355 3 20 C1.36587158 20.76739502 1.36587158 20.76739502 -0.30126953 21.55029297 C-7.56333844 24.9744448 -14.79025176 28.46717533 -22 32 C-22.94423828 32.46116211 -23.88847656 32.92232422 -24.86132812 33.39746094 C-37.77076216 39.71761123 -50.45502352 46.38791162 -63.02636719 53.35498047 C-66.18215806 55.1007702 -69.34470255 56.83391643 -72.5078125 58.56640625 C-104.5552686 76.17375372 -136.81832548 94.85946911 -166 117 C-166.66 116.67 -167.32 116.34 -168 116 C-159.34069526 108.46759108 -150.42325091 101.41404741 -141.18164062 94.61083984 C-138.91052757 92.93393698 -136.6500182 91.24343544 -134.390625 89.55078125 C-106.17850011 68.47827695 -75.72739901 48.91930288 -43.76367188 33.95288086 C-41.48892648 32.72387598 -40.41832115 31.12748172 -39 29 C-38.16952148 29.30345337 -38.16952148 29.30345337 -37.32226562 29.61303711 C-34.27822228 30.12027099 -32.68432889 29.37065374 -29.84375 28.19140625 C-28.82982178 27.77745605 -27.81589355 27.36350586 -26.77124023 26.93701172 C-25.69173096 26.48342285 -24.61222168 26.02983398 -23.5 25.5625 C-21.25136585 24.63916762 -19.00266696 23.71599286 -16.75390625 22.79296875 C-15.6261377 22.32552246 -14.49836914 21.85807617 -13.33642578 21.37646484 C-8.38661785 19.33438837 -3.41263283 17.35436865 1.5625 15.375 C3.20977439 14.71649338 4.85692444 14.05767554 6.50390625 13.3984375 C8.23447266 12.70621094 8.23447266 12.70621094 10 12 C-17.83743901 -11.4420539 -63.04597982 -26.90018237 -99 -29 C-99 -29.33 -99 -29.66 -99 -30 C-68.05727477 -37.44917459 -24.98035438 -17.2228239 0 0 Z " fill="#1C1C1C" transform="translate(370,858)"/>
<path d="M0 0 C0.66 0 1.32 0 2 0 C8.64568599 11.39036015 14.4918429 23.02008386 20 35 C20.38091797 34.16855469 20.38091797 34.16855469 20.76953125 33.3203125 C21.28580078 32.23363281 21.28580078 32.23363281 21.8125 31.125 C22.14894531 30.40570313 22.48539063 29.68640625 22.83203125 28.9453125 C24 27 24 27 27 25 C31.30511817 25.08122864 33.6291517 25.75752227 37.25 28.125 C41.61911645 32.69271265 43.15020506 36.88791958 43.4375 43.125 C43.31571847 46.46384372 43.01527704 47.97066808 41.4375 51 C38.43703294 53.46192169 35.76751033 54.20302666 32 55 C33.65 55.66 35.3 56.32 37 57 C33.90645403 57.99435406 32.09720845 57.87840996 29 57 C29.30292969 57.79172607 29.60585938 58.58345215 29.91796875 59.39916992 C31.0427535 62.35064836 32.16006684 65.30481794 33.27246094 68.26098633 C33.75452961 69.53749771 34.23952181 70.81290914 34.72753906 72.0871582 C35.43029335 73.92364159 36.12152735 75.76452019 36.8125 77.60546875 C37.44091797 79.26292114 37.44091797 79.26292114 38.08203125 80.95385742 C38.95127137 83.83830131 39.19434336 86.01440017 39 89 C36.87506859 89.02693575 34.75004088 89.04636628 32.625 89.0625 C30.84996094 89.07990234 30.84996094 89.07990234 29.0390625 89.09765625 C26 89 26 89 24 88 C24.18699463 88.52956299 24.37398926 89.05912598 24.56665039 89.60473633 C25.40800834 92.00414506 26.23537426 94.40815002 27.0625 96.8125 C27.35705078 97.64587891 27.65160156 98.47925781 27.95507812 99.33789062 C28.22900391 100.14033203 28.50292969 100.94277344 28.78515625 101.76953125 C29.04176025 102.50792236 29.29836426 103.24631348 29.56274414 104.00708008 C30 106 30 106 29 109 C24.43602621 111.7864261 19.32093828 113.55658848 14 114 C13.33484375 114.06316406 12.6696875 114.12632812 11.984375 114.19140625 C4.05739517 114.6210153 -3.61227906 111.68432869 -10 107 C-10 106.34 -10 105.68 -10 105 C-9.20078125 105.2165625 -8.4015625 105.433125 -7.578125 105.65625 C3.6060664 108.49167881 12.84733441 108.69260735 24 106 C23.75765625 105.34402832 23.5153125 104.68805664 23.265625 104.01220703 C22.17375009 101.05102128 21.0868172 98.08804555 20 95.125 C19.6184375 94.09246094 19.236875 93.05992187 18.84375 91.99609375 C18.4828125 91.00996094 18.121875 90.02382813 17.75 89.0078125 C17.41484375 88.09660645 17.0796875 87.18540039 16.734375 86.24658203 C16 84 16 84 16 82 C17.74991334 81.97284617 19.49994945 81.95353449 21.25 81.9375 C22.22453125 81.92589844 23.1990625 81.91429687 24.203125 81.90234375 C26.67486245 81.98864743 28.63346464 82.3596173 31 83 C26.35550227 69.23671918 21.16579598 55.80994255 15.5 42.4375 C11.15339227 32.15725827 6.8624394 21.87222309 2.96875 11.41015625 C2.66763306 10.60799179 2.36651611 9.80582733 2.05627441 8.97935486 C0.91583689 5.8666186 0 3.34218003 0 0 Z " fill="#090909" transform="translate(568,214)"/>
<path d="M0 0 C0.66 0 1.32 0 2 0 C3.078125 1.38256836 3.078125 1.38256836 4.25 3.33984375 C4.68787842 4.06349121 5.12575684 4.78713867 5.5769043 5.53271484 C6.04652588 6.32629395 6.51614746 7.11987305 7 7.9375 C7.49346924 8.75943848 7.98693848 9.58137695 8.49536133 10.42822266 C10.0045647 12.94767124 11.50308683 15.47323475 13 18 C13.79538815 19.33214159 14.59094735 20.66418107 15.38671875 21.99609375 C20.97310728 31.3900847 26.37585277 40.88971649 31.78860474 50.38433838 C38.21813942 61.66121671 44.73638716 72.88430984 51.29541016 84.08642578 C52.99540158 86.99214013 54.69175671 89.89994313 56.38671875 92.80859375 C56.95003906 93.77522949 57.51335938 94.74186523 58.09375 95.73779297 C59.24104617 97.70677483 60.38818118 99.6758506 61.53515625 101.64501953 C64.75439552 107.16690911 67.98806638 112.67990569 71.23828125 118.18359375 C99 165.23045468 99 165.23045468 99 170 C95.756773 168.91892433 95.36615811 168.50920817 93.50390625 165.8515625 C92.79923218 164.85346558 92.79923218 164.85346558 92.08032227 163.83520508 C91.32900024 162.74115356 91.32900024 162.74115356 90.5625 161.625 C90.03390381 160.86405029 89.50530762 160.10310059 88.96069336 159.3190918 C78.20051056 143.69443293 68.5421227 127.38644424 59 111 C58.40815918 109.98518555 57.81631836 108.97037109 57.20654297 107.92480469 C43.53003879 84.44298559 30.33442045 60.69645283 17.48144531 36.75439453 C16.05475764 34.10180878 14.61768655 31.45505923 13.1796875 28.80859375 C8.11043576 19.41068857 3.68809846 10.02982875 0 0 Z " fill="#1A1A1A" transform="translate(460,854)"/>
<path d="M0 0 C9.35291291 1.51913091 9.35291291 1.51913091 13.95043945 2.31445312 C19.3242139 3.24402197 24.67592942 4.10513993 30.09375 4.734375 C43.77250212 6.49831875 43.77250212 6.49831875 47.2734375 10.78125 C48.5625 14 48.5625 14 49.25390625 17.125 C50.32511141 21.25278534 52.25363365 22.89915753 55.81567383 25.14453125 C58.06711983 26.4647509 60.34186232 27.73541184 62.625 29 C69.47443631 32.87775122 76.14690388 36.93277214 82.6875 41.3125 C83.40437988 41.79138672 84.12125977 42.27027344 84.85986328 42.76367188 C89.68838255 46.02706933 94.36756187 49.46457535 99 53 C98.01 53.495 98.01 53.495 97 54 C94.82714844 53.1105957 94.82714844 53.1105957 92.109375 51.67578125 C91.10148926 51.14799072 90.09360352 50.6202002 89.05517578 50.07641602 C87.96446777 49.49432373 86.87375977 48.91223145 85.75 48.3125 C84.62190918 47.71816162 83.49381836 47.12382324 82.33154297 46.51147461 C74.33012791 42.28173822 66.38088437 37.95852112 58.45410156 33.59082031 C52.34084785 30.23542542 46.16940845 27.01211074 39.96191406 23.8347168 C29.95294904 18.71094549 20.06607207 13.45623518 10.375 7.75 C8.97024414 6.92640991 8.97024414 6.92640991 7.53710938 6.08618164 C1.12844882 2.25689764 1.12844882 2.25689764 0 0 Z " fill="#1C1C1C" transform="translate(752,904)"/>
<path d="M0 0 C0.66 0 1.32 0 2 0 C0.75596243 6.88566473 -0.9314363 13.49527015 -3.0390625 20.1640625 C-3.32478119 21.08214691 -3.61049988 22.00023132 -3.90487671 22.94613647 C-4.80684739 25.84059552 -5.71579084 28.73280758 -6.625 31.625 C-7.2426525 33.60271942 -7.85984426 35.5805828 -8.4765625 37.55859375 C-9.97905932 42.37407468 -11.48780795 47.18755527 -13 52 C-12.39671875 50.89140625 -11.7934375 49.7828125 -11.171875 48.640625 C-10.36494178 47.17688567 -9.55763014 45.71335492 -8.75 44.25 C-8.15638672 43.15558594 -8.15638672 43.15558594 -7.55078125 42.0390625 C-5.40153795 38.16337787 -3.38635101 34.95140685 0 32 C-0.92283261 37.40270062 -3.07741947 41.84035958 -5.4375 46.75 C-5.88053467 47.68086426 -6.32356934 48.61172852 -6.7800293 49.57080078 C-10.0239384 56.27148442 -13.66841155 62.60756187 -17.58618164 68.93066406 C-21.1060091 74.77665671 -23.11319329 80.64472445 -24.8671875 87.21875 C-26 90 -26 90 -27.9296875 90.93359375 C-30.71435563 91.02291329 -33.27774726 90.55682442 -36 90 C-35.54133545 89.4320874 -35.0826709 88.8641748 -34.61010742 88.27905273 C-33.02011628 86.02847392 -32.14462227 84.12419701 -31.23828125 81.53515625 C-30.92842285 80.66407227 -30.61856445 79.79298828 -30.29931641 78.89550781 C-29.97366699 77.96061523 -29.64801758 77.02572266 -29.3125 76.0625 C-28.59900194 74.05811422 -27.88412529 72.05421871 -27.16796875 70.05078125 C-26.80622559 69.03580566 -26.44448242 68.02083008 -26.07177734 66.97509766 C-24.47623908 62.54611604 -22.80881207 58.14605262 -21.125 53.75 C-20.80128418 52.90477783 -20.47756836 52.05955566 -20.14404297 51.1887207 C-19.46306308 49.41332064 -18.78140432 47.63818085 -18.09912109 45.86328125 C-16.90165579 42.74380699 -15.71045062 39.62197884 -14.51953125 36.5 C-9.84301612 24.26270511 -5.07936427 12.07610447 0 0 Z " fill="#1A1A1A" transform="translate(423,629)"/>
<path d="M0 0 C0.96284912 0.00088623 1.92569824 0.00177246 2.91772461 0.00268555 C12.60686489 0.16301823 21.03436567 1.95238421 29.25 7.375 C29.25 7.705 29.25 8.035 29.25 8.375 C24.50489153 8.64359105 20.89440736 8.36284199 16.375 6.875 C-0.1226502 2.09936442 -17.52715175 5.92049596 -32.31689453 13.95898438 C-49.95423367 24.23461098 -58.33553839 40.01237592 -65.75 58.375 C-66.74 58.375 -67.73 58.375 -68.75 58.375 C-67.62900547 41.27983345 -58.92142714 27.91760956 -46.37792969 16.73242188 C-33.12316099 5.68015523 -17.09898982 -0.02838131 0 0 Z " fill="#1A2E35" transform="translate(498.75,84.625)"/>
<path d="M0 0 C16.74464983 -0.98659148 28.95860823 4.20574462 41.75 14.75 C51.83909418 24.11715541 57.45327574 37.04331003 58.203125 50.69921875 C58.39996333 67.44687959 54.13634068 81.39930094 42.3046875 93.80859375 C39.07569701 96.87887114 35.70920522 99.53799479 32 102 C31.05125 102.639375 30.1025 103.27875 29.125 103.9375 C28.42375 104.288125 27.7225 104.63875 27 105 C26.34 104.67 25.68 104.34 25 104 C26.56089026 102.58155991 28.1237889 101.16532975 29.6875 99.75 C30.99267578 98.56664062 30.99267578 98.56664062 32.32421875 97.359375 C34.04161076 95.84506146 35.80287077 94.3783452 37.61328125 92.9765625 C47.87569466 84.47773896 51.99779591 70.65805501 53.203125 57.83984375 C53.57385012 42.79458276 48.03957814 29.10030738 38 18 C27.55098731 8.94521041 13.74306068 2.764759 0 1 C0 0.67 0 0.34 0 0 Z " fill="#1A2E35" transform="translate(588,76)"/>
<path d="M0 0 C6.52195962 -0.32378523 12.56288289 0.88218474 18.9375 2.1875 C20.0527002 2.41526123 21.16790039 2.64302246 22.31689453 2.87768555 C55.9391996 9.93442893 84.3275687 25.49446586 110 48 C110.5067627 48.43828125 111.01352539 48.8765625 111.53564453 49.328125 C117.83414818 54.7754795 117.83414818 54.7754795 120 57 C120 57.66 120 58.32 120 59 C117.31267802 57.73020279 114.98570213 56.34893605 112.63671875 54.53125 C112.00507813 54.04760986 111.3734375 53.56396973 110.72265625 53.06567383 C110.05105469 52.54900146 109.37945312 52.0323291 108.6875 51.5 C86.77297015 34.89164566 63.34614673 21.40649684 37.18115234 12.7265625 C34.93453617 11.97819338 32.69557865 11.20964357 30.45703125 10.4375 C21.99225959 7.53997471 13.53812384 4.9772353 4.84375 2.859375 C2 2 2 2 0 0 Z " fill="#293C42" transform="translate(332,741)"/>
<path d="M0 0 C4.15153761 0.741346 5.64242788 1.53573284 8.5 4.625 C12.77837918 11.7844426 14.41691998 18.26554771 13.5 26.625 C12.42541961 29.09325015 11.2812683 30.56540853 9.5 32.625 C8.84 32.295 8.18 31.965 7.5 31.625 C8.16 30.305 8.82 28.985 9.5 27.625 C8.51 28.285 7.52 28.945 6.5 29.625 C2.39718145 30.26321622 0.83662976 29.84281926 -2.6875 27.5625 C-7.43937452 23.08501193 -8.67327151 18.39931315 -9 12.0625 C-8.88527948 8.44132183 -8.57065819 5.90843319 -6.4375 2.9375 C-3.5 0.625 -3.5 0.625 0 0 Z " fill="#070707" transform="translate(526.5,260.375)"/>
<path d="M0 0 C36.98120102 -1.01532336 72.27795611 14.05797295 102 35 C102.73669922 35.5170752 103.47339844 36.03415039 104.23242188 36.56689453 C106.70277601 38.30692179 109.16523758 40.05753639 111.625 41.8125 C112.42019043 42.37614258 113.21538086 42.93978516 114.03466797 43.52050781 C114.77861816 44.05643555 115.52256836 44.59236328 116.2890625 45.14453125 C116.95631348 45.62253174 117.62356445 46.10053223 118.31103516 46.59301758 C120 48 120 48 122 51 C118.34964404 49.64410674 115.16010993 47.99357699 111.8515625 45.9453125 C110.85793701 45.33631104 109.86431152 44.72730957 108.84057617 44.09985352 C107.77943604 43.44815186 106.7182959 42.7964502 105.625 42.125 C71.97911992 21.74743481 38.3860271 9.34841623 0 1 C0 0.67 0 0.34 0 0 Z " fill="#2A3D43" transform="translate(303,787)"/>
<path d="M0 0 C6.76922023 3.29234671 6.76922023 3.29234671 8.09765625 5.94921875 C8.47265625 8.82421875 8.47265625 8.82421875 8.09765625 11.94921875 C5.89174634 14.56432731 4.10445538 15.80291251 0.68847656 16.29931641 C-2.20618018 16.41594528 -5.068836 16.39591145 -7.96484375 16.32421875 C-8.95806641 16.32292969 -9.95128906 16.32164062 -10.97460938 16.3203125 C-19.30744949 16.21930838 -19.30744949 16.21930838 -22.90234375 13.94921875 C-24.46664623 10.8206138 -24.25861659 8.3931895 -23.90234375 4.94921875 C-17.65610804 -1.65394472 -8.39592878 -3.03971042 0 0 Z " fill="#080808" transform="translate(598.90234375,207.05078125)"/>
<path d="M0 0 C2.9375 2 2.9375 2 5 4 C4.47888027 9.60203706 2.7195925 12.64316327 -1.54296875 16.3371582 C-3.28831114 17.71211687 -5.06900987 19.01839879 -6.875 20.3125 C-7.77412109 20.9940918 -7.77412109 20.9940918 -8.69140625 21.68945312 C-12.53923709 24.46473242 -15.09392715 25.70794702 -20 25 C-22.4375 23.4375 -22.4375 23.4375 -24 21 C-24 15.5384147 -22.39469099 12.19869676 -19 8 C-13.26914619 2.29637115 -8.39633569 -0.8996074 0 0 Z " fill="#050505" transform="translate(524,227)"/>
<path d="M0 0 C4.44308645 3.19464415 8.74368136 6.56192811 13 10 C12.01 10.99 12.01 10.99 11 12 C10.1234375 11.41734375 9.246875 10.8346875 8.34375 10.234375 C-23.15977803 -10.28962156 -61.09801461 -26.67127632 -99 -29 C-99 -29.33 -99 -29.66 -99 -30 C-67.90665683 -37.48543447 -25.16217432 -17.11496757 0 0 Z " fill="#2F4047" transform="translate(370,858)"/>
<path d="M0 0 C10.3201866 -0.76445827 19.08796969 3.54544896 27 10 C33.55860868 16.19908362 38.1049665 22.89682741 42 31 C42.49306641 31.95712891 42.49306641 31.95712891 42.99609375 32.93359375 C45.19946675 37.49847657 45.67218029 42.01487963 46 47 C41.1878703 45.06860101 38.59058798 41.27653781 35.31640625 37.41015625 C32.14666269 34.11212628 29.72554727 32.17465053 25.10546875 31.70703125 C23.66107422 31.75923828 23.66107422 31.75923828 22.1875 31.8125 C21.21167969 31.83957031 20.23585938 31.86664063 19.23046875 31.89453125 C18.49441406 31.92933594 17.75835937 31.96414063 17 32 C19.34189248 29.09605333 20.71245339 28.07454912 24.375 27.125 C28.14671567 26.99494084 30.49401572 27.72599444 34 29 C32.75153512 27.26972464 31.50115598 25.54083043 30.25 23.8125 C29.20585937 22.36810547 29.20585937 22.36810547 28.140625 20.89453125 C20.61807766 10.7226196 12.21605912 4.59156864 0 1 C0 0.67 0 0.34 0 0 Z " fill="#293C42" transform="translate(412,306)"/>
<path d="M0 0 C8.28763776 3.28491824 15.41083283 9.24053066 22.22265625 14.90234375 C22.76220947 15.34505615 23.3017627 15.78776855 23.85766602 16.24389648 C29.50738821 21.05668861 32.62134835 26.63293312 35.2734375 33.46875 C35.66803413 34.47034401 35.66803413 34.47034401 36.07060242 35.49217224 C36.6195838 36.89330199 37.16477086 38.29592389 37.70629883 39.69995117 C38.53641525 41.84309417 39.38764695 43.97704129 40.24023438 46.11132812 C40.77343964 47.47996135 41.30538505 48.84908622 41.8359375 50.21875 C42.21858513 51.16893761 42.21858513 51.16893761 42.60896301 52.13832092 C44.58748691 57.36620989 44.06828944 60.24782409 41.97265625 65.27734375 C39.35221364 69.76953108 35.70573538 73.58749627 31.22265625 76.27734375 C30.23265625 75.94734375 29.24265625 75.61734375 28.22265625 75.27734375 C30.0166132 73.4833868 31.81911426 71.71147333 33.66015625 69.96484375 C36.34072479 67.15351577 38.42701072 64.73050823 40.22265625 61.27734375 C39.68920062 54.4623722 37.30573757 48.53756413 34.83203125 42.22583008 C34.10321437 40.35411785 33.40094271 38.4738048 32.69921875 36.59179688 C28.68779685 26.28222218 23.6610674 19.75639376 14.91015625 13.15234375 C14.35473145 12.73275391 13.79930664 12.31316406 13.22705078 11.88085938 C9.06271993 8.7823776 4.75477251 6.00998161 0.24609375 3.43359375 C-1.47091273 2.45244719 -3.13191095 1.37429895 -4.77734375 0.27734375 C-2.77734375 -0.72265625 -2.77734375 -0.72265625 0 0 Z " fill="#1A1A1A" transform="translate(427.77734375,289.72265625)"/>
<path d="M0 0 C0 4.03736024 -1.3499418 4.87678861 -4.125 7.75 C-14.120157 17.47463281 -25.5916073 21.38438256 -39.4765625 21.2890625 C-47.44044179 20.63570655 -55.03688332 17.86164113 -62 14 C-62.33 13.34 -62.66 12.68 -63 12 C-61.39566191 12.47859241 -59.79153584 12.95789558 -58.1875 13.4375 C-57.29417969 13.70433594 -56.40085937 13.97117188 -55.48046875 14.24609375 C-53.64526945 14.80387873 -51.81966274 15.39344575 -50 16 C-30.58477991 17.81415576 -15.12185891 12.21880863 0 0 Z " fill="#E0E1E1" transform="translate(549,185)"/>
<path d="M0 0 C0.495 0.99 0.495 0.99 1 2 C-6.8717776 11.42699202 -15.55365552 20.58948704 -28.38671875 22.32226562 C-42.18494316 23.36822597 -52.15450085 21.51364723 -63.08984375 12.78125 C-65.00802438 10.99251714 -66.49923099 9.1452999 -68 7 C-64.34683329 8.24976756 -63.21934164 8.67098753 -61 12 C-57.81240736 13.43288082 -57.81240736 13.43288082 -54.125 14.625 C-52.27261719 15.26308594 -52.27261719 15.26308594 -50.3828125 15.9140625 C-37.12496461 20.170046 -25.22915606 18.15632409 -13.0546875 11.9296875 C-7.95738328 8.70965133 -3.99696725 4.47448103 0 0 Z " fill="#293B42" transform="translate(549,187)"/>
<path d="M0 0 C-5.8770275 3.91801833 -12.03402586 5.65603984 -18.8125 7.3125 C-28.3809672 9.730883 -37.68198444 12.76040319 -47 16 C-47.33 15.67 -47.66 15.34 -48 15 C-48.64066406 15.2165625 -49.28132813 15.433125 -49.94140625 15.65625 C-55.1738082 17.34059996 -59.5065595 18.35826786 -65 18 C-62.1684965 16.112331 -60.11190588 15.28520676 -56.8984375 14.30078125 C-55.86219238 13.98181885 -54.82594727 13.66285645 -53.75830078 13.33422852 C-52.64181152 12.99705811 -51.52532227 12.6598877 -50.375 12.3125 C-49.2288623 11.9630835 -48.08272461 11.61366699 -46.90185547 11.25366211 C-34.98960171 7.64775991 -23.01807719 4.23621577 -11 1 C-10.31534668 0.80849365 -9.63069336 0.6169873 -8.92529297 0.41967773 C-5.95713722 -0.22732452 -3.02431811 -0.05815996 0 0 Z " fill="#24373E" transform="translate(546,817)"/>
<path d="M0 0 C0 0.33 0 0.66 0 1 C-1.3190332 1.02505615 -2.63806641 1.0501123 -3.99707031 1.07592773 C-8.99208804 1.17163697 -13.98701802 1.27142601 -18.98193359 1.37231445 C-21.12481605 1.41505684 -23.26771955 1.4567601 -25.41064453 1.49731445 C-39.290724 1.76086027 -53.13933364 2.21312043 -67 3 C-66.67 2.34 -66.34 1.68 -66 1 C-44.94255311 -4.06570656 -21.27847342 -3.19891144 0 0 Z " fill="#2F4148" transform="translate(715,821)"/>
<path d="M0 0 C19.43707093 -1.25176128 38.93892383 3.08004745 57 10 C57.33 9.34 57.66 8.68 58 8 C58 9.32 58 10.64 58 12 C51.9861445 11.10381761 46.05266211 10.0387075 40.13574219 8.63085938 C26.90638272 5.49743084 13.46574056 3.79005998 0 2 C0 1.34 0 0.68 0 0 Z " fill="#304249" transform="translate(731,872)"/>
<path d="M0 0 C0 0.66 0 1.32 0 2 C-1.66216553 2.63446045 -1.66216553 2.63446045 -3.35791016 3.28173828 C-7.53755243 4.87800744 -11.71574805 6.47803497 -15.89355469 8.07910156 C-17.6890712 8.76662326 -19.48495924 9.45317562 -21.28125 10.13867188 C-31.95364016 14.21228508 -42.54796481 18.38631288 -53 23 C-53.33 21.68 -53.66 20.36 -54 19 C-53.46652954 18.80621262 -52.93305908 18.61242523 -52.38342285 18.4127655 C-46.80231058 16.38529032 -41.22140851 14.35723736 -35.640625 12.32885742 C-33.56125117 11.57317702 -31.48182482 10.81764112 -29.40234375 10.06225586 C-26.40350556 8.97287906 -23.40486022 7.88297289 -20.40625 6.79296875 C-19.48509399 6.45847214 -18.56393799 6.12397552 -17.61486816 5.77934265 C-16.73455933 5.45923721 -15.85425049 5.13913177 -14.94726562 4.80932617 C-14.11171143 4.5057016 -13.27615723 4.20207703 -12.4152832 3.88925171 C-10.09337382 3.03437809 -7.7841026 2.15068906 -5.47460938 1.26293945 C-2 0 -2 0 0 0 Z " fill="#2F2F2F" transform="translate(441,848)"/>
<path d="M0 0 C-2.57923366 3.15842999 -5.35531286 3.99251691 -9.1875 5.1875 C-10.81751953 5.70376953 -10.81751953 5.70376953 -12.48046875 6.23046875 C-13.31191406 6.48441406 -14.14335937 6.73835937 -15 7 C-15.33 6.67 -15.66 6.34 -16 6 C-16.64066406 6.2165625 -17.28132813 6.433125 -17.94140625 6.65625 C-23.1738082 8.34059996 -27.5065595 9.35826786 -33 9 C-28.15848761 5.77232507 -22.5927274 4.51891912 -17.0625 2.8125 C-15.86947266 2.43158203 -14.67644531 2.05066406 -13.44726562 1.65820312 C-12.30064453 1.30306641 -11.15402344 0.94792969 -9.97265625 0.58203125 C-8.92343994 0.25436768 -7.87422363 -0.0732959 -6.79321289 -0.41088867 C-4.0296573 -0.99374503 -2.61368736 -0.96223549 0 0 Z " fill="#2C3D43" transform="translate(514,826)"/>
<path d="M0 0 C0.33 0.99 0.66 1.98 1 3 C-2.41055213 6.64576262 -4.371355 7.85194136 -9.4375 8.3125 C-13 8 -13 8 -15.4375 6 C-15.953125 5.34 -16.46875 4.68 -17 4 C-16.67 3.34 -16.34 2.68 -16 2 C-15.505 2.350625 -15.01 2.70125 -14.5 3.0625 C-10.85899942 4.42787522 -7.72656725 3.96218745 -4 3 C-1.56111818 1.59394927 -1.56111818 1.59394927 0 0 Z " fill="#151515" transform="translate(573,347)"/>
<path d="M0 0 C-3.24863429 2.16575619 -6.60622857 3.62352411 -10.1875 5.125 C-10.84169922 5.40214844 -11.49589844 5.67929687 -12.16992188 5.96484375 C-13.77879012 6.64597045 -15.38924215 7.32335403 -17 8 C-17.33 6.68 -17.66 5.36 -18 4 C-15.75438718 3.13237686 -13.50473745 2.2807897 -11.25 1.4375 C-10.61578125 1.19064453 -9.9815625 0.94378906 -9.328125 0.68945312 C-5.88990821 -0.58197079 -3.47831118 -1.46686355 0 0 Z " fill="#2B2B2B" transform="translate(405,863)"/>
<path d="M0 0 C2.29925558 2.85743964 3.84118536 5.60803477 5.26171875 8.984375 C5.65810547 9.91894531 6.05449219 10.85351562 6.46289062 11.81640625 C6.86701172 12.78449219 7.27113281 13.75257813 7.6875 14.75 C8.10322266 15.73355469 8.51894531 16.71710937 8.94726562 17.73046875 C9.96978821 20.15161419 10.9871664 22.57478916 12 25 C11.01 25.33 10.02 25.66 9 26 C7.49172203 22.23242503 5.99481006 18.46043651 4.5 14.6875 C4.07074219 13.61564453 3.64148438 12.54378906 3.19921875 11.43945312 C2.59013672 9.89741211 2.59013672 9.89741211 1.96875 8.32421875 C1.40317383 6.9024231 1.40317383 6.9024231 0.82617188 5.4519043 C0 3 0 3 0 0 Z " fill="#151515" transform="translate(659,611)"/>
<path d="M0 0 C2.24993359 -0.02707139 4.49996095 -0.04642829 6.75 -0.0625 C8.00296875 -0.07410156 9.2559375 -0.08570313 10.546875 -0.09765625 C13.28536501 -0.02021027 15.41880293 0.17219185 18 1 C18 1.66 18 2.32 18 3 C11.88514973 3.09706112 6.06696699 2.77040851 0 2 C0 1.34 0 0.68 0 0 Z " fill="#4B5B60" transform="translate(731,872)"/>
<path d="M0 0 C1.78016355 2.67024533 2.97163019 5.05030861 4.1875 8 C4.55230469 8.86625 4.91710937 9.7325 5.29296875 10.625 C6 13 6 13 5 16 C4.34 16 3.68 16 3 16 C2.29695778 14.27709395 1.61316509 12.54632534 0.9375 10.8125 C0.55464844 9.84957031 0.17179687 8.88664062 -0.22265625 7.89453125 C-1.05622133 4.79065325 -0.88679818 3.05080883 0 0 Z " fill="#212121" transform="translate(466,334)"/>
<path d="M0 0 C3.65316671 1.24976756 4.78065836 1.67098753 7 5 C9.4060889 6.22844823 9.4060889 6.22844823 12.125 7.1875 C13.03507812 7.53167969 13.94515625 7.87585938 14.8828125 8.23046875 C15.58148438 8.48441406 16.28015625 8.73835937 17 9 C16.67 9.99 16.34 10.98 16 12 C9.43186037 9.94745637 3.90421514 5.60169999 0 0 Z " fill="#405056" transform="translate(481,194)"/>
<path d="M0 0 C1.60433809 0.47859241 3.20846416 0.95789558 4.8125 1.4375 C6.15248047 1.83775391 6.15248047 1.83775391 7.51953125 2.24609375 C9.35473055 2.80387873 11.18033726 3.39344575 13 4 C13.33 3.34 13.66 2.68 14 2 C14 3.32 14 4.64 14 6 C12.08210287 5.71653722 10.16570817 5.4228972 8.25 5.125 C7.18265625 4.96257813 6.1153125 4.80015625 5.015625 4.6328125 C2.32291129 4.06776118 0.36427561 3.36577086 -2 2 C-1.34 2 -0.68 2 0 2 C0 1.34 0 0.68 0 0 Z " fill="#556368" transform="translate(775,878)"/>
<path d="M0 0 C-4.05808065 2.7053871 -8.04889399 5 -13 5 C-13 4.34 -13 3.68 -13 3 C-13.66 2.67 -14.32 2.34 -15 2 C-9.77487721 0.53329887 -5.4185766 -0.22577402 0 0 Z " fill="#3C4D53" transform="translate(546,817)"/>
<path d="M0 0 C-5.68959411 3.0636276 -10.51090534 4.25956379 -17 4 C-11.6013038 0.4008692 -6.3999927 -0.26122419 0 0 Z " fill="#2F2F2F" transform="translate(498,831)"/>
<path d="M0 0 C-1 2 -1 2 -2.5625 2.625 C-6.06398181 3.16368951 -9.45806833 3.05903219 -13 3 C-12.67 2.34 -12.34 1.68 -12 1 C-7.96960118 0.06269795 -4.12580711 -0.0982335 0 0 Z " fill="#4F5F64" transform="translate(661,821)"/>
<path d="M0 0 C6.625 -0.125 6.625 -0.125 10 1 C10.33 1.99 10.66 2.98 11 4 C9.53984709 3.71758359 8.08190207 3.42373386 6.625 3.125 C5.81289063 2.96257813 5.00078125 2.80015625 4.1640625 2.6328125 C2 2 2 2 0 0 Z " fill="#48585E" transform="translate(332,741)"/>
<path d="M0 0 C0 0.66 0 1.32 0 2 C-2.31 2.66 -4.62 3.32 -7 4 C-7 3.34 -7 2.68 -7 2 C-7.66 1.67 -8.32 1.34 -9 1 C-5.92677456 0.08941469 -3.19902639 -0.08886184 0 0 Z " fill="#2E4047" transform="translate(533,820)"/>
<path d="M0 0 C0.99 0.33 1.98 0.66 3 1 C3.33 3.31 3.66 5.62 4 8 C3.34 8 2.68 8 2 8 C0.74335022 5.09399739 0 3.20395416 0 0 Z " fill="#101010" transform="translate(462,328)"/>
<path d="M0 0 C3 2 3 2 5 4 C5.99 4.66 6.98 5.32 8 6 C4.28111761 5.49287967 1.26545761 4.88391785 -2 3 C-1 1 -1 1 0 0 Z " fill="#4E4E4E" transform="translate(597,266)"/>
<path d="M0 0 C-2.66559313 1.77706209 -5.0280615 2.87548273 -8 4 C-7.6875 2.0625 -7.6875 2.0625 -7 0 C-3.86650268 -1.04449911 -3.01031744 -0.93423645 0 0 Z " fill="#222222" transform="translate(405,863)"/>
<path d="M0 0 C2.4375 0.75 2.4375 0.75 5 2 C5.8125 4.125 5.8125 4.125 6 6 C4.02 5.01 2.04 4.02 0 3 C0 2.01 0 1.02 0 0 Z " fill="#131313" transform="translate(434,294)"/>
</svg>
