<?xml version="1.0" encoding="UTF-8"?>
<svg version="1.1" xmlns="http://www.w3.org/2000/svg" width="300" height="195">
<path d="M0 0 C5.84720043 4.8665571 5.84720043 4.8665571 7.578125 8.26953125 C7.32761822 12.89731433 4.0493273 15.54759199 0.9921875 18.82421875 C0.36763672 19.51708984 -0.25691406 20.20996094 -0.90039062 20.92382812 C-2.44403777 22.63244519 -4.00049868 24.32717192 -5.5703125 26.01171875 C-8.43554398 24.6223133 -10.7808886 23.14110581 -13.2578125 21.13671875 C-21.10715926 15.14719856 -29.64524698 12.10178065 -39.5703125 13.01171875 C-49.62934672 14.76499207 -57.86530484 19.03839665 -64.2890625 27.0859375 C-70.89710441 37.01814683 -72.22698167 48.66849329 -69.921875 60.27734375 C-66.81212326 70.64318287 -61.5122375 77.69766946 -51.9609375 82.859375 C-43.65927335 86.86099416 -34.286038 87.50127146 -25.34765625 85.171875 C-18.07219553 82.3837307 -12.35623944 78.17041025 -6.5703125 73.01171875 C-3.10982617 76.40447314 0.16918489 79.8784378 3.3046875 83.57421875 C4.10648437 84.50363281 4.90828125 85.43304688 5.734375 86.390625 C7.4296875 89.01171875 7.4296875 89.01171875 7.39453125 91.11328125 C2.62398644 100.49985929 -8.91986815 106.69236146 -18.5078125 109.94921875 C-35.99220092 114.03483056 -55.50294567 111.27797533 -70.86376953 102.13183594 C-84.49733603 93.18322319 -92.46681114 80.42000947 -96.11669922 64.65112305 C-99.11702098 47.19338433 -97.11267833 28.99525401 -87.6796875 13.8984375 C-77.65505054 0.17953618 -64.35218233 -8.08224276 -47.6953125 -11.23828125 C-30.04578638 -13.73371553 -14.25385161 -11.02615573 0 0 Z " fill="#004685" transform="translate(98.5703125,81.98828125)"/>
<path d="M0 0 C0 11.88 0 23.76 0 36 C8.25 36 16.5 36 25 36 C25 43.59 25 51.18 25 59 C16.75 59 8.5 59 0 59 C0.06295503 67.77996608 0.13839595 76.5595825 0.23571491 85.33923626 C0.28040899 89.41616012 0.31966707 93.49298427 0.34643555 97.57006836 C0.37247839 101.50599859 0.41288729 105.44154495 0.46318626 109.37723732 C0.47984843 110.8774519 0.49136678 112.37773286 0.49761391 113.87802696 C0.50726249 115.98248746 0.53532826 118.08596738 0.56762695 120.19018555 C0.58428154 121.98555 0.58428154 121.98555 0.60127258 123.81718445 C1.03769405 127.30089025 1.91016568 129.20537915 4 132 C7.99855223 133.99927612 12.65560585 133.51432374 17 133 C20.06965014 131.89430738 22.88814656 130.59005343 25.78515625 129.09375 C28 128 28 128 30 128 C28.44902163 146.99948507 28.44902163 146.99948507 23.4609375 152.78515625 C21.75 153.8125 21.75 153.8125 18 155 C16.1746875 155.61875 16.1746875 155.61875 14.3125 156.25 C5.91461537 158.05652169 -3.27832469 158.05495798 -11 154 C-18.95133635 148.64241508 -22.62442906 142.16059687 -24.59857178 132.87185669 C-25.49013739 126.4935093 -25.24025064 120.01757464 -25.1953125 113.58984375 C-25.19157592 112.01087118 -25.188732 110.43189627 -25.18673706 108.85292053 C-25.1791513 104.72491905 -25.15954711 100.59706141 -25.1373291 96.46911621 C-25.11676088 92.24570663 -25.10771201 88.0222735 -25.09765625 83.79882812 C-25.07629572 75.53247917 -25.04115567 67.26627413 -25 59 C-31.6 59 -38.2 59 -45 59 C-45 51.41 -45 43.82 -45 36 C-38.4 36 -31.8 36 -25 36 C-25 28.08 -25 20.16 -25 12 C-21.39992048 9.9923208 -17.79534615 7.99363247 -14.1875 6 C-12.65125977 5.14148437 -12.65125977 5.14148437 -11.08398438 4.265625 C-9.60961914 3.45351563 -9.60961914 3.45351563 -8.10546875 2.625 C-6.74651489 1.87089844 -6.74651489 1.87089844 -5.36010742 1.1015625 C-3 0 -3 0 0 0 Z " fill="#004585" transform="translate(210,36)"/>
<path d="M0 0 C1.02351562 0.45117188 2.04703125 0.90234375 3.1015625 1.3671875 C20.82861323 9.64604761 37.5250558 23.38083788 48 40 C48 40.66 48 41.32 48 42 C43.99860987 42.17423988 39.99871354 42.30060848 35.99438477 42.38452148 C34.6352692 42.41952778 33.27641353 42.46715338 31.91821289 42.52807617 C20.62903168 43.02143371 20.62903168 43.02143371 16.7175293 40.56884766 C14.99043399 38.80011553 13.50951065 36.95469989 12 35 C0.40995471 25.81149563 -12.71782624 18.93105474 -27 15 C-27.79792969 14.77441406 -28.59585938 14.54882812 -29.41796875 14.31640625 C-53.55629121 8.7519281 -78.82600571 14.67883942 -99.6875 27.25 C-102.81897693 29.24774514 -105.07603871 31.08631737 -107.54296875 33.88671875 C-112.95272016 39.89275266 -116.99575167 42.24681587 -125.27734375 42.703125 C-132.53511334 42.8031739 -139.75923211 42.5146783 -147 42 C-144.27773078 36.87230526 -141.30545242 32.76090634 -137.3125 28.5625 C-136.77995605 27.99756836 -136.24741211 27.43263672 -135.69873047 26.85058594 C-100.82904746 -9.76939375 -46.23432204 -21.05407342 0 0 Z " fill="#EE1B24" transform="translate(250,12)"/>
<path d="M0 0 C8.25 0 16.5 0 25 0 C25 39.27 25 78.54 25 119 C16.75 119 8.5 119 0 119 C0 79.73 0 40.46 0 0 Z " fill="#004585" transform="translate(258,72)"/>
<path d="M0 0 C8.25 0 16.5 0 25 0 C25 39.27 25 78.54 25 119 C16.75 119 8.5 119 0 119 C0 79.73 0 40.46 0 0 Z " fill="#004684" transform="translate(119,72)"/>
</svg>
