<?xml version="1.0" encoding="UTF-8"?>
<svg version="1.1" xmlns="http://www.w3.org/2000/svg" width="261" height="240">
<path d="M0 0 C0.99 0.33 1.98 0.66 3 1 C-1.8161977 7.06889559 -6.76700254 12.91173499 -12.0625 18.5625 C-16.99582292 23.83669322 -21.56535882 29.2969959 -26 35 C-27.39425486 36.73043967 -28.79009167 38.4596059 -30.1875 40.1875 C-30.84105469 41.01507813 -31.49460938 41.84265625 -32.16796875 42.6953125 C-33.2902468 44.10713351 -34.43415617 45.50248584 -35.61328125 46.8671875 C-38.90360434 50.88972334 -39.59187489 53.88835423 -39.30859375 58.91015625 C-38.92767732 61.48978017 -38.19525071 63.68420176 -37 66 C-31.80696676 62.26101607 -26.9452917 58.26180444 -22.125 54.0625 C-17.2196374 49.7909579 -12.24208412 45.87816936 -6.79296875 42.3046875 C-4.86393529 41.11127657 -4.86393529 41.11127657 -4 39 C-3.01 38.67 -2.02 38.34 -1 38 C-0.505 37.01 -0.505 37.01 0 36 C4.5 33 4.5 33 7 33 C7.33 32.01 7.66 31.02 8 30 C9.32 30 10.64 30 12 30 C12.37125 29.13375 12.37125 29.13375 12.75 28.25 C14.19393699 25.65091342 15.73521987 23.92163162 18 22 C18.99 22 19.98 22 21 22 C19.64891034 24.96325944 18.11293352 27.20785165 15.9375 29.625 C15.00357422 30.67107422 15.00357422 30.67107422 14.05078125 31.73828125 C12.65394247 33.27879488 11.25543709 34.81779861 9.85546875 36.35546875 C4.82756293 41.89409005 0.00955936 47.55338796 -4.68554688 53.37646484 C-6.1629702 55.20129121 -7.65126769 57.01693303 -9.140625 58.83203125 C-14.85366353 65.80505264 -20.54689972 72.77950911 -25.84765625 80.07421875 C-27.39596784 82.17891092 -28.9654713 84.19209578 -30.62109375 86.20703125 C-35.44906045 92.17321889 -35.44906045 92.17321889 -37.1171875 99.48828125 C-36.62349732 102.44694566 -35.98420805 105.16976441 -35 108 C-30.77044856 104.37101931 -26.64006503 100.66478718 -22.6003418 96.82470703 C-15.46442651 90.08178418 -7.86070231 84.22001064 0.05859375 78.43164062 C3.07409083 76.20793906 6.03733384 73.91833923 9 71.625 C10.03898437 70.82578125 11.07796875 70.0265625 12.1484375 69.203125 C13.93090507 67.82598568 15.70790944 66.4417118 17.4765625 65.046875 C18.18554688 64.49515625 18.89453125 63.9434375 19.625 63.375 C20.21539062 62.90835938 20.80578125 62.44171875 21.4140625 61.9609375 C23 61 23 61 26 61 C26 60.34 26 59.68 26 59 C26.94875 58.7525 27.8975 58.505 28.875 58.25 C32.43559968 56.82576013 32.51742659 56.28284113 34 53 C36.0625 52.375 36.0625 52.375 38 52 C38.495 51.01 38.495 51.01 39 50 C41.51189412 48.90575335 44.07108819 48.01502333 46.65234375 47.09765625 C49.30477045 46.10486973 49.30477045 46.10486973 51 43 C53.625 42.3125 53.625 42.3125 56 42 C56.33 41.01 56.66 40.02 57 39 C59.97 38.505 59.97 38.505 63 38 C63 37.34 63 36.68 63 36 C63.95261719 35.52949219 64.90523437 35.05898437 65.88671875 34.57421875 C67.15369961 33.94542084 68.42062369 33.31650852 69.6875 32.6875 C70.31333984 32.37876953 70.93917969 32.07003906 71.58398438 31.75195312 C74.39031564 30.35613391 77.11016287 28.93116763 79.76953125 27.26953125 C82 26 82 26 85 26 C91.85802271 48.68754683 89.92392592 72.87640032 78.9921875 94.05859375 C74.16392768 102.78228126 68.06816812 110.01660751 61 117 C60.35675781 117.65355469 59.71351563 118.30710937 59.05078125 118.98046875 C43.02738732 134.16967298 19.70706681 141.75233557 -2.1171875 141.1796875 C-27.08626271 139.62334948 -47.4401712 130.77267521 -65 113 C-65.99773437 112.01773438 -65.99773437 112.01773438 -67.015625 111.015625 C-75.3768776 102.2024128 -80.88142839 90.29389558 -85 79 C-85.350625 78.19820313 -85.70125 77.39640625 -86.0625 76.5703125 C-86.94517096 74.11750569 -87.34430393 72.58935424 -87 70 C-84.54962841 66.35308332 -81.38955436 63.75882763 -78 61 C-77.154375 60.29230469 -76.30875 59.58460937 -75.4375 58.85546875 C-73.6390521 57.37014348 -71.82845493 55.89944162 -70.0078125 54.44140625 C-66.67384115 51.73526068 -63.43136798 48.9376698 -60.1875 46.125 C-53.29984412 40.18399767 -46.20756004 34.5462894 -39 29 C-38.33597168 28.48824219 -37.67194336 27.97648437 -36.98779297 27.44921875 C-29.13032668 21.40020233 -21.23454186 15.40166844 -13.3125 9.4375 C-12.66555176 8.94902588 -12.01860352 8.46055176 -11.35205078 7.95727539 C-9.57712905 6.62527033 -7.79155846 5.30951103 -6 4 C-5.16734619 3.37569092 -5.16734619 3.37569092 -4.31787109 2.73876953 C-2.73046875 1.59765625 -2.73046875 1.59765625 0 0 Z " fill="#2E97DA" transform="translate(88,36)"/>
<path d="M0 0 C2.61078015 2.01027381 5.10708775 4.1153826 7.59545898 6.27661133 C8.71500977 7.2453418 8.71500977 7.2453418 9.85717773 8.23364258 C16.29746697 14.24373567 24.55098681 23.34057159 25.59545898 32.27661133 C22.81032029 34.70237729 20.05344167 36.60377823 16.78295898 38.27661133 C9.92506589 41.98941106 3.89636998 46.92694735 -2.27856445 51.6550293 C-5.02947555 53.7532782 -7.80036119 55.82406484 -10.57275391 57.89379883 C-18.23827395 63.6176837 -25.84760863 69.41010519 -33.40454102 75.27661133 C-33.96882813 75.71328125 -34.53311523 76.14995117 -35.11450195 76.59985352 C-42.18090883 82.07405271 -49.1118498 87.66654353 -55.90332031 93.47875977 C-59.94974657 96.92965997 -64.10108878 100.15449893 -68.40454102 103.27661133 C-68.73454102 102.28661133 -69.06454102 101.29661133 -69.40454102 100.27661133 C-67.93815166 98.03513046 -66.46376162 96.03068285 -64.77954102 93.96411133 C-64.3399707 93.40788086 -63.90040039 92.85165039 -63.44750977 92.27856445 C-62.11416841 90.59917996 -60.75981933 88.9383131 -59.40454102 87.27661133 C-58.94853516 86.69733887 -58.4925293 86.11806641 -58.02270508 85.52124023 C-56.86182276 84.06907113 -55.63786385 82.66778265 -54.40454102 81.27661133 C-53.74454102 81.27661133 -53.08454102 81.27661133 -52.40454102 81.27661133 C-52.40454102 80.28661133 -52.40454102 79.29661133 -52.40454102 78.27661133 C-50.93579102 76.80395508 -50.93579102 76.80395508 -48.90454102 75.21411133 C-45.79421441 72.60772265 -43.25201048 69.9929623 -40.77954102 66.77661133 C-36.57102246 61.31395424 -31.90093216 56.35612569 -27.15209961 51.36645508 C-26.5676709 50.7502832 -25.98324219 50.13411133 -25.38110352 49.49926758 C-24.85597168 48.95020752 -24.33083984 48.40114746 -23.78979492 47.83544922 C-22.19816471 46.11661319 -22.19816471 46.11661319 -20.40454102 43.27661133 C-19.74454102 43.27661133 -19.08454102 43.27661133 -18.40454102 43.27661133 C-18.17766602 42.76098633 -17.95079102 42.24536133 -17.71704102 41.71411133 C-16.40454102 39.27661133 -16.40454102 39.27661133 -13.71704102 36.40161133 C-9.74430915 31.11625168 -11.54402063 24.41953409 -12.40454102 18.27661133 C-20.3365135 23.3001939 -27.77689116 28.96923004 -35.2487793 34.64135742 C-37.36891615 36.24958807 -39.49389823 37.85124209 -41.61938477 39.45239258 C-49.84346111 45.67182653 -57.8976981 52.05311867 -65.78515625 58.69604492 C-69.18994859 61.54543387 -72.48938867 64.13693504 -76.40454102 66.27661133 C-74.95738033 61.57983832 -72.19391409 58.5989114 -68.84204102 55.15161133 C-65.01399447 51.11772509 -61.32230301 47.058134 -57.84204102 42.71411133 C-53.76066505 37.63276121 -49.41666432 32.85522428 -44.99047852 28.07739258 C-41.72417404 24.53971839 -38.49397298 20.97049738 -35.40454102 17.27661133 C-34.85411133 16.67848633 -34.30368164 16.08036133 -33.73657227 15.46411133 C-31.91754635 12.4768547 -32.04027017 10.24924049 -32.09204102 6.77661133 C-32.0959082 5.65254883 -32.09977539 4.52848633 -32.10375977 3.37036133 C-32.3880997 0.44572199 -32.88320694 -1.25046316 -34.40454102 -3.72338867 C-50.75624173 4.07808745 -65.99226104 16.89327706 -79.97094727 28.30395508 C-81.83930378 29.81843347 -83.71935488 31.30665228 -85.61938477 32.78051758 C-92.34996873 38.00421219 -98.92234385 43.35968612 -105.36450195 48.93579102 C-109.68950268 52.677973 -114.09314927 56.30922276 -118.53735352 59.90942383 C-120.72324593 61.71412519 -122.87927835 63.53865471 -125.02172852 65.39379883 C-125.95662109 66.20300781 -125.95662109 66.20300781 -126.91040039 67.02856445 C-128.12559496 68.08376476 -129.33799895 69.1421904 -130.54711914 70.2043457 C-133.68138821 72.92649634 -136.74727637 75.26306113 -140.40454102 77.27661133 C-141.16425935 57.86158726 -138.00783 43.20369497 -128.40454102 26.27661133 C-127.92114258 25.42454102 -127.43774414 24.5724707 -126.93969727 23.69458008 C-114.56168698 3.78212874 -93.95577144 -9.28528542 -71.40454102 -14.72338867 C-46.62392006 -19.38483371 -20.489855 -14.99689175 0 0 Z " fill="#2E97DA" transform="translate(140.404541015625,15.723388671875)"/>
<path d="M0 0 C7.63125 -0.061875 15.2625 -0.12375 23.125 -0.1875 C25.52410645 -0.21481201 27.92321289 -0.24212402 30.39501953 -0.27026367 C32.30761207 -0.27902979 34.22021023 -0.28667343 36.1328125 -0.29296875 C37.60899048 -0.3159906 37.60899048 -0.3159906 39.11499023 -0.33947754 C45.43660909 -0.3418812 49.98639627 0.27701634 54.86328125 4.68359375 C55.34152344 5.26238281 55.81976563 5.84117187 56.3125 6.4375 C57.04919922 7.30181641 57.04919922 7.30181641 57.80078125 8.18359375 C60.53149576 12.31969228 60.47166458 17.18727435 60 22 C58.65245501 28.20099094 56.19317858 31.42968973 51 35 C47.43072615 36.18975795 44.20053028 36.12478155 40.48828125 36.09765625 C39.76005661 36.0962413 39.03183197 36.09482635 38.28153992 36.09336853 C35.95848461 36.08777659 33.63552612 36.07522562 31.3125 36.0625 C29.73632952 36.05748396 28.16015752 36.05292123 26.58398438 36.04882812 C22.72261902 36.0378098 18.86132592 36.02055074 15 36 C15 40.62 15 45.24 15 50 C10.05 50 5.1 50 0 50 C0 33.5 0 17 0 0 Z M15 14 C15 16.97 15 19.94 15 23 C19.43744539 23.05793591 23.87479389 23.09357467 28.3125 23.125 C30.20645508 23.15013672 30.20645508 23.15013672 32.13867188 23.17578125 C33.34716797 23.18222656 34.55566406 23.18867188 35.80078125 23.1953125 C36.91622314 23.20578613 38.03166504 23.21625977 39.1809082 23.22705078 C42.20678201 23.21322653 42.20678201 23.21322653 45 21 C44.67 18.69 44.34 16.38 44 14 C34.43 14 24.86 14 15 14 Z " fill="#2E97DA" transform="translate(146,189)"/>
<path d="M0 0 C17.82 0 35.64 0 54 0 C54 4.62 54 9.24 54 14 C41.46 14 28.92 14 16 14 C16 16.97 16 19.94 16 23 C28.54 23 41.08 23 54 23 C54 27.29 54 31.58 54 36 C41.13 36 28.26 36 15 36 C15 40.62 15 45.24 15 50 C10.05 50 5.1 50 0 50 C0 33.5 0 17 0 0 Z " fill="#2E96DA" transform="translate(88,189)"/>
<path d="M0 0 C4.62 0 9.24 0 14 0 C14 12.21 14 24.42 14 37 C26.54 37 39.08 37 52 37 C52 41.29 52 45.58 52 50 C34.84 50 17.68 50 0 50 C0 33.5 0 17 0 0 Z " fill="#2F97D9" transform="translate(208,189)"/>
</svg>
