<svg xmlns="http://www.w3.org/2000/svg" width="1045" height="1185"><path fill="#FDFDFD" d="M18.79-.13h9.39l5.22-.01H47.9l15.7-.02 31.22-.01 37.37-.02A225501.86 225501.86 0 0 1 252.4-.24h2.13A4832536.06 4832536.06 0 0 0 408.98-.3h13.77a6111174.26 6111174.26 0 0 0 27.65 0c49.48-.01 98.95-.04 148.42-.07L705.45-.4h2.21a351858.61 351858.61 0 0 1 67.47 0h2.14c22.76-.01 45.53-.02 68.3-.05 23.56-.02 47.12-.02 70.68-.01 13.6 0 27.19 0 40.78-.03h42.73c4.7-.02 9.4-.02 14.1 0l5.1-.01c2.29-.02 4.58 0 6.87.01h3.86c3.9.59 5.52 1.76 8.31 4.5a39.06 39.06 0 0 1 3.25 5l1.52 2.56c2.27 4.48 2.36 8.34 2.36 13.34v9.2l.01 5.13V53.4l.02 15.39.01 30.57.02 36.6a216515.63 216515.63 0 0 1 .05 117.76v2.1a4677004.55 4677004.55 0 0 0 .05 151.33v11.23a2815371205.78 2815371205.78 0 0 0 0 29.35c.01 48.47.04 96.93.07 145.39a224064.74 224064.74 0 0 1 .06 172.74v2.1c0 22.3.01 44.6.04 66.9.02 23.08.02 46.16.01 69.24 0 13.32 0 26.63.03 39.94v41.86c.02 4.61.02 9.22 0 13.83l.01 4.97c.08 11.94-1.27 20.54-9.64 29.56-5.97 5.52-11.8 6.86-19.73 6.85h-13.98l-13.49-.02h-14.1l-26.68-.03-30.39-.02-62.5-.05.79 2.18 3.57 9.86 1.24 3.43a281.48 281.48 0 0 1 8.13 25.66c5.37 20.15 11.53 46.45.74 65.7-2.92 4.3-5.77 7.29-10.79 8.93-5.75.99-10.04-.06-15.09-2.9A73.19 73.19 0 0 1 827 1137l.48 3.32c.64 5.18.78 10.34.83 15.56l.09 2.81c.07 8.07-1.59 15-6.9 21.25L819 1182l-1.65 1.59c-5.33 3.2-13.35 2.38-19.35 1.41-13.32-5-21.47-18.64-29-30l-.08 2.71c-.47 9.96-1.54 18.89-9.03 26.05-3.73 2.45-7.8 2.21-12.14 2.12l-2.85-.05c-6.67-.32-10.99-1.43-15.8-6.32L727 1177l-2.42-2.57c-7.45-8.3-12.99-17.82-18.58-27.43l-.11 3.44c-.7 17.47-.7 17.47-6.08 24.37-4.64 3.61-9.1 5.54-15.06 5.25-10.85-1.77-19.24-8.46-26.75-16.06l-2.6-2.58c-12.3-12.71-21.7-28.1-30.4-43.42l-1.32-2.32a618.77 618.77 0 0 1-19.38-37.4c-5.3-10.93-5.3-10.93-5.3-13.28l-1.91.49c-4.17.69-8.26.71-12.47.75l-2.79.03c-20.26.17-39.94.08-59.83-4.27l-2.69-.58c-15.2-3.43-29.5-8.8-43.46-15.7A64.84 64.84 0 0 0 463 1041l-.94 1.94C461 1045 461 1045 460 1046c-2.62-.01-5.2-.1-7.81-.25l-2.46-.13c-4.89-.3-9.73-.71-14.58-1.34-19.48-2.5-38.7-2.7-58.31-2.65l-14.27-.01h-24.64c-11.88.01-23.76 0-35.64-.01-19.3-.03-38.6-.04-57.9-.04h-3.5a138085.34 138085.34 0 0 0-56.12 0c-19.26 0-38.52-.02-57.78-.05H91.43c-8.11.01-16.22 0-24.33-.01H53.07c-4.28.02-8.57.01-12.85 0h-4.64c-9.92.07-17.9-.85-26.4-6.32-6.59-6.6-9.43-12.9-9.43-22.36l-.01-2.13V998.48c-.02-4.74-.01-9.47 0-14.2l-.02-15.43-.01-27.05c0-13.41 0-26.82-.02-40.23a105735.05 105735.05 0 0 1-.02-84.42v-2.1l-.01-46.1-.01-18.99v-2.12a355009.26 355009.26 0 0 1-.02-158.6 234924.77 234924.77 0 0 0-.06-179.49v-2.24l-.03-68.54v-2.18a326670.46 326670.46 0 0 1 0-68.33c0-22.34 0-44.68-.03-67.02-.01-23.12-.02-46.24 0-69.36 0-13.34 0-26.67-.02-40.01v-26.7c.01-5.08.02-10.15 0-15.23-.02-4.62-.01-9.23 0-13.85v-4.98C-.58 21.04-.2 11.97 7.12 4l1.51-1.69C11.71-.65 14.67-.13 18.8-.13ZM12 12c-3.58 5.93-4.12 11.14-4.13 17.96v14.19l-.01 14.03v15.24c-.02 10.09-.02 20.17-.02 30.26l-.01 36.23a220819.14 220819.14 0 0 0-.04 128.98 699221.84 699221.84 0 0 0-.03 179.63c0 47.97-.02 95.94-.04 143.91l-.04 103.4v2.15a435921.56 435921.56 0 0 0 0 67.52c0 22.08-.01 44.15-.03 66.23-.01 22.84-.02 45.7-.01 68.54 0 13.18 0 26.36-.02 39.53v60.05c-.05 9.46.06 17.62 5.07 25.96 6.9 6.53 13.73 6.76 22.78 6.67l3.77.01c3.43 0 6.87 0 10.3-.03h11.14c6.43 0 12.85-.01 19.28-.04 9.3-.03 18.58-.04 27.87-.05 15.08 0 30.15-.03 45.23-.07l43.92-.08h2.74l13.59-.02c37.56-.04 75.13-.11 112.69-.2v-5l-2.92-.64c-75.63-16.62-75.63-16.62-104.54-38.48-2.55-1.89-5.17-3.61-7.85-5.32-7.2-5.02-10.62-11.12-12.69-19.56-2.28-15.36-.32-31.2 3.51-46.15.54-3.14.64-4.87-.51-7.85-2.44-2.33-2.44-2.33-5.5-4.5-10.28-8.07-17.15-18.47-19.5-31.5-1-9.83.24-19.58 4.75-28.44 1.56-3.19 1.2-4.2.25-7.56-.9-1.92-1.87-3.82-2.88-5.69-5.23-10.34-7.62-19.58-6.12-31.31 4.09-12.16 12.06-19.44 22-27l-1.64-2.78c-11.04-18.83-11.04-18.83-9.36-31.22 3.49-10.9 10.8-16.75 20.64-21.84L206 716l2-1-.44-2.05c-2.35-11.8-2.58-21.28 3.62-31.99 7.7-10.35 22.36-13.06 34.35-14.87 22.7-3.05 45.86-.98 68.47 1.91l1.1-1.81a1757.95 1757.95 0 0 1 26.94-43.38l1.65-2.62 1.32-2.08c1.15-2.15 1.15-2.15 1.26-4.9 1.04-4.58 3.63-7.18 6.67-10.65 15.17-18.04 28.88-38.08 26.89-62.69-.25-2.13-.56-4.25-.9-6.37l-.37-2.46c-1.67-10.46-3.92-20.82-6.13-31.17-7.27-34.13-2.78-65 12.17-96.36.85-1.81 1.63-3.66 2.4-5.51l-1-2c-23.92 33.41-32.86 72.58-26.86 113.14 6.97 47.88 6.97 47.88-1.14 65.86l-1.47 3.32c-6.07 12.36-14.55 21-26.53 27.68l2.16-1.84C344.8 593.1 354.34 579.17 356 562c.78-15.18-2.07-30.1-5.09-44.9-8.62-42.69-4.3-84.93 19.5-122.32a348.27 348.27 0 0 1 15.5-21.1C396.2 360.47 405.14 346.76 411 331l1.16-3.13c.8-2.72 1.01-4.3.65-7.06l-.32-2.64c-.37-2.37-.79-4.73-1.23-7.1-8.58-46.21 4.14-97.03 25.1-138.5a81.85 81.85 0 0 0 6.77-19.03c6.37-25.84 22.85-52.6 45.73-66.69 19.3-11.35 41.74-14.08 63.49-8.83 12.6 3.4 24.73 8.43 35.8 15.34a75.05 75.05 0 0 0 9.72 4.52c12.69 5.26 25.19 13.44 34.38 23.68 3.57 3.73 7.89 5.65 12.48 7.82A59.64 59.64 0 0 1 659 139l1.82 1.54c19.55 17.8 24.68 49.39 26.18 74.46a568.07 568.07 0 0 1 .19 19.31c0 10.67-.36 21.24-1.19 31.88-3.27 27.64-3.27 27.64 6 52.81l2.05 3.05A152.68 152.68 0 0 0 721 351l3.21 2.77a639.14 639.14 0 0 0 16.73 14.04c3.74 3.03 7.18 6.18 10.52 9.65 1.71 1.77 1.71 1.77 4.54 3.98 3.77 3.22 6.85 6.74 10 10.56l2.32 2.74c21.27 26.2 28.3 57.36 25.25 90.53-2.03 18.2-6.67 36.23-11.14 53.98-7.82 31.83-1.07 54.85 13.45 83.43A29.92 29.92 0 0 1 798 628c-18.15-22.13-30.2-46.83-28-76 1.46-13.48 4.13-26.8 6.62-40.12 6.79-36.27 7.52-71.92-13.88-103.75-8.61-12.07-19.24-22.71-29.74-33.13l-2 1 2.09 2.57A218.03 218.03 0 0 1 751 404l1.05 1.77a146.3 146.3 0 0 1 19.26 87.67l-.24 2.76c-.6 6.11-1.4 12.18-2.32 18.25-5.46 35.86-5.46 35.86-.75 71.55l.55 1.96c5.9 20.15 16.9 37.44 29.45 54.04l-30 1c3.25 8.14 3.25 8.14 6.7 16.17C808.8 736.08 834.94 818.72 841 903l.18 2.35c2.08 28.9 1.59 58.53-3.3 87.13l-.4 2.36-.35 2.01c-.32 5.32 1.34 9.64 3.56 14.39l1.61 3.48 1.7 3.6 1.7 3.64c2.12 5.36 2.12 5.36 5.3 10.04 2.19.1 4.38.14 6.57.14h2.1a10941 10941 0 0 1 12.06.03 7169.67 7169.67 0 0 0 22.25.04l26.74.03c10.3 0 20.6.02 30.9.05l23.85.03 14.26.03c4.47.01 8.94.02 13.42 0l4.92.02h10.52c5.76-.63 9.55-2.99 13.22-7.37l1.77-2.06c2.76-3.77 2.55-7.19 2.55-11.7V1002.04l.01-5.11v-14.16l.02-15.37.01-30.52.02-36.53a215694.13 215694.13 0 0 0 .05-117.56v-2.09a4650569.82 4650569.82 0 0 1 .05-151.06v-11.21a2806405159.07 2806405159.07 0 0 1 0-29.3c.01-48.38.04-96.76.07-145.14a223293.55 223293.55 0 0 0 .06-174.52c0-22.26.01-44.52.04-66.79.02-23.04.02-46.08.01-69.12 0-13.3 0-26.59.03-39.88V51.9c.02-4.6.02-9.2 0-13.8l.01-4.96c.13-13.34.13-13.34-6.7-24.45-9.03-5.42-18.19-5.11-28.37-5.07l-5.1-.01H967.1c-8.9-.02-17.81-.02-26.72 0l-39.73-.01c-22.28-.02-44.56-.02-66.85 0H829.68a115162.84 115162.84 0 0 1-129.66-.01h-2.15a197621.69 197621.69 0 0 0-105.7.02A229219.9 229219.9 0 0 1 414.9 3.6h-2.22l-67.7-.01h-2.14a395913.76 395913.76 0 0 0-67.5 0h-66.19l-68.5.01h-39.5l-26.37.01H41.14C29.97 3.56 20.18 3.62 12 12Zm692 1132 1 2Z"/><path fill="#010101" d="M472 462c2.29 2.29 2.75 3.8 3.69 6.88l.82 2.61c.53 2.74.55 3.95-.51 6.51-1.64 2.3-1.64 2.3-3.81 4.88l-2.47 2.94-7.08 8.24A524.18 524.18 0 0 0 444 517l-1.88 2.44a865.5 865.5 0 0 0-27 36.63c-47.1 56.36-47.1 56.36-75.12 119.93l3.38 1.7c13.07 6.65 25.37 14.26 37.62 22.3l2.06 1.34c18.36 11.98 36.25 24.72 53.94 37.66l2.54 1.85 7.77 5.71 2.41 1.77 4.38 3.25a491.9 491.9 0 0 0 4.92 3.62c1.98 1.8 1.98 1.8 2.3 5.05L461 763a44.86 44.86 0 0 1-7.88-4.77l-2.26-1.67-2.42-1.81-2.55-1.9a5147 5147 0 0 1-10.27-7.62c-55.98-44-55.98-44-120.62-71.23l-2.06-.46c-13.25-2.82-26.59-2.8-40.06-2.79h-2.73c-27.8-.47-27.8-.47-52.15 11.25-5.1 5.36-6.28 10.05-6.25 17.38l-.02 3.83A42.19 42.19 0 0 0 214 714l3.06-.14c32.77-1.01 65.51 9.88 96.94 18.14v2l-3.45-.75a782.43 782.43 0 0 0-35.68-6.75l-5.4-.92c-10.89-1.84-21.79-3.6-32.7-5.3A213.1 213.1 0 0 1 216 716v2l-2.34.88c-10.32 4.06-19.1 9.25-24.8 19.08-2.44 5.76-1 11.35 1.2 16.98.94 2.04 1.92 4.06 2.94 6.06l1.47 2.92c2.94 5.06 2.94 5.06 7.9 7.74l2.72.25c8.78 1.2 16.96 4.07 25.35 6.84l2.6.85a965.26 965.26 0 0 1 42.13 14.93 1100.28 1100.28 0 0 1 8.76 3.33c3.42 1.33 6.26 2.76 9.07 5.14-7.94-1.52-15.5-4.05-23.15-6.6-15.03-4.99-30.15-9.65-45.35-14.09l-2.71-.79a3431.13 3431.13 0 0 0-9.92-2.88c-6.55-2.38-6.55-2.38-13.05-1.67-2.3 1.65-4.57 3.3-6.82 5.03l-2.11 1.54c-6.38 5.03-11.76 11.99-13.43 20.07A35.6 35.6 0 0 0 177 811l.41 2.5c1.33 5.93 3.69 11.44 6.22 16.94l.89 2.08c2.83 5.84 6.52 7.4 12.48 9.48l5.43 2.11 5.88 2.2 3.2 1.2c11.65 4.32 23.36 8.43 35.13 12.4a1448.18 1448.18 0 0 0 13.98 4.72l3.64 1.23 3.28 1.1C270 868 270 868 271 870a222.95 222.95 0 0 1-21.5-5.75l-3.7-1.15a1606.3 1606.3 0 0 1-34.8-11.48l-2.75-.92-7.81-2.66-2.36-.8c-4-1.38-7.53-2.88-11.08-5.24l-.59 1.76C184 851 184 851 182.93 853.74c-2.78 9.7-2.31 20.72 2 29.82 14.82 25.41 45 37.12 71.07 47.44l2.22.89c32.37 12.66 70.93 13.8 105.15 17.42l3.85.41c3.64.39 7.29.77 10.93 1.14l3.31.35c5.21.53 10.3.92 15.54.79a8777721.31 8777721.31 0 0 0 35.14-85.03c2.33-5.64 4.6-11.3 6.86-16.97 4.58 15.37-10.7 42.32-16.77 56.18-2.15 4.94-4.22 9.91-6.3 14.88-.61 1.5-.61 1.5-1.25 3.02-6.72 15.82-6.72 15.82-12.68 31.92l2.52.48 3.3.7 3.26.68c3.58 1.4 4.13 2.85 5.92 6.14l.6-2.61c3.91-17.27 7.88-34.53 11.96-51.76l.58-2.42c2.46-10.4 4.96-20.77 7.49-31.15a1828 1828 0 0 0 7.68-33.2c2.28-10.17 4.71-20.3 7.2-30.42a1750.1 1750.1 0 0 0 8.23-35.4A572.43 572.43 0 0 1 465 759l-2-1 1-3c48.26 7.42 95.73 18.73 143.13 30.31l3.76.92 10.74 2.63 3.2.78A354.77 354.77 0 0 1 647 796l-.61-2.33a356.02 356.02 0 0 1-5.2-24.3c-1.05-5.46-2.11-10.91-3.19-16.37l-.73-3.7c-2.62-13.04-5.59-24.63-12.13-36.22-2.26-4.13-4.25-8.4-6.26-12.64l-1.29-2.69A306.44 306.44 0 0 1 608 675h2l1.07 2.01c9.18 17.47 9.18 17.47 19.93 33.99-.74-6.4-1.76-12.72-2.88-19.06l-.54-3.1a628.74 628.74 0 0 0-3.02-16.09L623 665l-.62-3.07c-.7-3.53-1.38-7.08-2.07-10.62l-.68-3.42a89.5 89.5 0 0 1-1.6-19.14c-.04-4.02-.81-7.72-1.72-11.63-1.9-8.83-3.47-17.7-4.93-26.62a1288839432.93 1288839432.93 0 0 1-3.3-20.04c-1.42-8.45-2.79-16.9-4.17-25.35a26806.67 26806.67 0 0 0-2.35-14.44l-.43-2.63c-2.27-13.95-2.27-13.95-2.2-18.98.02-.77.03-1.54.03-2.34L599 505l1.66-.85c15.73-8.1 31.18-16.5 45.88-26.37 5.62-3.72 5.62-3.72 8.46-3.78 1.9 1.37 1.9 1.37 3.81 3.44l2.12 2.26L663 482l1.76 1.93c1.78 2 3.51 4.03 5.24 6.07l1.91 2.25C691.57 515.8 708.63 541.49 724 568l1.46 2.49c10.7 18.27 20.44 37.06 29.82 56.04 1.16 2.34 2.34 4.68 3.54 7 .55 1.08 1.1 2.17 1.68 3.28l1.47 2.83C763 642 763 642 763 645c-12.57 3.89-24.9 6.95-37.94 8.71-3.76.53-7.49 1.2-11.22 1.86a157.96 157.96 0 0 1-24.3 1.56h-22.4c-10.76.01-21.5-.03-32.24-.58l-2.34-.11A31.33 31.33 0 0 1 624 655l1 4c14.21.81 28.39 1.19 42.63 1.19l9.51.03c19.95.06 39.61-1.08 59.17-5.16l3.88-.76c6.6-1.33 13.08-2.83 19.53-4.75C762 649 762 649 766 649c19.74 41.3 37.53 85.37 48 130-23.53 6.16-47.64 10.41-72 11l-3.17.08c-29.49.65-58.86-1.4-87.83-7.08v4a10165.94 10165.94 0 0 0 24 2.79c43.9 5.14 89.98 6.13 132.86-6.15 3.2-.65 5-.37 8.14.36 10.2 38.94 10.2 38.94 13 54l.5 2.6A537.94 537.94 0 0 1 836 886l.32 3.06c3.18 31.6 4.19 65.37-.82 96.82-.36 2.24-.69 4.48-1 6.72-.53 3.73-1.1 7.44-1.69 11.15l-.48 3.41c-1.17 6.7-2.81 10.33-8.26 14.52-32.62 20.78-87.26 11.96-124.07 9.32l-2.28-.16c-11.58-.83-23.15-1.78-34.72-2.84l-2.1-.2c-22.96-2.11-45.8-5.18-68.65-8.24l-2.14-.28c-27.13-3.63-54.22-7.6-81.24-12.03-10.42-1.72-10.42-1.72-20.87-3.25l4 2-2.81.19c-3.3.45-3.3.45-4.51 2.92L483 1012c-1.91 2.4-3.96 4.7-6 7a5173.6 5173.6 0 0 0-5.26 6c-3.17 3.65-6.29 7.35-9.4 11.05-3.25 3.86-3.25 3.86-4.34 4.95-8.29.57-16.63-.37-24.88-1.19l-1.99-.2C368.2 1033.37 298.4 1024.85 241 997l-2.07-1c-8.39-4.13-15.94-8.72-22.93-15l-1.99-1.7a34.65 34.65 0 0 1-11.45-24.11c.16-11.96 6.35-21.93 13.68-30.9 1.96-2.07 1.96-2.07 1.76-4.29-1.86 0-1.86 0-4 1a70.24 70.24 0 0 0-4.56 6.63l-1.17 1.83A78.04 78.04 0 0 0 202 942c-1.08-3.32-.9-5.66-.22-9.06l.55-2.92.6-3.02c.4-1.98.78-3.96 1.16-5.94l.53-2.65c.48-2.66.48-2.66.38-6.41l-2.88-1.44a58.48 58.48 0 0 1-25.68-31.06c-3.08-11.73-2.23-24.06 3.31-34.94 1.56-3.19 1.2-4.2.25-7.56-.9-1.92-1.87-3.82-2.88-5.69-5.23-10.35-7.61-19.57-6.12-31.31 3.93-11.94 12.08-19.8 22-27l-1.64-2.78c-11.03-18.8-11.03-18.8-9.36-31.22 3.09-9.91 10-16.53 18.88-21.5 4.77-2.5 4.77-2.5 7.12-2.5l-.66-2.05c-3.26-10.91-3.55-19.58 1.66-29.95 5.55-8.96 14.81-13.02 24.69-15.75 26.4-5.73 58.36-6.46 84.31 1.75l.82-2.2a55.55 55.55 0 0 1 4.02-7.65l1.7-2.8 1.83-2.98 1.9-3.08A1051.3 1051.3 0 0 1 354 610l1.4 1.24 1.85 1.63 1.83 1.62A27.78 27.78 0 0 0 365 618l-1.24-1.4-1.63-1.85-1.62-1.83A30.44 30.44 0 0 1 357 607c9.8-14.81 19.63-29.58 30-44l3.27-4.57a776.43 776.43 0 0 1 22.34-29.78c16.02-20.55 32.5-40.77 50.89-59.27l1.53-1.55A44.81 44.81 0 0 1 472 462Z"/><path d="M588.16 92.36a75.05 75.05 0 0 0 9.72 4.52c12.68 5.26 25.18 13.44 34.37 23.68 3.57 3.73 7.9 5.65 12.48 7.82A59.2 59.2 0 0 1 659 138l2.04 1.76C681 158.17 686.45 189.11 688 215a568.07 568.07 0 0 1 .19 19.31c0 10.67-.36 21.24-1.19 31.88-3.27 27.64-3.27 27.64 6 52.81l2.08 3.08A148.29 148.29 0 0 0 721 350l3.22 2.77a640.4 640.4 0 0 0 16.72 14.04c3.71 3.01 7.14 6.14 10.45 9.58a70.02 70.02 0 0 0 5.11 4.55c3.95 3.34 7.22 7.07 10.5 11.06l2.31 2.73c21.28 26.2 28.3 57.37 25.26 90.54-2.03 18.2-6.67 36.23-11.14 53.98-7.8 31.71-1.13 54.72 13.34 83.2A97.89 97.89 0 0 1 800 630c-4.45-3.18-7.24-6.72-10.25-11.19l-1.44-2.11c-7.14-10.72-13.7-22.27-17.31-34.7l-.68-2.19c-5.58-21.88 1.26-46.39 5.3-67.93 6.79-36.27 7.52-71.92-13.88-103.75-8-11.2-17.73-22.84-28.74-31.13l1.87 2.35c26.09 33.13 41.4 71.39 37.44 114.09l-.24 2.76c-.6 6.11-1.4 12.18-2.32 18.25-5.46 35.86-5.46 35.86-.75 71.55l.55 1.96c5.28 18.07 14.51 34.44 26.21 49.08C798 640 798 640 798 642c-2.87 1.44-5.34 1.11-8.54 1.1l-3.94-.01a26737 26737 0 0 1-8.3-.04L767 643l-1.03-2.18c-6.65-13.96-13.35-27.86-20.7-41.47-1.33-2.47-2.65-4.94-3.96-7.42-21.25-39.84-45.96-78.95-76.74-112.15a326.3 326.3 0 0 1-6.26-6.97l-1.65-1.89a336.55 336.55 0 0 1-3.48-4.1c-5.17-6.05-10.88-10.96-17.18-15.82l-2.45-1.96c-5.98-4.6-12.3-8.2-18.93-11.8l-2.8-1.53L605 432l-.03-1.76a16816.6 16816.6 0 0 0-.47-25.3c-.2-11.53-.44-23.06-.97-34.58l-.12-2.53c-.24-4.99-.73-9.88-1.41-14.83l-1.33 2.94c-16.49 35.3-46.68 59.4-82.6 72.94-24.52 9.65-44.11 26.31-63.07 44.12l-1.99 1.86c-4.18 4.04-7.79 8.47-11.43 13-2.9 3.56-5.93 7-8.95 10.45A450.4 450.4 0 0 0 415 520l-2.48 3.2c-14.36 18.54-28.36 37.37-41.38 56.87l-1.56 2.3-1.37 2.06C367 586 367 586 365 587a45.25 45.25 0 0 1 4.81-9.44c8.47-13.84 10.6-28.28 8.13-44.06l-.38-2.46c-1.67-10.46-3.92-20.82-6.13-31.17-7.97-37.42-.56-68.5 14.57-102.87-22.45 34.19-31.88 71.41-25.86 112.14C367.1 557 367.1 557 359 575l-1.44 3.29C351.58 590.56 342.6 599.85 331 607l-2-1 2.16-1.84C343.8 593.1 353.34 579.17 355 562c.78-15.18-2.07-30.1-5.09-44.9-8.62-42.69-4.3-84.93 19.5-122.32a348.27 348.27 0 0 1 15.5-21.1C395.2 360.47 404.14 346.76 410 331l1.16-3.13c.8-2.72 1.01-4.3.65-7.06-.1-.87-.2-1.74-.32-2.64-.37-2.37-.79-4.73-1.23-7.1-8.58-46.21 4.14-97.03 25.1-138.5a81.85 81.85 0 0 0 6.77-19.03c6.49-26.33 23.52-53.4 46.8-67.76 31.55-18.5 69.27-12.1 99.23 6.58Z"/><path fill="#FEFEFE" d="m320 674 2.19.5c20.25 5 38.64 18.2 55.81 29.5l3.91 2.55c27.07 17.77 53.22 36.99 79.09 56.45l1-5 4 1-.64 2.6a1711.98 1711.98 0 0 0-10.3 43.65 1295.4 1295.4 0 0 1-7.56 32.31c-3.62 14.79-7.13 29.6-10.5 44.44l-3.81 16.75-.5 2.2a4436.3 4436.3 0 0 1-10.71 45.7l-.52 2.17c-1.51 6.38-3 12.78-4.46 19.18h-1l-.44-2.81c-.48-3.2-.48-3.2-1.56-6.19l-2.12-.4-2.75-.54-2.75-.52C404 957 404 957 402 956c1.32-7.08 3.6-13.15 6.56-19.69l2.73-6.14 1.38-3.13c3.2-7.32 6.17-14.74 9.16-22.16 1.24-3.04 2.5-6.08 3.78-9.11 8.76-19.72 8.76-19.72 12.39-40.77l-1.47 3.57a93884.21 93884.21 0 0 1-27.97 67.7A622.37 622.37 0 0 1 397 953c-108.33-6.84-108.33-6.84-143-22l-5.48-2.19c-23.14-9.26-50.68-21.1-63.52-43.81l-1.25-1.9c-4.5-7.92-4.3-19.5-2.26-28.2A70.69 70.69 0 0 1 186 844l1-2 2.02.84c3.53 1.37 7.11 2.58 10.71 3.77l2.27.75a8334.26 8334.26 0 0 0 21.27 7.07l9.5 3.16c8.43 2.82 16.87 5.6 25.35 8.28l2.94.93L268 869c-3.66-2-7.54-3.29-11.48-4.6l-2.23-.76a3899 3899 0 0 0-7.04-2.39 802.76 802.76 0 0 1-28.6-10.13 323.71 323.71 0 0 0-12.25-4.36l-3.04-1.05a291.8 291.8 0 0 0-6.08-2.01c-7.4-2.62-10.74-5.73-14.28-12.7l-1.6-2.97c-2.53-5.6-4.59-10.92-5.4-17.03l-.36-2.36c-.65-7.87 2.68-13.5 7.36-19.64 5.2-5.55 10.91-11.02 18-14 4.99.59 9.9 2.35 14.72 3.74l2.92.84a4997.64 4997.64 0 0 1 12.65 3.67A1241.59 1241.59 0 0 1 290 802c-18.17-8.52-37.23-14.87-56.28-21.13l-5.26-1.73c-11.48-3.85-11.48-3.85-23.34-6.14-3.6-.5-5.68-.91-8.12-3.69l-2-3.31-1.09-1.76c-4.37-7.32-8.9-15.48-6.91-24.24 4.64-10.22 13.58-16.84 23.62-21.19C213 718 213 718 216 718v-2c6.1.6 12 1.52 18 2.75a509.4 509.4 0 0 0 25.89 4.32 593.03 593.03 0 0 1 38.95 6.87A124.9 124.9 0 0 1 314 734v-2l-3.48-.37a91.56 91.56 0 0 1-12.85-2.74l-4.82-1.28-2.53-.67c-17-4.53-33.92-8.28-51.32-10.94l-3.66-.59c-4.25-.52-8.5-.76-12.78-.97l-2.5-.13L214 714c-3.8-7.83-4.5-15.96-2.38-24.5 2.86-6.5 8.5-10.95 14.63-14.25 28.4-9.47 64.84-7.94 93.75-1.25Z"/><path fill="#FDFDFD" d="M543 163c-15.06 6.5-31.8 8.4-48 10 2.47 2.47 4.19 2.74 7.56 3.56l3 .76c27.87 5.54 56.9 1.63 83.5-7.4C592 169 592 169 595 169l-.88 7.31-.23 2.04c-.5 3.99-1.14 7.9-1.94 11.84-1.2 6.48-1.3 12.86-1.26 19.44v3.7c.12 10.98 1.64 21.04 4.31 31.67l.15-2.06c.23-3.09.48-6.17.73-9.25l.23-3.25.26-3.12.22-2.87C597 222 597 222 599 219l.18 2.24c1.74 20.61 4.3 39.93 14.6 58.14C615 282 615 282 614 285c-1.91 1.81-3.94 3.43-6 5.09-5.54 5.29-7.87 13.35-10.75 20.29l-1.57 3.65-1.48 3.56c-.44 1.06-.9 2.12-1.35 3.22-1.24 4.67-.72 8.47 1.45 12.77l1.58 2.23c.5.75 1.02 1.5 1.55 2.27 1.6 2.16 1.6 2.16 4.57 3.92-8.09 18.07-28.8 31.65-46.66 38.76L552 382l-3.12 1.18c-25.7 9.15-56.16 6.39-80.76-5.06-8.5-4.09-16.1-8.76-23.12-15.12l-2.48-2.2c-19.02-17.84-27.87-42.16-28.8-67.87-.46-16.48.04-32.73 3.28-48.93l.42-2.24c3.3-17.32 8.29-34.7 15.58-50.76a1156.1 1156.1 0 0 0 3.56-8.31l.85-2 .84-1.93.73-1.69c1.53-3.1 3.28-6.07 5.02-9.07l3.31.06c20.65.36 41.08.24 61.63-1.94l2.51-.26a289.1 289.1 0 0 0 25.17-3.6c2.44-.27 4.07-.02 6.38.74Z"/><path fill="#010101" d="M18.79-.13h9.39l5.22-.01H47.9l15.7-.02 31.22-.01 37.37-.02A225501.86 225501.86 0 0 1 252.4-.24h2.13A4832536.06 4832536.06 0 0 0 408.98-.3h13.77a6111174.26 6111174.26 0 0 0 27.65 0c49.48-.01 98.95-.04 148.42-.07L705.45-.4h2.21a351858.61 351858.61 0 0 1 67.47 0h2.14c22.76-.01 45.53-.02 68.3-.05 23.56-.02 47.12-.02 70.68-.01 13.6 0 27.19 0 40.78-.03h42.73c4.7-.02 9.4-.02 14.1 0l5.1-.01c2.29-.02 4.58 0 6.87.01h3.86c3.9.59 5.52 1.76 8.31 4.5a39.06 39.06 0 0 1 3.25 5l1.52 2.56c2.27 4.48 2.36 8.34 2.36 13.34v9.2l.01 5.13V53.4l.02 15.39.01 30.57.02 36.6a216515.63 216515.63 0 0 1 .05 117.76v2.1a4677004.55 4677004.55 0 0 0 .05 151.33v11.23a2815371205.78 2815371205.78 0 0 0 0 29.35c.01 48.47.04 96.93.07 145.39a224064.74 224064.74 0 0 1 .06 172.74v2.1c0 22.3.01 44.6.04 66.9.02 23.08.02 46.16.01 69.24 0 13.32 0 26.63.03 39.94v41.86c.02 4.61.02 9.22 0 13.83l.01 4.97c.08 11.94-1.27 20.54-9.64 29.56-5.97 5.52-11.8 6.86-19.73 6.85h-13.98l-13.49-.02h-14.1l-26.68-.03-30.39-.02-62.5-.05.79 2.18 3.57 9.86 1.24 3.43a281.48 281.48 0 0 1 8.13 25.66c5.37 20.15 11.53 46.45.74 65.7-2.92 4.3-5.77 7.29-10.79 8.93-5.75.99-10.04-.06-15.09-2.9A73.19 73.19 0 0 1 827 1137l.48 3.32c.64 5.18.78 10.34.83 15.56l.09 2.81c.07 8.07-1.59 15-6.9 21.25L819 1182l-1.65 1.59c-5.33 3.2-13.35 2.38-19.35 1.41-13.32-5-21.47-18.64-29-30l-.08 2.71c-.47 9.96-1.54 18.89-9.03 26.05-3.73 2.45-7.8 2.21-12.14 2.12l-2.85-.05c-6.67-.32-10.99-1.43-15.8-6.32L727 1177l-2.42-2.57c-7.45-8.3-12.99-17.82-18.58-27.43l-.11 3.44c-.7 17.47-.7 17.47-6.08 24.37-4.64 3.61-9.1 5.54-15.06 5.25-10.85-1.77-19.24-8.46-26.75-16.06l-2.6-2.58c-12.3-12.71-21.7-28.1-30.4-43.42l-1.32-2.32a618.77 618.77 0 0 1-19.38-37.4c-5.3-10.93-5.3-10.93-5.3-13.28l-1.91.49c-4.17.69-8.26.71-12.47.75l-2.79.03c-20.26.17-39.94.08-59.83-4.27l-2.69-.58c-15.24-3.43-29.54-8.86-43.55-15.7A79.59 79.59 0 0 0 464 1041c1.37-3.16 1.99-4 5-6 1 .5 1.99 1.02 3 1.54 20.28 10.3 40.47 17.96 63 21.46l3.42.62c20.97 3.32 43.48 1.8 64.58.38l1.47 3.38a502.9 502.9 0 0 0 13.37 28.35c1.3 2.53 2.56 5.07 3.84 7.61 21.55 43.4 21.55 43.4 57.32 74.07 5.02 1.47 9.42 1.06 14.37-.41 3.67-2.8 4.82-5.6 5.63-10 .87-9.75-.65-18.57-3-28l-.84-3.5c-2.2-8.78-5.2-16.68-9.1-24.87-1.17-2.53-2.33-5.06-3.48-7.6l-.9-1.96c-3.41-7.58-6.38-15.32-9.37-23.07-4.07-10.58-8.37-20.92-13.5-31.04-1-1.96-1.9-3.96-2.81-5.96l1-2 6 10 1.29 2.15c2.71 4.61 2.71 4.61 2.71 6.85h4c9.5 19.15 18.29 38.64 25.06 58.94 7.67 22.67 23.36 55.67 44.92 68.21 4.46 1.87 8.81 1.22 13.27-.15 4.7-3.42 6.53-8.43 7.75-14 .12-2.87.19-5.7.19-8.56l.03-2.27c.03-10.17-1.99-18.67-6.66-27.67a321.64 321.64 0 0 1-11-24.87 411.5 411.5 0 0 0-12.27-27.74c-3.66-7.52-7.2-15.1-10.64-22.72l-1.8-3.94-2.5-5.5-1.44-3.2-.91-2.53 1-2a438.6 438.6 0 0 1 12 21l-3-12 5-1c14.24 28.23 26.4 56.99 34.7 87.57a63.19 63.19 0 0 0 6.49 15.37l1.2 2.07c11.43 19.63 11.43 19.63 29.83 31.65 4.94.87 8.7.27 13.05-2.22 3.98-3.32 5.8-8.45 6.73-13.44.6-10.8-.34-20.48-3-31l-.6-3.44c-1.94-10-6.1-18.39-10.76-27.4a379.74 379.74 0 0 1-14.43-31.38c-1.26-3.03-2.5-6.07-3.72-9.11a59773.7 59773.7 0 0 1-4.86-11.65l-1.53-3.57c-1.17-3.68-1.3-6.62-1.1-10.45h5a1644.56 1644.56 0 0 1 20.71 45.41 260.05 260.05 0 0 1 8.98 23.47c3.07 9.34 7.63 17.13 13.31 25.12l1.3 1.85c5.2 7.35 10.48 14.04 18.7 18.15 4.93.5 7.02.59 11.31-2 6.09-5.82 6.82-15.03 7.03-22.99.4-35.58-13.67-70.8-28.36-102.69l-1.02-2.22c-.62-1.36-1.25-2.72-1.9-4.07-2.32-5.03-2.08-7.73-1.06-13.03h2l13 28c22.2.07 44.38.12 66.58.16 10.3.01 20.6.03 30.9.07 8.99.03 17.97.05 26.95.05 4.76 0 9.51.02 14.27.04 4.47.02 8.95.02 13.43.02 1.64 0 3.28 0 4.92.02h10.54c5.4-.58 9.3-2.66 12.72-6.86.5-.59.98-1.18 1.5-1.78 2.56-3.68 2.32-7.15 2.32-11.49v-9.18l.01-5.11v-14.16l.02-15.37.01-30.52.02-36.53a215694.13 215694.13 0 0 0 .05-117.56v-2.09a4650569.82 4650569.82 0 0 1 .05-151.06v-11.21a2806405159.07 2806405159.07 0 0 1 0-29.3c.01-48.38.04-96.76.07-145.14a223293.55 223293.55 0 0 0 .06-174.52c0-22.26.01-44.52.04-66.79.02-23.04.02-46.08.01-69.12 0-13.3 0-26.59.03-39.88V51.9c.02-4.6.02-9.2 0-13.8l.01-4.96c.15-11.67.15-11.67-4.51-22.14-1.85-1.88-1.85-1.88-3.94-2.94l-1.96-1.15c-4.6-2-9.12-2.04-14.06-2.04h-14.19l-14.03-.01h-15.24c-10.09-.02-20.17-.02-30.26-.02l-36.23-.01a220819.14 220819.14 0 0 0-128.98-.04 699221.84 699221.84 0 0 0-179.63-.03c-47.97 0-95.94-.02-143.91-.04l-103.4-.04h-2.15a435921.56 435921.56 0 0 0-67.52 0c-22.08 0-44.15-.01-66.23-.03-22.84-.01-45.7-.02-68.54-.01-13.18 0-26.36 0-39.53-.02H41.15c-9.47-.05-17.76-.02-26.03 5.2-5.65 5.82-6.24 12.38-6.25 20.14v14.19l-.01 14.03v15.24c-.02 10.09-.02 20.17-.02 30.26l-.01 36.23a220819.14 220819.14 0 0 0-.04 128.98 699221.84 699221.84 0 0 0-.03 179.63c0 47.97-.02 95.94-.04 143.91l-.04 103.4v2.15a435921.56 435921.56 0 0 0 0 67.52c0 22.08-.01 44.15-.03 66.23-.01 22.84-.02 45.7-.01 68.54 0 13.18 0 26.36-.02 39.53v60.05c-.26 13.86-.26 13.86 5.7 26.03 6.84 5.41 12.45 5.55 20.9 5.52l3.77.02c3.44.01 6.88.02 10.32.01 3.72 0 7.43.02 11.14.03 6.44.03 12.87.04 19.3.04 9.3 0 18.6.03 27.9.06l45.26.1c14.65.01 29.3.04 43.96.08h2.74l13.6.04c37.6.1 75.2.16 112.79.22l1-5 5 1v4l1.84-.02c24.41-.07 48.14 4.04 72.16 8.02v1a144517.17 144517.17 0 0 1-163.51.22H239l-55.65.09c-19.04.04-38.07.06-57.11.07-11.75 0-23.5.02-35.24.05-8.05.02-16.1.03-24.16.02-4.65 0-9.3 0-13.95.03-4.25.02-8.51.02-12.77 0-1.54 0-3.07 0-4.61.02-9.9.08-17.86-.86-26.33-6.31-6.6-6.6-9.44-12.9-9.44-22.36l-.01-2.13V998.48c-.02-4.74-.01-9.47 0-14.2l-.02-15.43-.01-27.05c0-13.41 0-26.82-.02-40.23a105735.05 105735.05 0 0 1-.02-84.42v-2.1l-.01-46.1-.01-18.99v-2.12a355009.26 355009.26 0 0 1-.02-158.6 234924.77 234924.77 0 0 0-.06-179.49v-2.24l-.03-68.54v-2.18a326670.46 326670.46 0 0 1 0-68.33c0-22.34 0-44.68-.03-67.02-.01-23.12-.02-46.24 0-69.36 0-13.34 0-26.67-.02-40.01v-26.7c.01-5.08.02-10.15 0-15.23-.02-4.62-.01-9.23 0-13.85v-4.98C-.58 21.04-.2 11.97 7.12 4l1.51-1.69C11.71-.65 14.67-.13 18.8-.13ZM704 1144l1 2Z"/><path fill="#020202" d="m513 436 .06 3.45a3751.8 3751.8 0 0 0 .36 18.4c-.18 20.87-.18 20.87 6.58 40.15 23.04.99 42.64-10.26 59.31-25.56 1.91-1.8 3.8-3.62 5.69-5.44l2.18-1.98c4.23-3.98 7.8-8.37 11.26-13.02l1.32-1.73c3.17-4.4 3.91-7.86 4.24-13.27 4.48.61 8.13 2.37 12.06 4.5l2 1.08c12.41 6.87 23.03 16.35 32.94 26.42-1.19 3.56-1.95 3.88-5.06 5.79l-2.58 1.59-2.8 1.68-2.87 1.75a573.14 573.14 0 0 1-24.68 14.1c-1.83.99-3.64 2.02-5.44 3.06-24.22 13.64-58.07 29.48-86.5 22.16-15.67-5.23-27.39-15.71-35.14-30.23-2.66-5.44-4.59-11.16-6.34-16.96a178.8 178.8 0 0 0-1.68-5.19c-1.05-3.75-1.68-6.33.23-9.84 7.1-7.79 24.08-20.91 34.86-20.91Z"/><path fill="#F9F9F9" d="M654.56 274.63c2.9 2.88 2.96 5.84 3.13 9.8-.9 18.78-12.24 36.03-25.69 48.57-8.04 6.23-13.72 8.03-24 7-5-1.67-8-4.43-10.56-9-1.66-3.41-1.33-5.36-.44-9 1.55-4.36 3.35-8.6 5.13-12.88l1.4-3.5c2.85-6.87 5.63-11.96 11.47-16.62l1.7-1.38c1.68-1.3 3.38-2.53 5.11-3.75l1.83-1.29c9.19-6.37 19.76-13.05 30.92-7.95Z"/><path fill="#0A0A0A" d="M492 196h2c-.72 4.37-2.1 8.42-3.63 12.56l-.87 2.39a506.15 506.15 0 0 1-7.13 17.78l-.98 2.36c-1.65 3.92-3.3 7.84-4.97 11.75A309.38 309.38 0 0 0 466 271h13c-2.17 7.4-4.53 14.7-7 22 9.24.2 17.94.15 27-2 1.97 3.94 1.45 8.7 1 13-1.29 3.16-2.88 5.44-6 7-5.97.85-9.23-.85-13.94-4.21-2.49-2.16-4.05-4.48-5.8-7.24-2.22-2.73-4.99-3.46-8.26-4.55l1.38-5.13.77-2.88c.86-3.02 1.86-6 2.85-8.99l-13-1c.6-5.67 2.1-10.6 4.06-15.94l.86-2.36c.68-1.9 1.38-3.8 2.08-5.7l-3 2c-2.19-.38-2.19-.38-4-1l5-3-3.31-.25c-3.69-.75-3.69-.75-5.56-2.63-2.2-4.14-2.3-7.5-2.13-12.12l1-2-2.38-.81C448 232 448 232 446 229c-.2-2.26-.2-2.26-.13-4.69l.06-2.45.07-1.86a32.84 32.84 0 0 1 5 6c4.65-.48 4.65-.48 9-2 6.19-.57 6.19-.57 9.31 1.63 1.92 2.69 2.7 5.23 3.69 8.37.3-.65.58-1.3.88-1.98 5.52-12.34 11.04-24.5 18.12-36.02Z"/><path fill="#FAFAFA" d="M589 364c0 4.04-1.96 6.23-4.25 9.38l-1.36 1.87c-14.66 19.79-33.38 33.66-55.45 44.25l-2.13 1.03-2.03.94-1.78.82c-2.62.93-5.25 1.3-8 1.71l-2-12.69-.58-3.63-.55-3.5-.5-3.23c-.34-2.69-.44-5.24-.37-7.95l2.9-.11c27.2-1.26 56.68-8.36 76.1-28.89Z"/><path fill="#070707" d="M530.44 244c4.44 1.25 7.15 3.14 9.93 6.81 1.77 1.55 1.77 1.55 5.13 1 3.59-.61 3.59-.61 6.5-2.81-.3 3.44-1.02 5.02-3.13 7.81-3.54 2.7-5.52 2.62-9.87 2.19l-.69 3.19c-1.2 4.05-2.82 6.3-6.31 8.81-3.49.58-6.77.61-10-1l2 4c-3-1-3-1-4.16-3.2-1.88-6.29-1.94-13.32.91-19.3 4.5-7.5 4.5-7.5 9.69-7.5Z"/><path fill="#141414" d="M218 714c32-2.06 65.34 9.95 96 18v2l-3.45-.75a783.01 783.01 0 0 0-35.68-6.75l-5.4-.92a1824 1824 0 0 0-32.7-5.25c-6.4-.98-12.55-2.51-18.77-4.33v-2Z"/><path fill="#111" d="M647 288a36.5 36.5 0 0 1-7.19 3.75c-10.8 4.77-18.68 13.29-24.81 23.25l3-2c3.04-.48 5.95-.47 9 0 2.56 2 2.56 2 4 4l-1.8-.07c-5.52-.13-9.62-.22-13.95 3.62-2.57 2.5-4.92 5-7.06 7.89L607 330h-2c.43-12.88 7.06-22.18 16-31 1-1 1-1 2-2.04 6.95-6.6 14.43-9.67 24-8.96Z"/><path fill="#0C0C0C" d="M476 189c2.55 1.17 4.06 2.06 6 4 .31 2.38.31 2.38 0 5-2.51 2.71-4.06 3-7.79 3.43-1.42.02-2.85.02-4.27 0l-2.18.07c-3.36 0-5.25-.02-7.76-2.37-1-2.13-1-2.13-1-4.7 1-2.43 1-2.43 2.88-4.24 4.69-1.79 9.16-1.76 14.12-1.19Z"/><path fill="#060606" d="M544 197a27.28 27.28 0 0 1 10 5.88c1.36 2.89 1.41 4.97 1 8.12-3 2-3 2-5.3 1.79A50.45 50.45 0 0 1 535 206c-1.37-2.68-1.25-3.93-1-7 3.79-2.53 5.5-2.44 10-2Z"/><path fill="#1B1B1B" d="M189 840c7.22 1.62 14.05 4.08 20.94 6.75a638.78 638.78 0 0 0 20.56 7.63l2.37.82c4.6 1.6 9.19 3.16 13.79 4.71 2.68.9 5.35 1.82 8.03 2.73l5.93 1.98 3.64 1.24 3.28 1.1C270 868 270 868 271 870a223 223 0 0 1-21.5-5.75l-3.7-1.15c-11.7-3.67-23.31-7.59-34.93-11.54l-2.77-.94-7.86-2.68-2.39-.8c-3.26-1.13-5.96-2.22-8.85-4.14v-3Z"/><path fill="#5E5E5E" d="M450 997c6.41-.27 12.45.76 18.75 1.88l3.15.52 3.02.53 2.74.48c2.34.59 2.34.59 5.34 2.59 2.28.67 2.28.67 4.69 1.13l2.45.5 1.86.37v1c-7.45 1.05-13.71.91-21-1v-1h5l1-2-2.1-.11c-8.5-.57-16.59-2.08-24.9-3.89v-1Z"/><path fill="#0D0D0D" d="M364 587c0 3.54-.78 4.55-2.7 7.46l-1.73 2.62-1.82 2.73-1.78 2.7-3.43 5.17c-.94 1.42-1.87 2.85-2.78 4.3-.87 1.37-1.8 2.7-2.76 4.02h-2c.27-6.2 3.37-9.45 7.25-13.94a1829.98 1829.98 0 0 0 5.13-6.08c2.36-2.9 4.5-5.91 6.62-8.98Z"/><path fill="#3D3D3D" d="M235 857c6.52.57 12.64 3.11 18.79 5.24l6.1 2.08 3.88 1.33 3.55 1.22C270 868 270 868 271 870c-8.2-1.64-16.1-4.11-24.06-6.63A8490.17 8490.17 0 0 0 233 859l2-2Z"/><path fill="#222" d="M262 791c7.3 1.1 13.8 3.76 20.56 6.63l3.06 1.27L293 802c-4.03 1.34-5.86.28-9.86-1.09l-2-.68c-2.11-.71-4.22-1.44-6.33-2.17l-4.3-1.46L260 793l2-2Z"/><path fill="#303030" d="M619 630h1c4.4 19.97 4.4 19.97 5 29l-3-1c-.7-3.16-1.39-6.33-2.06-9.5l-.6-2.69c-1.2-5.65-1.4-10.12-.34-15.81Z"/><path fill="#E6E6E6" d="M498 301c-1.75 5.75-1.75 5.75-4 8-5.3.56-5.3.56-7.88-1.5L485 306c4.45-3.73 7.17-5.16 13-5Z"/><path fill="#2C2C2C" d="M282 725c7.02.53 13.7 2.3 20.5 4.06l3.36.86L314 732v2l-3.73-.8-5.02-1.08-2.61-.55a249 249 0 0 0-17.49-3.08C283 728 283 728 281 726l1-1Z"/><path fill="#1F1F1F" d="m500 314 1 2c-2.75 3.33-4.16 4.87-8.5 5.56-4-.64-5.7-1.68-8.5-4.56v-2l2.56 1.06c3.95 1.08 6.47.84 10.44-.06l3-2Z"/><path fill="#383838" d="m464 755 14 2-1 3c-5.2.21-9.13-.4-14-2l1-3Z"/><path fill="#232323" d="M656 1034c4.02 3.42 7.29 8 9 13-.87 2.28-.87 2.28-2 4a2349.3 2349.3 0 0 1-4.51-9.5c-2.49-5.27-2.49-5.27-2.49-7.5Z"/><path fill="#2C2C2C" d="M241 858c2.7.92 5.34 1.95 8 3l-1 2a892.9 892.9 0 0 1-5.81-1.38l-3.27-.77C236 860 236 860 233 858c2.96-1.48 4.79-.71 8 0Z"/><path fill="#131313" d="M364 587c0 4.08-1.7 5.85-4 9.19l-2.25 3.29L356 602l-2-2 10-13Z"/><path fill="#D2D2D2" d="m543 163-5.38 2-3.02 1.13c-2.6.87-2.6.87-4.6.87.56-1.94.56-1.94 2-4 4.04-.97 7.04-1.14 11 0Z"/><path fill="#2B2B2B" d="M499 293h1c.45 6.95.67 11.6-4 17l-2-2 1.94-2.44c2.66-3.92 2.85-7.93 3.06-12.56Z"/><path fill="#C5C5C5" d="M479 1002c5.37.5 10.7 1.02 16 2l-1 3h-5l-1-2c-2.12-.69-2.12-.69-4.56-1.13l-2.5-.5-1.94-.37v-1Z"/><path fill="#181818" d="m373 573 1 3c-1.65 2.7-1.65 2.7-3.94 5.69l-2.27 3L366 587c0-3.65 1.03-5.05 2.94-8.13l1.65-2.69C372 574 372 574 373 573Z"/><path fill="#252525" d="M608 675h2c.87 1.43 1.72 2.87 2.56 4.31l1.44 2.43c1 2.26 1 2.26 0 5.26-3.17-3.63-4.43-7.51-6-12Z"/><path fill="#0F0F0F" d="m226 854 9 2v2c-6.75-.88-6.75-.88-9-2v-2Z"/></svg>