<?xml version="1.0" encoding="UTF-8"?>
<svg version="1.1" xmlns="http://www.w3.org/2000/svg" width="40" height="40">
<path d="M0 0 C0.98484375 0.01804688 1.9696875 0.03609375 2.984375 0.0546875 C4.10585938 0.08949219 4.10585938 0.08949219 5.25 0.125 C5.8125 2.0625 5.8125 2.0625 6.25 4.125 C4.26016107 6.11483893 0.39457383 5.49891574 -2.3046875 5.6484375 C-5.20160494 6.21301246 -5.95410996 6.82741114 -7.75 9.125 C-8.20942166 11.29226503 -8.20942166 11.29226503 -8.1484375 13.6875 C-8.15230469 14.56664062 -8.15617188 15.44578125 -8.16015625 16.3515625 C-8.14855469 17.26679688 -8.13695312 18.18203125 -8.125 19.125 C-8.13660156 20.04023438 -8.14820313 20.95546875 -8.16015625 21.8984375 C-8.15628906 22.77757813 -8.15242187 23.65671875 -8.1484375 24.5625 C-8.14505371 25.36558594 -8.14166992 26.16867188 -8.13818359 26.99609375 C-7.64796896 29.68456646 -6.97535378 30.55768426 -4.75 32.125 C-2.58273497 32.58442166 -2.58273497 32.58442166 -0.1875 32.5234375 C0.69164062 32.52730469 1.57078125 32.53117187 2.4765625 32.53515625 C3.39179688 32.52355469 4.30703125 32.51195312 5.25 32.5 C6.16523438 32.51160156 7.08046875 32.52320313 8.0234375 32.53515625 C8.90257813 32.53128906 9.78171875 32.52742188 10.6875 32.5234375 C11.49058594 32.52005371 12.29367188 32.51666992 13.12109375 32.51318359 C15.75718446 32.03252027 16.63872983 31.23160876 18.25 29.125 C18.82571496 26.62296352 18.82571496 26.62296352 18.9375 23.9375 C19.00324219 23.03644531 19.06898437 22.13539062 19.13671875 21.20703125 C19.17410156 20.51996094 19.21148437 19.83289063 19.25 19.125 C21.1875 18.5625 21.1875 18.5625 23.25 18.125 C24.95792999 19.83292999 24.50270346 21.98043481 24.5625 24.3125 C24.51635512 29.38843706 23.79249762 32.28729425 20.25 36.125 C15.57997675 39.0143041 10.70479604 38.49305111 5.375 38.5 C4.39402344 38.52449219 3.41304687 38.54898438 2.40234375 38.57421875 C-3.45777667 38.59794393 -7.23271988 38.26462969 -11.75 34.125 C-14.63991501 29.45571591 -14.11805184 24.57923757 -14.125 19.25 C-14.14949219 18.26902344 -14.17398437 17.28804687 -14.19921875 16.27734375 C-14.22294393 10.41722333 -13.88962969 6.64228012 -9.75 2.125 C-6.58949345 -0.16049027 -3.83102889 -0.09121497 0 0 Z " fill="#000000" transform="translate(14.75,0.875)"/>
<path d="M0 0 C1.81242052 -0.02687279 3.62495233 -0.04633715 5.4375 -0.0625 C6.44683594 -0.07410156 7.45617187 -0.08570312 8.49609375 -0.09765625 C11 0 11 0 12 1 C12.07226502 2.85287502 12.0838122 4.70833878 12.0625 6.5625 C12.05347656 7.57441406 12.04445313 8.58632812 12.03515625 9.62890625 C12.02355469 10.41136719 12.01195313 11.19382812 12 12 C10.68 12.33 9.36 12.66 8 13 C7.34 12.01 6.68 11.02 6 10 C4.98679687 11.10021484 4.98679687 11.10021484 3.953125 12.22265625 C2.61507813 13.62837891 2.61507813 13.62837891 1.25 15.0625 C-0.07257812 16.47208984 -0.07257812 16.47208984 -1.421875 17.91015625 C-4 20 -4 20 -6.328125 19.80859375 C-6.87984375 19.54175781 -7.4315625 19.27492188 -8 19 C-7.48223379 14.89552608 -5.35372556 13.04300477 -2.4375 10.25 C-1.61121094 9.45078125 -0.78492188 8.6515625 0.06640625 7.828125 C0.70449219 7.22484375 1.34257812 6.6215625 2 6 C1.01 5.34 0.02 4.68 -1 4 C-0.67 2.68 -0.34 1.36 0 0 Z " fill="#000000" transform="translate(27,1)"/>
<path d="M0 0 C1.50046875 0.00386719 1.50046875 0.00386719 3.03125 0.0078125 C4.0315625 0.00523438 5.031875 0.00265625 6.0625 0 C8.53125 0.1328125 8.53125 0.1328125 9.53125 1.1328125 C9.60351502 2.98568752 9.6150622 4.84115128 9.59375 6.6953125 C9.58472656 7.70722656 9.57570313 8.71914062 9.56640625 9.76171875 C9.55480469 10.54417969 9.54320312 11.32664062 9.53125 12.1328125 C8.21125 12.4628125 6.89125 12.7928125 5.53125 13.1328125 C4.68670644 9.75463825 4.42280081 7.45816007 5.53125 4.1328125 C2.89125 4.4628125 0.25125 4.7928125 -2.46875 5.1328125 C-3.03125 3.1953125 -3.03125 3.1953125 -3.46875 1.1328125 C-2.46875 0.1328125 -2.46875 0.1328125 0 0 Z " fill="#18181B" transform="translate(29.46875,0.8671875)"/>
</svg>
